<?xml version="1.0" standalone="no"?>
<!DOCTYPE svg PUBLIC "-//W3C//DTD SVG 20010904//EN"
 "http://www.w3.org/TR/2001/REC-SVG-20010904/DTD/svg10.dtd">
<svg version="1.0" xmlns="http://www.w3.org/2000/svg"
 width="6748.000000pt" height="1667.000000pt" viewBox="0 0 6748.000000 1667.000000"
 preserveAspectRatio="xMidYMid meet">

<g transform="translate(0.000000,1667.000000) scale(0.100000,-0.100000)"
fill="#000000" stroke="none">
<path d="M61680 16650 c-1 -3 -450 -1762 -999 -3910 l-997 -3905 -25280 -5
-25279 -5 -1573 -335 -1573 -335 26767 -3 c21406 -2 26765 -5 26761 -15 -16
-41 -1537 -6020 -1533 -6024 3 -3 1248 452 2767 1011 1519 559 2762 1015 2764
1014 1 -2 109 -538 240 -1193 l239 -1190 515 -864 c283 -475 516 -860 518
-855 2 6 -192 984 -431 2174 -239 1191 -433 2166 -431 2169 3 2 748 277 1656
612 909 335 1656 612 1661 617 4 4 7 730 6 1613 l-3 1604 -2110 3 -2110 2
-504 2513 c-659 3282 -1069 5313 -1071 5307z m405 -5440 c261 -1301 475 -2368
475 -2372 0 -5 -488 -8 -1085 -8 -835 0 -1085 3 -1085 12 0 12 1169 4599 1197
4698 9 30 18 51 19 45 2 -5 218 -1074 479 -2375z m624 -3112 c147 -708 657
-3275 653 -3280 -10 -11 -4406 -1628 -4411 -1623 -3 4 1227 4843 1255 4938 5
16 73 17 1249 17 l1244 0 10 -52z m4089 -984 l-3 -1036 -1355 -499 c-1438
-530 -1420 -523 -1425 -517 -5 5 -615 3047 -615 3069 0 19 29 19 1700 19
l1700 0 -2 -1036z"/>
<path d="M11600 6854 c-207 -19 -384 -53 -541 -104 -645 -211 -1017 -753 -960
-1396 15 -172 49 -304 110 -429 126 -255 319 -418 766 -642 334 -168 418 -229
466 -337 34 -77 31 -189 -7 -264 -52 -100 -149 -153 -319 -173 -105 -12 -284
-1 -416 26 -211 43 -494 166 -699 304 -58 39 -106 67 -107 63 -15 -57 -213
-1015 -210 -1018 14 -15 235 -110 332 -144 363 -125 736 -181 1112 -166 707
28 1188 240 1456 642 146 219 207 425 207 697 0 314 -75 554 -235 754 -122
153 -327 306 -645 483 -300 168 -408 249 -458 345 -22 42 -27 63 -27 130 0 94
20 140 86 199 91 83 209 112 414 103 280 -13 521 -83 831 -240 74 -38 127 -60
129 -53 4 13 196 954 198 975 2 16 -126 62 -340 121 -180 49 -353 85 -513 105
-119 15 -534 28 -630 19z"/>
<path d="M52610 6850 c-288 -23 -548 -73 -795 -155 -634 -209 -1073 -585
-1355 -1160 -77 -158 -157 -384 -194 -555 -77 -349 -86 -759 -24 -1080 125
-657 577 -1113 1249 -1264 212 -47 343 -60 619 -59 273 0 410 12 635 58 109
22 339 86 351 98 6 6 252 1131 248 1136 -2 2 -45 -15 -96 -37 -175 -76 -380
-138 -573 -174 -92 -17 -410 -17 -490 0 -339 73 -542 250 -626 545 -21 73 -24
103 -24 277 0 208 10 279 62 445 99 315 311 572 588 712 192 97 369 134 644
134 302 -1 512 -43 794 -161 43 -18 79 -31 81 -29 5 6 254 1134 251 1137 -1 1
-47 14 -101 27 -119 30 -350 69 -529 90 -156 19 -555 27 -715 15z"/>
<path d="M55630 6849 c-569 -57 -989 -277 -1233 -645 -164 -247 -224 -465
-214 -779 8 -232 41 -374 127 -532 127 -236 337 -406 755 -612 332 -165 421
-231 465 -348 53 -141 0 -296 -124 -368 -160 -93 -519 -79 -840 32 -140 48
-319 137 -463 232 l-121 79 -11 -46 c-33 -140 -201 -948 -201 -963 0 -48 440
-212 720 -268 221 -44 343 -55 615 -55 271 1 397 12 610 55 777 158 1225 712
1155 1428 -39 410 -202 662 -601 929 -42 28 -165 101 -275 162 -217 123 -292
171 -371 237 -110 92 -146 240 -89 358 77 156 286 214 619 170 222 -29 406
-89 660 -214 86 -43 157 -76 157 -74 0 3 45 224 100 492 55 267 100 491 100
497 0 20 -398 135 -635 184 -55 11 -156 27 -225 36 -153 18 -551 26 -680 13z"/>
<path d="M2286 6748 c-48 -83 -2276 -4101 -2276 -4104 0 -2 308 -4 686 -4
l685 0 189 385 189 385 615 0 c338 0 617 -4 620 -8 3 -5 16 -154 30 -333 14
-178 29 -348 32 -376 l5 -53 635 0 c349 0 634 3 634 8 0 17 -461 4099 -465
4120 l-5 22 -775 0 -774 0 -25 -42z m596 -1110 c-2 -130 6 -373 22 -679 14
-261 26 -499 26 -527 l0 -52 -365 0 c-201 0 -365 3 -365 6 0 4 114 248 254
543 234 493 346 741 391 864 33 89 40 61 37 -155z"/>
<path d="M5677 6768 c-17 -68 -867 -4101 -867 -4114 0 -12 81 -14 575 -14 316
0 575 2 575 4 0 3 88 416 196 918 256 1192 249 1158 278 1338 15 85 29 165 31
178 5 18 27 -19 103 -170 59 -116 335 -594 691 -1193 326 -550 604 -1017 617
-1037 l24 -38 490 0 c270 0 490 2 490 4 0 3 194 922 431 2043 237 1121 433
2053 436 2071 l6 32 -578 -2 -579 -3 -188 -890 c-209 -994 -274 -1307 -283
-1379 -7 -55 -14 -52 -40 19 -43 119 -168 336 -728 1265 l-594 985 -540 3
-541 2 -5 -22z"/>
<path d="M13955 6778 c-2 -7 -198 -933 -435 -2058 -237 -1125 -434 -2053 -436
-2062 -5 -17 63 -18 1330 -18 734 0 1337 4 1340 8 5 8 206 946 206 962 0 7
-252 10 -711 10 l-711 0 5 23 c3 12 31 141 62 287 31 146 58 273 61 283 5 16
44 17 630 17 343 0 624 2 624 5 0 2 45 219 100 481 55 262 100 481 100 485 0
5 -279 9 -620 9 -489 0 -620 3 -620 13 0 14 108 542 116 570 5 16 46 17 669
17 623 0 664 1 669 18 3 9 48 222 101 472 53 250 99 463 101 473 5 16 -61 17
-1286 17 -1023 0 -1292 -3 -1295 -12z"/>
<path d="M17220 6781 c0 -5 -194 -926 -431 -2047 -237 -1122 -433 -2051 -436
-2067 l-6 -27 1338 2 1338 3 97 455 c53 250 100 470 104 488 l8 32 -711 0
c-485 0 -711 3 -711 10 0 6 149 715 330 1577 182 861 330 1569 330 1574 0 5
-267 9 -625 9 -361 0 -625 -4 -625 -9z"/>
<path d="M20425 6778 c-2 -7 -198 -931 -435 -2053 -236 -1122 -432 -2050 -435
-2062 l-5 -23 625 0 625 0 5 23 c9 38 295 1419 295 1423 0 2 278 5 617 6 l617
3 103 465 c56 256 102 475 102 488 l1 22 -610 0 c-482 0 -610 3 -610 13 1 6
34 172 74 367 l72 355 677 3 c372 1 677 4 677 7 0 8 201 949 205 963 3 9 -260
12 -1296 12 -1031 0 -1301 -3 -1304 -12z"/>
<path d="M25255 6778 c-2 -7 -198 -933 -435 -2058 -237 -1125 -433 -2053 -436
-2062 -5 -17 46 -18 968 -18 1009 0 1240 7 1468 40 342 50 665 163 929 324
374 228 668 575 845 997 137 328 195 615 203 1015 8 344 -15 520 -94 748 -175
503 -564 830 -1143 960 -268 59 -260 59 -1323 63 -799 3 -978 2 -982 -9z
m1688 -1001 c153 -41 239 -87 329 -177 122 -122 178 -254 200 -479 14 -134 -1
-358 -32 -514 -95 -462 -364 -791 -755 -921 -147 -49 -218 -58 -544 -63 l-304
-5 6 23 c3 13 105 499 227 1079 121 580 223 1063 226 1074 6 17 20 18 278 14
252 -5 278 -7 369 -31z"/>
<path d="M29454 6773 c30 -105 688 -2693 688 -2708 0 -11 -66 -330 -146 -709
-80 -379 -146 -695 -146 -702 0 -12 102 -14 625 -14 l625 0 5 23 c3 12 71 337
151 721 l146 699 944 1348 c519 741 944 1350 944 1353 0 3 -314 6 -697 6
l-698 -1 -315 -591 c-419 -786 -420 -788 -497 -980 -37 -93 -70 -168 -75 -168
-4 0 -8 48 -8 108 0 141 -4 174 -106 960 l-88 672 -679 0 c-641 0 -678 -1
-673 -17z"/>
<path d="M33695 6768 c-28 -110 -870 -4120 -866 -4123 2 -3 262 -5 576 -5
l572 0 193 903 c227 1057 271 1269 296 1435 10 67 21 122 24 122 4 0 21 -35
39 -77 53 -130 123 -251 766 -1337 l620 -1046 491 0 490 0 434 2053 c238 1128
436 2062 438 2075 l4 22 -578 0 -579 0 -233 -1108 c-127 -609 -235 -1131 -238
-1159 -4 -29 -10 -53 -14 -53 -4 0 -12 19 -19 43 -32 108 -160 331 -724 1267
l-606 1005 -540 3 -541 2 -5 -22z"/>
<path d="M38509 4729 c-629 -1133 -1145 -2067 -1147 -2075 -3 -12 95 -14 680
-14 l684 0 187 383 186 382 620 3 620 2 5 -42 c7 -51 56 -674 56 -706 l0 -22
635 0 635 0 0 25 c0 14 -103 942 -230 2061 -126 1120 -230 2042 -230 2050 0
12 -121 14 -778 14 l-779 0 -1144 -2061z m1715 934 c-4 -127 3 -334 24 -723
17 -300 28 -548 25 -552 -5 -9 -717 -11 -725 -3 -3 3 108 245 247 538 245 518
354 757 391 865 10 28 24 52 31 52 9 0 11 -43 7 -177z"/>
<path d="M42591 4738 c-238 -1129 -435 -2063 -438 -2075 l-5 -23 550 0 c303 0
553 4 556 9 8 12 409 1907 452 2130 40 213 81 463 119 731 25 173 38 224 49
189 2 -8 7 -140 10 -294 3 -178 32 -724 80 -1499 42 -670 76 -1229 76 -1242
l0 -24 576 2 576 3 582 1270 c320 699 629 1383 686 1520 97 236 130 302 130
264 0 -8 -25 -130 -56 -270 -30 -139 -174 -814 -320 -1499 -145 -685 -266
-1255 -269 -1268 l-5 -22 617 2 617 3 433 2040 c238 1122 435 2055 439 2073
l6 32 -954 0 -955 0 -522 -1190 c-573 -1305 -537 -1219 -628 -1480 -35 -102
-68 -189 -73 -194 -6 -6 -7 73 -4 200 5 183 -3 356 -65 1409 -39 660 -71 1212
-71 1228 l0 27 -878 0 -877 0 -434 -2052z"/>
<path d="M48850 6738 c-89 -416 -860 -4075 -860 -4084 0 -20 1238 -21 1245 -1
4 10 875 4126 875 4134 0 2 -281 3 -624 3 l-624 0 -12 -52z"/>
</g>
</svg>
