<svg width="125" height="34" viewBox="0 0 125 34" fill="none" xmlns="http://www.w3.org/2000/svg">
<g id="Group 1000004042">
<path id="Vector" d="M78.6206 23.314L80.9502 23.313L81.0451 24.4738C82.5482 22.6412 85.5462 22.6997 86.6729 24.8611C87.8267 23.0217 90.2997 22.6089 92.014 23.9873C92.4864 24.3673 93.1746 25.335 93.1746 25.9258V32.7931H90.8461V26.6994C90.8461 26.6326 90.3018 25.7437 90.1725 25.6299C89.2089 24.7807 87.1594 25.5521 87.1594 26.5063V32.7931H84.6369V26.3126C84.6369 26.251 83.994 25.4749 83.8162 25.3914C82.592 24.8151 80.9502 25.7573 80.9502 27.0867V32.7936H78.6216V23.3145L78.6206 23.314Z" fill="white"/>
<path id="Vector_2" d="M62.9022 28.5365H69.8878C70.7444 20.7209 58.7655 21.8582 60.8563 29.5121C62.0748 33.971 69.0129 34.3322 69.8883 29.6979L67.687 29.6874C66.5748 32.068 63.152 31.0508 62.9022 28.5365ZM67.5592 26.989H63.0962C63.1754 24.2957 67.469 24.3625 67.5592 26.989Z" fill="white"/>
<path id="Vector_3" d="M61.7374 19.6387V21.9603H57.8562V32.7933H55.3337V21.9603H51.5495C50.9807 21.3987 51.3592 20.3851 51.2586 19.6387H61.7374Z" fill="white"/>
<path id="Vector_4" d="M124.223 19.252H121.895V32.7933H124.223V19.252Z" fill="white"/>
<path id="Vector_5" d="M108.31 32.7928H105.982V26.6991C105.982 25.9752 104.685 25.2257 103.961 25.2591C103.16 25.2961 101.907 26.2988 101.907 27.0864V32.7934H99.5781V23.3143L101.908 23.3133L101.909 24.4751C103.384 22.9771 105.58 22.6065 107.248 24.0831C107.591 24.3869 108.31 25.3165 108.31 25.7325V32.7934V32.7928Z" fill="white"/>
<path id="Vector_6" d="M117.236 23.3128L117.235 24.281C114.921 22.0481 110.89 23.3473 110.193 26.4487C109.127 31.2026 112.863 34.8071 117.235 32.0189L117.236 32.7945L119.565 32.7929V23.3139L117.236 23.3128ZM115.741 30.8169C111.705 31.7376 111.351 25.8923 114.273 25.2931C118.021 24.5253 118.259 30.2427 115.741 30.8169Z" fill="white"/>
<path id="Vector_7" d="M71.4404 23.3133L73.7815 23.3974L73.965 24.4731C74.2804 24.4381 74.2293 24.0368 74.5458 23.7977C75.0417 23.4229 77.0255 22.9991 77.3712 23.4945L77.2742 25.3568C76.5631 25.625 75.6147 25.2362 74.9363 25.541C74.7022 25.6464 73.9629 26.7368 73.9629 26.8918V32.7919H71.4404V23.3128V23.3133Z" fill="white"/>
<path id="Vector_8" d="M58.8105 0.98775C58.4153 0.444403 56.9538 0.671452 56.3011 0.774275L51.2598 13.8344L53.7848 13.742L55.0768 10.733L60.0118 10.8599L61.1479 13.7467L63.6776 13.8344L58.8105 0.98775ZM55.7223 8.61235C56.336 7.32053 56.7119 5.92119 57.225 4.58814C57.3183 4.34491 57.1374 4.07664 57.5639 4.16171L59.2151 8.61235H55.7223Z" fill="white"/>
<path id="Vector_9" d="M74.5427 8.51644C74.2262 4.7198 70.504 2.85279 67.3674 5.13004L67.3663 4.35443L64.8423 4.356V17.4141C65.3694 17.877 66.8168 17.8849 67.3653 17.4141V13.0615C70.9905 15.5058 74.892 12.715 74.5427 8.51644ZM69.2251 11.8924C67.067 11.6011 66.5404 8.34523 67.8126 6.92919C68.3418 6.33991 69.4258 6.1969 70.1839 6.28668C73.1047 6.63377 72.8774 12.3856 69.2251 11.8924Z" fill="white"/>
<path id="Vector_10" d="M82.6307 10.5372C81.6646 12.8886 77.8016 12.162 77.8444 9.57838H84.539C85.4483 7.88988 84.0192 5.38192 82.3523 4.60109C77.8673 2.50078 74.0466 7.05111 76.0013 11.3191C77.7542 15.146 84.0786 14.7942 84.8294 10.5466L82.6307 10.5372ZM82.3075 8.03081H77.8444C78.0936 5.20133 82.2261 5.19142 82.3075 8.03081Z" fill="white"/>
<path id="Vector_11" d="M97.6377 32.7936H95.1152V23.3146C95.9197 23.4257 97.0209 23.0238 97.6377 23.6047V32.7936Z" fill="white"/>
<path id="Vector_12" d="M97.6377 19.252H95.1152V21.9603H97.6377V19.252Z" fill="white"/>
<path id="Vector_13" d="M27.7785 0.487305L39.2276 33.954H30.204L26.2341 23.0161H18.65L14.9711 33.954H5.65652L9.34274 22.9284L0.223145 22.9274V22.5406L3.92917 11.7274L13.1974 11.6805L17.1057 0.487305H27.7785ZM22.3446 11.9007H13.2239L10.8954 19.0582H19.8221L22.3446 11.9007Z" fill="white"/>
</g>
</svg>
