<svg width="205" height="53" viewBox="0 0 205 53" fill="none" xmlns="http://www.w3.org/2000/svg">
<g id="Group 1000004046">
<path id="Vector" d="M204.819 32.9426C204.422 33.4041 203.247 33.3179 202.65 33.2722C202.359 33.2494 201.875 33.1987 201.875 32.8184V22.6307L201.425 22.7119L197.442 31.5735C196.84 32.3874 196.473 33.0238 195.377 33.1074C192.941 33.29 192.455 32.9173 191.417 30.8432L187.8 22.7626C187.704 22.5826 187.491 22.6307 187.316 22.6307V32.8995C187.316 32.9325 187.195 33.11 187.149 33.1404C186.866 33.328 184.805 33.3356 184.539 33.1429C184.443 33.0745 184.428 32.9071 184.395 32.7956C184.527 29.2104 184.152 25.4097 184.372 21.8498C184.408 21.2768 184.463 20.3412 185.003 20.0242C185.542 19.7073 187.359 19.7175 188.015 19.7682C189.405 19.8721 189.694 20.255 190.281 21.4289C191.711 24.2864 192.747 27.5167 194.146 30.4071C194.324 30.8458 194.86 30.681 195.025 30.2956C196.506 27.3797 197.493 23.8021 199.025 20.9624C199.536 20.0141 200.144 19.8468 201.184 19.7682C201.868 19.7175 204.067 19.6845 204.485 20.2271L204.824 21.3199V32.9376L204.819 32.9426Z" fill="white"/>
<path id="Vector_2" d="M111.91 26.4773C113.338 27.2202 113.323 28.9392 113.222 30.3693C113.07 32.5346 112.057 33.2293 109.991 33.3561C106.285 33.5843 102.349 33.1761 98.6173 33.3561C98.0249 33.3003 97.8958 33.171 97.8401 32.5777C97.4857 28.7643 98.1135 24.4134 97.8401 20.5442C97.8224 19.8976 98.2325 19.814 98.7818 19.7683C102.458 19.4565 106.673 19.9382 110.389 19.8621C112.11 20.103 113.004 20.9955 113.141 22.7551C113.252 24.1877 113.151 25.5772 111.91 26.4798V26.4773ZM100.87 25.3338H109.171C109.455 25.3338 109.948 25.0396 110.05 24.7379C110.166 24.3855 110.199 23.1203 109.943 22.8439C109.812 22.7019 109.27 22.4686 109.09 22.4686H100.87V25.3312V25.3338ZM100.87 30.4073H109.417C109.447 30.4073 109.814 30.1791 109.867 30.1233C110.196 29.7734 110.219 28.2496 109.984 27.8743C109.804 27.5878 109.326 27.3799 109.007 27.3799H100.787C100.764 27.4408 100.868 27.4788 100.868 27.5016V30.4073H100.87Z" fill="white"/>
<path id="Vector_3" d="M81.4867 33.0665C81.4664 33.1451 81.2259 33.3302 81.1171 33.3505C80.7804 33.4139 79.3653 33.3987 78.9906 33.353C78.7248 33.3226 78.5476 33.2415 78.4792 32.9651L78.459 20.5411C78.4691 19.9427 78.8792 19.8084 79.4007 19.7653C82.6385 19.8946 85.9928 19.603 89.2179 19.7678C93.1873 19.9732 93.7189 21.9534 93.4329 25.6197C93.281 27.5594 92.4861 28.0766 90.8431 28.6775C90.7545 28.7105 90.7039 28.637 90.7317 28.8069L93.967 32.9397C94.0075 33.1197 93.9417 33.2643 93.7645 33.315C93.4253 33.4088 91.5064 33.4037 91.0963 33.3555C90.9621 33.3403 90.8583 33.2972 90.752 33.2161L87.5825 29.0959H81.4892V33.064L81.4867 33.0665ZM81.4867 26.7252H88.8888C88.9496 26.7252 89.4938 26.6314 89.5875 26.606C90.6685 26.3195 90.6583 24.1263 90.3267 23.3251C90.2356 23.1045 89.6407 22.6354 89.4609 22.6354H81.4867V26.7252Z" fill="white"/>
<path id="Vector_4" d="M147.65 32.9014C147.6 33.2006 147.405 33.3198 147.121 33.3528C146.802 33.3908 144.868 33.3908 144.727 33.2513C144.676 33.2006 144.663 33.117 144.646 33.051L144.661 20.1757C144.764 19.8537 145.261 19.7929 145.562 19.7675C149.01 19.4734 152.954 19.9323 156.442 19.8537C159.483 20.2518 159.774 22.7772 159.597 25.3786C159.473 27.1839 158.647 28.3958 156.812 28.7305L160.042 32.7823C160.166 33.1043 160.065 33.3122 159.721 33.3578C159.227 33.4212 157.764 33.4161 157.263 33.3578C157.149 33.3452 157.042 33.335 156.946 33.2665L153.749 29.1033H147.655V32.909L147.65 32.9014ZM147.65 26.725H155.053C155.088 26.725 155.599 26.6261 155.67 26.6083C156.123 26.4815 156.485 26.0936 156.559 25.6169C156.614 25.2594 156.609 23.7812 156.526 23.4516C156.445 23.1423 155.83 22.6352 155.541 22.6352H147.648V26.725H147.65Z" fill="white"/>
<path id="Vector_5" d="M176.332 30.0542C176.656 29.7803 176.889 28.9056 176.93 28.4822C177.17 25.8807 176.735 22.9269 176.93 20.2976C176.94 20.1606 176.94 19.9147 177.077 19.8513C177.375 19.7169 179.562 19.7118 179.798 19.8893C179.881 19.9527 179.884 20.0389 179.881 20.1327C179.704 23.0638 180.102 26.2408 179.881 29.1388C179.613 32.6404 177.198 33.1525 174.198 33.2717C172.606 33.3351 170.71 33.3402 169.12 33.2717C165.272 33.1044 163.637 32.1967 163.437 28.1576C163.325 25.9492 163.26 22.6302 163.437 20.4598C163.449 20.3178 163.475 20.0339 163.563 19.9324C163.771 19.6916 166.173 19.7068 166.49 19.8691C166.599 19.9248 166.639 19.9755 166.677 20.0922L166.713 28.8118C166.864 29.7575 167.318 30.3204 168.305 30.4091C170.565 30.6145 173.13 30.2494 175.423 30.4066C175.649 30.3812 176.173 30.1911 176.337 30.0542H176.332Z" fill="white"/>
<path id="Vector_6" d="M71.0061 30.5013H62.1585C61.8623 30.6002 60.9763 32.9151 60.627 33.1407C60.3282 33.336 57.4929 33.3334 57.4372 33.1382C57.3638 32.8694 57.541 32.5956 57.6448 32.3674C59.4194 28.5286 62.0497 24.7812 63.8875 20.9399C64.3761 20.093 65.1204 19.8065 66.0672 19.7659C67.9025 19.6899 68.4012 20.022 69.3151 21.5154C71.2897 24.7381 73.3706 28.6174 75.1224 31.9871C75.2819 32.2939 75.7806 32.9785 75.4616 33.1737C75.1933 33.3385 72.8668 33.3182 72.5529 33.1686C72.1327 32.9683 71.3479 30.9729 71.0061 30.5013ZM69.71 28.2802C68.7354 26.6067 67.938 24.7203 66.9431 23.0722C66.7583 22.768 66.5836 22.3978 66.2013 22.768L63.2496 28.2827H69.71V28.2802Z" fill="white"/>
<path id="Vector_7" d="M134.403 22.6337V32.9025C134.403 32.9658 134.259 33.1307 134.18 33.1712C133.864 33.3335 131.831 33.3335 131.545 33.1433C131.499 33.1129 131.378 32.9354 131.378 32.9025V22.6337H125.284C125.239 22.6337 125.044 22.479 125.006 22.4207C124.874 22.2102 124.874 20.6332 124.915 20.301C124.955 19.9689 125.049 19.8522 125.386 19.7914L140.01 19.7686C140.395 19.8066 140.787 19.7686 140.861 20.2275C140.911 20.547 140.906 22.2153 140.777 22.4232C140.739 22.4815 140.544 22.6362 140.499 22.6362H134.405L134.403 22.6337Z" fill="white"/>
<path id="Vector_8" d="M118.272 19.7936C118.674 19.7327 120.368 19.6998 120.626 19.9305C120.692 19.9913 120.735 20.0497 120.742 20.1409L120.748 32.8235C120.758 33.1303 120.456 33.2267 120.206 33.2622C119.834 33.3129 118.143 33.3154 117.887 33.143C117.783 33.0745 117.743 32.9325 117.725 32.8134L117.717 20.2981C117.765 19.895 117.892 19.8468 118.272 19.7885V19.7936Z" fill="white"/>
<path id="Vector_9" d="M46.4049 15.4702L46.3897 37.8003C46.2707 38.9616 45.7922 39.9733 44.8733 40.701L25.1351 52.1285C22.3631 53.5509 19.7455 51.1853 17.4494 49.8795C17.6317 48.7791 18.0646 47.6204 18.6747 46.6873L18.8215 46.5833L23.2719 49.1366C24.6465 48.3709 26.0287 47.5925 27.416 46.8039L27.8362 46.6873C29.3779 45.5133 31.1145 44.5575 32.9068 43.8247C33.3347 43.2796 34.1042 42.7775 34.7878 42.6787C36.3016 41.5098 38.0104 40.5488 39.7774 39.8161L39.8533 39.5828L41.676 38.6244C42.195 38.4114 42.5696 38.1071 42.8 37.7065L42.7392 15.1583L42.4861 14.92L23.4289 3.92604C23.2896 3.87025 23.1377 3.86772 23.001 3.92604L3.97673 14.9048C3.92103 14.9453 3.67295 15.1482 3.67295 15.1685C3.60966 22.7065 3.59953 30.2446 3.62991 37.7826C3.62991 37.7953 3.71345 37.9854 3.72358 37.9956L6.62975 39.6132L6.65254 39.8161C6.66266 39.9099 6.67026 40.0037 6.66519 40.0975C6.64494 40.5057 5.93865 42.4505 5.69056 42.7928C5.6374 42.8688 5.57411 42.9373 5.50829 43.0057C3.5008 41.8267 0.640196 40.881 0.133893 38.3582C-0.0331864 30.4398 -0.0610329 22.4453 0.149083 14.5295C0.407297 13.4874 1.00726 12.6989 1.88317 12.0929L21.2366 0.936678L22.52 0.460004C22.9858 0.503107 23.5377 0.401687 23.9909 0.460004C24.3756 0.508178 25.0693 0.835258 25.4363 1.01781C31.393 4.65373 37.6129 7.87888 43.562 11.5224C45.253 12.5569 46.253 13.3049 46.4049 15.4702Z" fill="white"/>
<path id="Vector_10" d="M16.103 14.3796C13.0576 22.8963 9.90582 31.375 6.65283 39.8157C9.74634 31.3091 12.8449 22.805 15.9587 14.3086C16.1308 14.0474 16.4523 13.913 16.7536 13.8775C17.7636 13.7634 20.4926 13.7609 21.4976 13.8775C21.9027 13.9232 22.0545 14.1387 21.9938 14.5317L10.5792 45.7868L10.4526 45.6575L21.8343 14.4937C21.8596 14.0956 21.5457 13.9308 20.8976 13.9942C20.1154 13.9435 16.8244 13.8395 16.3257 14.1843C16.2422 14.2427 16.1637 14.2984 16.103 14.3796Z" fill="white"/>
<path id="Vector_11" d="M30.4388 14.3866L18.6749 46.6864L18.5483 46.5571L30.2793 14.3638C30.3224 14.0038 30.0363 13.8998 29.4211 14.0469L26.7631 13.9809C25.9175 13.8668 25.2011 13.9708 24.6163 14.2928C20.6014 25.018 16.4598 36.3745 12.6246 47.0946L12.5132 46.7903L24.3176 14.488C24.4341 14.1026 24.7935 13.9201 25.1783 13.877C26.4998 13.7274 28.2921 13.8998 29.6794 13.882C30.13 13.877 30.411 13.6437 30.4388 14.3866Z" fill="white"/>
<path id="Vector_12" d="M27.9781 30.3852L32.9069 43.8259H32.7323L27.8313 30.4562C27.7148 30.2052 27.3731 30.3193 27.2895 30.55L24.7327 37.6444L27.9553 46.5389L27.8363 46.6885L24.5605 37.6469L27.1402 30.4867C27.2566 30.1342 27.8186 29.9998 27.9781 30.3852Z" fill="white"/>
<path id="Vector_13" d="M32.0332 18.5359C34.6913 25.5922 37.2583 32.7018 39.7771 39.8164C38.2658 36.0842 36.8558 32.3113 35.547 28.5005C34.342 25.2069 33.1268 21.9183 31.9142 18.6298C31.8105 18.3509 31.3852 19.0988 31.3573 19.1597C30.3675 21.3858 29.565 23.7718 28.8967 26.0816L34.9065 42.5269L34.7875 42.679L28.7347 26.1019C28.7144 25.8813 28.8359 25.6632 28.8967 25.4553C29.4511 23.612 30.4283 20.8331 31.208 19.0938C31.375 18.7236 31.5522 18.323 32.0332 18.5359Z" fill="white"/>
<path id="Vector_14" d="M42.962 37.724C42.9341 37.9319 42.7974 38.0917 42.6329 38.2134C41.9038 38.7712 40.6127 39.3265 39.7773 39.8158L39.8533 39.5825L41.676 38.6241C42.1949 38.4111 42.5696 38.1069 42.8 37.7063L42.7392 15.158L42.4861 14.9197L23.4288 3.92577C23.2896 3.86998 23.1377 3.86745 23.001 3.92577L3.97671 14.9045C3.92102 14.9451 3.67293 15.1479 3.67293 15.1682C3.60964 22.7062 3.59952 30.2443 3.6299 37.7823C3.6299 37.795 3.71344 37.9852 3.72356 37.9953L6.62974 39.613L6.65252 39.8158L3.60458 38.0993L3.47041 37.8052C3.49573 30.2494 3.38687 22.6707 3.5261 15.1276L3.84508 14.7904L22.9327 3.77871C23.1099 3.70011 23.32 3.70264 23.4972 3.77871L42.5848 14.7929L42.924 15.1099L42.962 37.7266V37.724Z" fill="white"/>
<path id="Vector_15" d="M30.4388 14.3866L18.6749 46.6864C18.2876 47.7538 17.8876 48.8314 17.4496 49.8786C15.8345 48.9582 14.2118 48.0606 12.6246 47.0946L12.5132 46.7903L24.3176 14.488C24.4341 14.1026 24.7935 13.9201 25.1783 13.877C26.4998 13.7274 28.2921 13.8998 29.6794 13.882C30.13 13.877 30.411 13.6437 30.4388 14.3866Z" fill="white"/>
<path id="Vector_16" d="M21.9935 14.5317L10.5789 45.7868C10.6118 45.8173 10.6371 45.8426 10.6549 45.8654C10.6954 45.9263 10.6726 45.9542 10.5789 45.9517C8.86002 45.0161 7.19429 43.9968 5.5083 43.0054C5.85005 41.9278 6.26775 40.8756 6.65254 39.8157C9.74605 31.3091 12.8446 22.805 15.9584 14.3086C16.1305 14.0474 16.452 13.913 16.7533 13.8775C17.7633 13.7634 20.4923 13.7609 21.4973 13.8775C21.9024 13.9232 22.0543 14.1387 21.9935 14.5317Z" fill="white"/>
<path id="Vector_17" d="M39.7771 39.8164C38.1215 40.7824 36.4355 41.7256 34.7875 42.679L28.7347 26.1019C28.7144 25.8813 28.8359 25.6632 28.8967 25.4553C29.4511 23.612 30.4283 20.8331 31.208 19.0938C31.375 18.7236 31.5522 18.323 32.0332 18.5359C34.6913 25.5922 37.2583 32.7018 39.7771 39.8164Z" fill="white"/>
<path id="Vector_18" d="M32.9069 43.8259C31.2235 44.792 29.5198 45.725 27.8363 46.6885L24.5605 37.6469L27.1402 30.4867C27.2566 30.1342 27.8186 29.9998 27.9781 30.3852L32.9069 43.8259Z" fill="white"/>
</g>
</svg>
