<svg width="82" height="21" viewBox="0 0 82 21" fill="none" xmlns="http://www.w3.org/2000/svg">
<g id="Group 1000004051">
<path id="Vector" d="M80.2422 10.7324C80.3151 10.7605 81.3857 11.684 81.4502 11.7682L81.5623 12.3774C80.046 12.4869 78.3223 12.5711 76.7976 12.515C76.736 12.515 76.6771 12.4139 76.6183 12.2848C73.6894 12.3016 70.7493 12.2988 67.8232 12.2848C67.7476 12.4111 67.6719 12.5122 67.5906 12.515C66.8619 12.5458 63.8321 12.5543 63.3585 12.3802C63.2716 12.3493 63.2155 12.2399 63.1651 12.1107C63.1062 11.4258 63.0053 11.5633 63.1651 10.7296C63.5631 10.6005 63.9639 10.4994 64.3646 10.491C69.6142 10.3928 75.2337 10.3984 80.1862 10.5134L80.2394 10.7296L80.2422 10.7324Z" fill="white"/>
<path id="Vector_2" d="M81.2766 8.65875C81.7755 9.03211 80.5087 10.1101 80.2424 10.2139L80.1919 10.4217C75.3796 10.5227 69.805 10.5368 64.6647 10.4525C64.2219 10.4441 63.7818 10.3431 63.339 10.2139C63.2605 9.79286 62.5598 9.37739 63.339 8.65875C64.8105 8.5998 66.3183 8.56331 67.8627 8.54927C70.8224 8.57453 73.7989 8.56333 76.753 8.53806C76.8174 8.53806 76.8791 8.4398 76.9408 8.31348C78.3001 8.52121 79.7043 8.57453 81.1561 8.47628L81.2766 8.65875Z" fill="white"/>
<path id="Vector_3" d="M79.208 2.7851C80.018 2.88054 80.8701 3.45322 81.2765 4.16624L81.1588 4.30941C75.1469 4.43292 69.149 4.44414 63.1679 4.33747C62.8848 3.92482 62.9521 3.37463 63.1679 2.95636L64.3395 2.71773C69.3984 2.76545 74.32 2.72898 79.1015 2.60547L79.208 2.7851Z" fill="white"/>
<path id="Vector_4" d="M79.208 2.43991L79.1772 2.61115C73.9977 2.72063 68.8127 2.74871 63.6248 2.69819C63.5211 2.55783 63.3697 2.4736 63.1679 2.43991C62.9633 2.0441 63.0166 0.884766 63.1679 0.884766H77.916C78.1038 0.884766 79.3118 2.01043 79.3538 2.21255C79.3818 2.3473 79.2165 2.40904 79.208 2.43991Z" fill="white"/>
<path id="Vector_5" d="M80.2423 10.2144V10.7337C79.3482 10.3856 78.4514 10.7337 77.5769 10.7421C72.7758 10.7898 67.9691 10.6916 63.168 10.7337C63.1932 10.6018 63.3754 10.4109 63.3417 10.2144C68.1989 10.2509 73.0645 10.1694 77.9216 10.2059C78.6532 10.2116 79.4239 10.5316 80.2423 10.2144Z" fill="white"/>
<path id="Vector_6" d="M79.2081 2.44141C79.1829 2.53685 79.2249 2.6772 79.2081 2.78668C78.4626 2.69966 77.8768 2.96073 77.2322 2.96635C72.546 3.01126 67.8542 2.91865 63.168 2.95795C63.2324 2.83443 63.5155 2.83723 63.5155 2.69968C63.5155 2.56213 63.2324 2.56492 63.168 2.44141H79.2081Z" fill="white"/>
<path id="Vector_7" d="M81.7952 14.5314C81.7952 14.8627 82.3894 16.2579 81.5374 16.2579H77.5715C77.0053 16.2579 77.4818 14.7027 77.4846 14.5314C77.5098 14.436 77.535 14.3602 77.5631 14.3574C78.6505 14.2872 80.6265 14.2451 81.6831 14.3574C81.7252 14.363 81.7616 14.436 81.7952 14.5314Z" fill="white"/>
<path id="Vector_8" d="M77.4844 18.16C77.4872 17.8343 76.8902 16.4336 77.7422 16.4336H81.5372C81.9436 16.4336 82.2939 18 81.6241 18.16C81.5764 18.2442 81.526 18.3116 81.4699 18.3144C80.7972 18.3537 78.0562 18.4688 77.6161 18.3453C77.5601 18.3284 77.518 18.2526 77.4844 18.16Z" fill="white"/>
<path id="Vector_9" d="M67.4783 14.5314C67.4755 14.8543 67.7894 15.4129 67.6577 15.9715C67.568 16.3505 63.9328 16.3617 63.4592 16.2242C62.8762 16.0529 62.9855 15.3399 62.9939 14.8767C63.1761 14.4332 63.4479 14.3686 63.8936 14.3686C64.8914 14.203 66.5786 14.3377 67.4783 14.5314Z" fill="white"/>
<path id="Vector_10" d="M63.3388 18.1614C62.8595 17.8302 62.8315 16.7663 63.3388 16.5192C63.7031 16.3396 67.2402 16.3648 67.5513 16.5866C67.7503 16.7298 67.6522 17.6786 67.6522 17.9874L67.3691 18.3046C65.9762 18.4028 64.6337 18.3551 63.3416 18.1586L63.3388 18.1614Z" fill="white"/>
<path id="Vector_11" d="M67.6523 4.85719C68.1652 4.96105 67.9942 6.34219 67.4785 6.41237C66.5732 6.57238 64.1685 6.81659 63.28 6.5078C63.2183 6.48535 63.1875 6.37588 63.1651 6.24114C63.1791 5.79199 62.8428 5.70496 63.1651 4.86C63.2324 4.75613 63.3024 4.67474 63.3781 4.66632C64.7038 4.54842 66.4583 4.49507 67.6495 4.86L67.6523 4.85719Z" fill="white"/>
<path id="Vector_12" d="M81.7953 4.85753C82.0363 5.18316 81.9579 5.68285 81.9691 6.06744C81.7869 6.51097 81.515 6.57552 81.0694 6.57552C80.0716 6.74114 78.3844 6.60641 77.4847 6.41271C77.0531 6.42956 76.4841 5.75866 76.7952 5.37688C76.6971 5.17757 76.6747 4.98386 76.7223 4.79016C78.4208 4.70314 80.1109 4.72559 81.7953 4.85753Z" fill="white"/>
<path id="Vector_13" d="M81.7951 12.6333C82.0361 13.5652 81.7755 13.6523 81.7951 14.1884C81.7755 14.2811 81.753 14.3541 81.7166 14.3625C80.9795 14.5085 78.4654 14.4074 77.5965 14.3625C77.5573 14.3625 77.5181 14.2867 77.4844 14.1884C77.434 13.7954 77.1201 13.453 76.9659 13.1526L76.8174 12.4789C76.9351 12.2739 81.0411 12.3694 81.5344 12.4143C81.6269 12.4227 81.711 12.5154 81.7951 12.6333Z" fill="white"/>
<path id="Vector_14" d="M81.7953 6.75857C81.7841 7.14877 82.2353 7.65968 81.7953 8.31375C80.1697 8.5271 78.5273 8.58041 76.8653 8.47094L76.9634 7.79443C76.6383 7.37897 77.0082 6.83156 77.4819 6.75857C77.5071 6.66032 77.5323 6.58452 77.5604 6.58172C78.048 6.55645 81.5347 6.38242 81.6804 6.5284C81.7365 6.58735 81.7701 6.66874 81.7925 6.75857H81.7953Z" fill="white"/>
<path id="Vector_15" d="M67.4785 6.75764C67.997 6.75483 68.1428 7.98438 67.6523 8.13878C67.6859 8.47002 67.5262 8.56266 67.3076 8.31282C65.9566 8.48406 64.5104 8.51213 63.1679 8.31282C62.7475 7.70366 63.1763 7.22924 63.1679 6.75764C63.1791 6.66781 63.1987 6.58641 63.2464 6.52746C63.3781 6.37026 66.9124 6.55552 67.3664 6.58078C67.4085 6.58078 67.4449 6.65939 67.4785 6.75764Z" fill="white"/>
<path id="Vector_16" d="M67.6525 12.8042C67.6189 13.2253 67.4871 13.9018 67.4787 14.1854C67.4535 14.2836 67.4283 14.3594 67.4003 14.3622C66.9126 14.3875 63.426 14.5615 63.2802 14.4155C63.2242 14.3566 63.1905 14.2752 63.1681 14.1854C63.1793 13.6267 63.1121 13.332 63.1681 12.6302C63.227 12.5095 63.2886 12.414 63.3531 12.4084C64.0314 12.3775 67.1116 12.3691 67.5292 12.5348C67.5965 12.56 67.6273 12.6695 67.6525 12.8042Z" fill="white"/>
<path id="Vector_17" d="M81.7952 18.5059C82.9219 20.9145 78.715 19.9601 77.4117 19.9067C77.0249 19.6288 77.4846 18.6519 77.4846 18.5059C77.5098 18.4133 77.535 18.3403 77.563 18.3403C78.8579 18.2561 80.6124 18.2083 81.7952 18.5059Z" fill="white"/>
<path id="Vector_18" d="M67.4786 18.5064C67.4758 18.6187 67.9551 20.0616 67.3917 20.0616H63.4258C62.9073 20.0616 62.9662 18.9387 63.168 18.5064C64.1489 18.2987 66.3211 18.1583 67.3665 18.3015C67.4113 18.3071 67.4478 18.3969 67.4786 18.5064Z" fill="white"/>
<path id="Vector_19" d="M76.9658 7.79292C76.9434 8.39646 76.8593 8.27013 77.3891 8.31224C78.8129 8.42453 80.36 8.22802 81.795 8.31224C81.6997 8.4526 81.411 8.52839 81.2765 8.65752H63.3389V8.48347C64.6449 8.47224 65.9679 8.4133 67.3048 8.30943C67.4225 8.24767 67.5262 8.14662 67.6495 8.13539C67.9438 8.30943 68.0083 8.29258 67.8429 8.09046L76.3801 8.14382C76.5258 7.89959 76.722 7.78169 76.963 7.7873L76.9658 7.79292Z" fill="white"/>
<path id="Vector_20" d="M81.2764 4.34104C81.31 4.38595 81.3381 4.43367 81.3353 4.47858C81.3241 4.71719 77.3301 4.59368 76.6182 4.51508C73.723 5.03721 70.7156 5.05405 67.8232 4.51508C67.3019 4.6807 66.6937 4.71439 65.9958 4.61894C65.0233 4.71439 64.1376 4.6807 63.3388 4.51508C63.2435 4.49543 63.2155 4.41121 63.165 4.34104L81.2764 4.16699C81.2988 4.20629 81.2568 4.2877 81.2764 4.34104Z" fill="white"/>
<path id="Vector_21" d="M81.795 12.6332C80.36 12.7146 78.81 12.5209 77.389 12.6332C76.8593 12.6753 76.9462 12.549 76.9658 13.1525C76.8201 12.8662 76.708 12.5967 76.6211 12.2879C77.9244 12.2795 79.62 12.4339 80.856 12.2963C81.2456 12.2542 81.453 12.2374 81.4502 11.7686C81.6296 12.01 81.7193 12.344 81.795 12.6332Z" fill="white"/>
<path id="Vector_22" d="M67.8232 12.2854C67.7335 12.4454 67.6663 12.6194 67.6494 12.8047C66.2312 12.4201 64.6309 12.7289 63.165 12.6306C63.1875 12.3415 63.1903 12.4089 63.165 12.1113C64.6869 12.4005 66.2733 12.2769 67.8232 12.2854Z" fill="white"/>
<path id="Vector_23" d="M81.795 6.75696H77.4844C77.0331 6.67836 77.0808 6.60538 77.4844 6.41168C78.9082 6.24325 80.7272 6.79627 81.9688 6.06641C81.9744 6.25449 81.8034 6.54081 81.795 6.75696Z" fill="white"/>
<path id="Vector_24" d="M67.4785 14.1865C67.4785 14.3016 67.4785 14.4167 67.4785 14.5318C66.0547 14.7002 64.2358 14.1472 62.9941 14.8771C62.9969 14.6722 63.1623 14.3999 63.1679 14.1865H67.4785Z" fill="white"/>
<path id="Vector_25" d="M67.6524 17.9863C67.6524 18.0621 67.487 18.2979 67.4786 18.5056H63.168C63.2016 18.4355 63.3221 18.166 63.3417 18.1604C64.1994 17.8432 66.6097 18.5113 67.6524 17.9863Z" fill="white"/>
<path id="Vector_26" d="M67.4786 6.41232C67.8066 6.51058 67.8066 6.65935 67.4786 6.7576H63.168C63.168 6.58636 63.1624 6.41233 63.168 6.23828C64.5274 6.62006 66.0717 6.31407 67.4786 6.41232Z" fill="white"/>
<path id="Vector_27" d="M81.795 14.1865C81.8006 14.3016 81.795 14.4167 81.795 14.5318H77.4844C77.4844 14.4195 77.4984 14.2932 77.4844 14.1865H81.795Z" fill="white"/>
<path id="Vector_28" d="M81.6212 18.1601C81.6381 18.1658 81.7614 18.4352 81.795 18.5054H77.4844C77.4844 18.3903 77.4844 18.2752 77.4844 18.1601C78.4289 18.3595 80.8953 17.8907 81.624 18.1601H81.6212Z" fill="white"/>
<path id="Vector_29" d="M81.45 4.68588C81.6462 4.71115 81.6687 4.68588 81.7948 4.85992C80.3037 4.94695 78.6949 4.74202 77.2151 4.85992C76.6854 4.90203 76.7723 4.77574 76.7919 5.37928C76.2089 5.55613 76.0099 4.82344 76.6181 4.68869C78.1624 4.62693 79.7151 4.56798 81.2735 4.51465L81.4472 4.68869L81.45 4.68588Z" fill="white"/>
<path id="Vector_30" d="M67.8232 4.51294C68.1736 4.81331 68.1007 4.93682 67.6494 4.85822C66.2369 4.58031 64.5804 4.58031 63.165 4.85822C63.2099 4.74031 63.2884 4.63084 63.3388 4.51294C64.2777 4.71786 66.6825 4.50452 67.8232 4.51294Z" fill="white"/>
<path id="Vector_31" d="M81.4504 4.68598C79.9789 4.49228 78.1375 4.82634 76.6213 4.68598C76.4699 4.63825 76.4727 4.57931 76.6213 4.51193C77.8545 4.51193 79.0961 4.53159 80.3321 4.51474C80.6236 4.51194 81.1 4.62422 81.2794 4.33789C81.3159 4.43053 81.4588 4.53719 81.4532 4.68317L81.4504 4.68598Z" fill="white"/>
<path id="Vector_32" d="M67.3076 8.31336C67.1591 8.39196 67.1591 8.46776 66.8956 8.49583C66.307 8.56039 63.8322 8.59407 63.3417 8.48459C63.2464 8.46494 63.2184 8.38073 63.168 8.31055H67.3076V8.31336Z" fill="white"/>
<path id="Vector_33" d="M41.7801 16.6047L58.9862 16.5064C59.3366 16.4867 59.3702 16.6608 59.202 16.9499C58.8265 17.5787 58.2407 17.7921 57.6493 18.1598C57.4615 18.5444 57.3102 18.6034 57.1925 18.3395C52.5679 18.1205 48.0191 18.1626 43.5431 18.4742L43.3357 18.1598C42.9713 18.0447 40.9982 16.8798 41.7829 16.6047H41.7801Z" fill="white"/>
<path id="Vector_34" d="M43.6778 19.0227L43.5293 18.349C48.1286 18.1861 52.8064 18.1889 57.4029 18.3461C57.4337 18.5791 57.4029 18.8037 57.3048 19.0227C57.075 19.3287 56.2201 19.9883 55.8278 20.0501C52.5654 19.8283 48.8573 20.3785 45.6538 20.0697C44.9615 20.0024 44.0955 19.5701 43.6778 19.0255V19.0227Z" fill="white"/>
<path id="Vector_35" d="M45.9198 14.5308C46.2813 14.615 47.4725 15.5862 47.2987 16.0859C45.8161 16.1729 44.3194 16.2291 42.8143 16.26C41.5615 16.2291 41.0066 16.6614 41.0878 15.1287C41.1019 14.8873 41.2644 14.6066 41.2616 14.5308C41.3065 14.4381 41.3513 14.3651 41.4018 14.3623C41.9539 14.3287 45.561 14.1209 45.7264 14.2585L45.917 14.5308H45.9198Z" fill="white"/>
<path id="Vector_36" d="M55.2332 14.5312L55.5219 14.2645C56.6654 14.2196 58.3807 14.287 59.5438 14.3599C59.6055 14.3628 59.6616 14.4357 59.7176 14.5312C59.7148 14.8989 60.2081 15.5923 59.7176 16.0863C57.7389 16.2884 55.6536 16.2772 53.6805 16.0863C53.5207 15.6344 54.824 14.5985 55.2332 14.5312Z" fill="white"/>
<path id="Vector_37" d="M59.8913 6.24147C59.8213 6.42674 59.698 6.58956 59.513 6.59517C58.2798 6.62324 57.0185 6.62324 55.7853 6.59517C55.6003 6.59237 55.477 6.42674 55.4069 6.24147C55.4013 6.03654 55.023 5.13545 55.4322 4.88562C55.5022 4.84351 56.8391 4.68066 57.0353 4.68066C57.7949 4.68347 58.8908 4.97543 59.7288 4.93613C60.0034 5.12982 59.8773 5.9018 59.8913 6.24428V6.24147Z" fill="white"/>
<path id="Vector_38" d="M45.5751 6.75752C45.5751 7.22912 45.5695 7.84671 45.5751 8.3127C45.5554 8.43902 45.5302 8.54006 45.4966 8.54287C44.7202 8.62989 42.3995 8.52323 41.5111 8.47831C41.4074 8.4727 41.3261 8.38849 41.2644 8.3127C40.8889 7.45371 41.2784 7.24035 41.2644 6.75752L41.3429 6.52734C42.7191 6.6284 44.0868 6.62559 45.4629 6.52734L45.5751 6.75752Z" fill="white"/>
<path id="Vector_39" d="M41.4353 2.43991C40.8271 2.04972 41.0737 0.884766 41.3484 0.884766H45.5749C45.659 0.884766 46.0178 2.04691 45.4011 2.43991C44.0839 2.59431 42.7526 2.5915 41.4353 2.43991Z" fill="white"/>
<path id="Vector_40" d="M45.5748 12.6336C45.8018 13.1249 45.7121 13.3691 45.7486 13.8435L45.7289 14.3151C45.6028 14.5032 41.7434 14.3909 41.2642 14.1888C41.2698 13.7453 41.2726 13.0743 41.2642 12.6336C41.281 12.5241 41.3034 12.4399 41.3426 12.4287C42.3348 12.1901 44.5826 12.468 45.5748 12.6336Z" fill="white"/>
<path id="Vector_41" d="M59.7178 10.7329C59.7851 10.7553 59.8579 10.7216 59.8748 10.8283C60.0906 11.2859 59.715 11.9933 59.7178 12.288C59.7122 12.3835 59.6982 12.4593 59.6673 12.4677C59.1909 12.6025 56.433 12.4845 55.7323 12.4424C55.679 12.4396 55.6286 12.3723 55.5809 12.288C55.0989 12.0466 55.1353 10.8732 55.5809 10.7329C56.077 10.6543 56.5255 10.5616 56.9235 10.4521C57.428 10.6543 59.1376 10.8171 59.5076 10.5167C59.6337 10.4156 59.7234 10.5251 59.7206 10.7329H59.7178Z" fill="white"/>
<path id="Vector_42" d="M59.7179 8.65909C59.7067 9.01279 60.2112 9.72021 59.7179 10.2143C58.21 10.3883 56.7722 10.3883 55.4073 10.2143C54.8579 9.58827 55.4886 9.02402 55.5811 8.65909C55.6063 8.56364 55.6315 8.48785 55.6623 8.48504C56.5368 8.43732 58.835 8.3503 59.6058 8.48504C59.6535 8.49347 59.6899 8.56645 59.7207 8.65909H59.7179Z" fill="white"/>
<path id="Vector_43" d="M45.746 9.0044C45.746 9.27388 45.8133 10.2143 45.4882 10.2143H41.3485C41.057 10.2143 40.8412 8.80509 41.4354 8.65912C41.441 8.58613 41.455 8.52156 41.4943 8.47946C41.6288 8.33068 45.0706 8.49913 45.4882 8.56931L45.746 9.00721V9.0044Z" fill="white"/>
<path id="Vector_44" d="M59.7176 12.6328C59.7092 13.0623 59.712 13.7782 59.7176 14.188C59.6615 14.2863 59.6027 14.362 59.541 14.3648C58.6385 14.4069 56.2758 14.4856 55.5219 14.2806C55.463 14.2638 55.4322 14.1543 55.407 14.0167C55.3593 13.4946 55.1099 13.3515 55.407 12.6356C56.5645 12.3268 58.3218 12.3886 59.6055 12.4728C59.6475 12.4728 59.684 12.5458 59.7176 12.6356V12.6328Z" fill="white"/>
<path id="Vector_45" d="M45.4013 4.8565C46.116 5.02774 45.5695 5.98219 45.5751 6.23764C45.5302 6.38081 45.4826 6.49308 45.4153 6.50431C44.1961 6.71485 42.1137 6.75978 41.0907 6.23764C41.0851 5.88955 40.9702 4.95195 41.2645 4.8565C42.6378 4.67404 44.0308 4.67684 45.4041 4.8565H45.4013Z" fill="white"/>
<path id="Vector_46" d="M59.718 2.95696C59.9029 3.16469 60.0263 4.18931 59.7908 4.35774C59.4881 4.57389 55.881 4.60758 55.5783 4.42792C55.1439 4.17246 55.1887 3.37523 55.4073 2.95696C55.7717 2.6987 56.251 2.61167 56.8451 2.69869C57.8429 2.65939 58.8043 2.65379 59.718 2.95696Z" fill="white"/>
<path id="Vector_47" d="M59.8916 6.93238C59.8916 7.39275 59.9028 7.85595 59.8916 8.31352C58.6752 8.57178 57.0244 8.5409 55.6931 8.48756C55.6539 8.48756 55.6146 8.41177 55.581 8.31352C55.539 7.89244 55.4325 7.4882 55.4072 6.93238C55.4773 6.7471 55.6006 6.58429 55.7856 6.57867C57.0188 6.5506 58.28 6.5506 59.5133 6.57867C59.6982 6.58148 59.8216 6.7471 59.8916 6.93238Z" fill="white"/>
<path id="Vector_48" d="M59.718 2.44099C59.3789 2.7189 55.8362 2.81997 55.6933 2.67119C55.6372 2.61224 55.6036 2.53082 55.5784 2.44099C55.4018 1.83183 55.0318 0.989697 56.0016 0.87741C56.4893 0.821267 59.278 0.801615 59.6087 0.911095C60.0291 1.04865 60.0123 2.15466 59.718 2.44099Z" fill="white"/>
<path id="Vector_49" d="M45.4011 12.2848C45.3899 12.4476 45.3339 12.4785 45.2077 12.4729C43.9185 12.4139 42.6573 12.3662 41.3596 12.4364L41.0905 12.1108C41.0961 11.7206 40.9392 10.8952 41.3736 10.7521C41.6847 10.651 45.4124 10.6819 45.5861 10.8026C45.9505 11.0553 45.7459 11.9816 45.4039 12.282L45.4011 12.2848Z" fill="white"/>
<path id="Vector_50" d="M45.5747 2.95751C45.8186 3.06699 45.8045 4.07755 45.5747 4.33862C44.1649 4.5267 42.6739 4.52389 41.2641 4.33862C41.0343 4.07474 41.0202 3.06699 41.2641 2.95751C42.6627 2.73855 44.1593 2.77224 45.5747 2.95751Z" fill="white"/>
<path id="Vector_51" d="M57.6495 18.1611C57.5149 18.4699 57.5205 18.7394 57.3047 19.0258C57.3271 18.4222 57.4112 18.5485 56.8815 18.5064C53.4397 18.2341 47.5427 18.2341 44.101 18.5064C43.5712 18.5485 43.6581 18.4222 43.6777 19.0258C43.4591 18.7394 43.4675 18.4699 43.333 18.1611H57.6495Z" fill="white"/>
<path id="Vector_52" d="M41.7801 16.6057L59.2861 16.4316C59.5776 16.5973 59.2805 16.8162 59.1992 16.951C59.2945 16.4288 58.9358 16.6169 58.6023 16.6057C53.008 16.4176 47.3744 16.746 41.7773 16.6057H41.7801Z" fill="white"/>
<path id="Vector_53" d="M59.7179 2.44031C59.4432 2.70699 59.2218 2.51331 59.0256 2.69858C59.0256 2.88105 59.4516 2.6621 59.7179 2.95685H55.4072C55.5922 2.60596 55.7716 3.09999 55.581 2.4375H59.7207L59.7179 2.44031Z" fill="white"/>
<path id="Vector_54" d="M45.401 12.2849C45.4514 12.4028 45.5187 12.5151 45.5747 12.6301H41.2641C41.2613 12.4252 41.0903 12.1838 41.0903 12.1108C41.8359 12.5319 42.6094 12.094 43.2456 12.1108C43.8819 12.1277 44.6751 12.4393 45.401 12.2849Z" fill="white"/>
<path id="Vector_55" d="M59.8915 6.24219C59.8999 6.47238 59.8915 6.70255 59.8915 6.93274C58.5153 6.64641 56.7832 6.64641 55.4071 6.93274C55.3986 6.70255 55.4127 6.47238 55.4071 6.24219C56.7832 6.52852 58.5153 6.52852 59.8915 6.24219Z" fill="white"/>
<path id="Vector_56" d="M45.9199 14.5304C44.7371 14.2553 42.5678 14.7325 41.2617 14.5304C41.2617 14.4153 41.2617 14.3002 41.2617 14.1852C42.523 14.0981 43.9159 14.3002 45.1575 14.1964C45.5051 14.1683 45.5808 14.1711 45.7461 13.8398C45.7657 14.0869 45.7685 14.3171 45.9199 14.5304Z" fill="white"/>
<path id="Vector_57" d="M45.5747 6.24219C45.5775 6.41342 45.5747 6.58746 45.5747 6.76151H41.2641C41.2585 6.55378 41.0931 6.3264 41.0903 6.24219C42.4889 6.50325 44.1846 6.54817 45.5747 6.24219Z" fill="white"/>
<path id="Vector_58" d="M45.5751 8.31348C45.5751 8.52963 45.7489 8.80753 45.7489 9.00403C45.5107 8.79911 45.3061 8.6812 44.981 8.65032C44.3812 8.59418 41.9035 8.54366 41.4355 8.65875C41.3822 8.54085 41.315 8.43138 41.2617 8.31348H45.5723H45.5751Z" fill="white"/>
<path id="Vector_59" d="M59.7178 14.1848C59.7178 14.2999 59.7178 14.415 59.7178 14.5301C58.3445 14.6845 56.5451 14.3195 55.2334 14.5301C55.3147 14.3841 55.4212 14.1764 55.4072 14.0107C56.7665 14.3925 58.3108 14.0865 59.7178 14.1848Z" fill="white"/>
<path id="Vector_60" d="M59.7179 10.2139C59.3087 10.6237 56.9571 10.1998 56.9571 10.4721L59.7179 10.7304C59.5217 10.663 55.7772 10.6686 55.5782 10.7304C55.7436 10.3795 56.3882 10.649 56.6124 10.5563V10.3879C56.2172 10.3402 55.7015 10.5507 55.4072 10.2139H59.7179Z" fill="white"/>
<path id="Vector_61" d="M59.7179 12.2851C59.7179 12.4002 59.7179 12.5153 59.7179 12.6304H55.4072C55.4353 12.563 55.5614 12.2908 55.581 12.2851C56.3041 12.0157 58.7761 12.4845 59.7207 12.2851H59.7179Z" fill="white"/>
<path id="Vector_62" d="M59.8916 8.31348C59.8916 8.39488 59.7206 8.56612 59.7178 8.65875H55.5781C55.5977 8.58015 55.5865 8.40892 55.5781 8.31348H59.8888H59.8916Z" fill="white"/>
<path id="Vector_63" d="M59.7178 16.0859C59.4908 16.3161 59.4095 16.246 59.1292 16.2684C57.8035 16.3723 55.6118 16.3638 54.2805 16.2628C54.0618 16.2459 53.7788 16.3638 53.6807 16.0859H59.7178Z" fill="white"/>
<path id="Vector_64" d="M47.2989 16.0869C47.2008 16.3676 46.9205 16.2469 46.6991 16.2638C45.5135 16.3536 44.0224 16.2891 42.8145 16.2582C44.2186 15.8624 45.8414 16.1908 47.2989 16.0841V16.0869Z" fill="white"/>
<path id="Vector_65" d="M45.5751 4.34082C45.4126 4.52609 45.3958 4.49803 45.1603 4.52329C44.3223 4.60751 42.5146 4.60751 41.6765 4.52329C41.4411 4.50084 41.4243 4.52329 41.2617 4.34082H45.5723H45.5751Z" fill="white"/>
<path id="Vector_66" d="M45.5748 2.95648C45.3786 2.86665 41.4604 2.86665 41.2642 2.95648C41.4435 2.67015 41.92 2.78243 42.2115 2.77963C43.2821 2.7684 44.5742 2.64769 45.5776 2.95648H45.5748Z" fill="white"/>
<path id="Vector_67" d="M45.4014 4.85748C45.1351 4.79291 41.4579 4.79291 41.2617 4.85748C42.4977 4.56834 44.1654 4.56834 45.4014 4.85748Z" fill="white"/>
<path id="Vector_68" d="M45.4014 2.44141C44.9446 2.73054 41.8756 2.72493 41.4355 2.44141H45.4014Z" fill="white"/>
<path id="Vector_69" d="M39.0195 16.6059C39.1989 17.0972 38.8458 17.8298 38.8458 18.1611L38.8149 18.3351H24.7395L24.5321 18.1611C23.7361 18.1919 23.2429 17.5126 22.8084 16.9512C22.6627 16.6536 22.6066 16.401 22.9766 16.4094C28.3018 16.4403 33.6495 16.5048 39.0223 16.6059H39.0195Z" fill="white"/>
<path id="Vector_70" d="M38.8486 18.5049C38.8486 18.7351 39.3306 19.5633 38.8598 19.9843L25.9195 19.9647C25.7485 19.7542 24.591 19.072 24.5433 19.0018C24.406 18.7941 24.6947 18.5695 24.7031 18.5022C24.6779 18.3337 24.7087 18.3281 24.8236 18.3281H38.7281L38.8486 18.5022V18.5049Z" fill="white"/>
<path id="Vector_71" d="M26.9479 14.5312C27.4749 14.6294 28.1615 15.4884 28.5007 15.9123L28.5343 16.2295C26.6789 16.4316 24.7422 16.513 22.7242 16.4737L22.4635 16.2576C22.4187 16.1649 22.1496 16.1762 22.1076 15.8281C22.0403 15.2779 22.2926 14.8147 22.2926 14.5312C22.343 14.4385 22.3963 14.3656 22.4523 14.3627C23.6883 14.287 25.4821 14.214 26.6957 14.2589L26.9479 14.5312Z" fill="white"/>
<path id="Vector_72" d="M26.6034 4.85793C27.0938 5.32673 26.6034 6.0538 26.6034 6.41312C26.5781 6.50856 26.5529 6.58435 26.5249 6.58716C25.2244 6.6405 23.7081 6.6405 22.4049 6.58716C22.3656 6.58716 22.3264 6.51137 22.2927 6.41312C22.2927 6.21942 21.8527 5.05724 22.2927 4.85793C22.3348 4.47335 23.0803 4.58286 23.3354 4.77936L25.7037 4.75126C25.8803 4.69512 26.1802 4.73164 26.6034 4.85516V4.85793Z" fill="white"/>
<path id="Vector_73" d="M26.6034 2.43991C25.3618 2.71782 24.0445 2.80205 22.6515 2.69819C22.6067 2.54941 22.4889 2.46518 22.2927 2.43991C22.1162 2.09183 21.9648 0.884766 22.3796 0.884766H26.5193C26.8164 0.884766 26.9425 2.11148 26.6062 2.43991H26.6034Z" fill="white"/>
<path id="Vector_74" d="M26.6032 12.6336C26.7153 13.1978 26.7293 13.4589 26.7769 14.0147C26.7461 14.1522 26.7097 14.2617 26.6536 14.2758C25.7455 14.4863 23.4949 14.4133 22.4775 14.3656C22.4131 14.3628 22.3542 14.287 22.2953 14.1888C22.3094 13.7256 21.903 13.4645 22.2953 12.6336C23.4136 12.2406 25.2635 12.2742 26.4939 12.4034C26.5387 12.409 26.5751 12.5073 26.606 12.6336H26.6032Z" fill="white"/>
<path id="Vector_75" d="M26.6031 6.758C26.5975 7.20715 26.5947 7.86685 26.6031 8.31319C26.5807 8.44232 26.5555 8.54055 26.5246 8.54336C25.6053 8.60512 23.3127 8.61073 22.4046 8.54336C22.3626 8.54055 22.3261 8.43951 22.2925 8.31319C22.3009 7.86685 22.2953 7.20996 22.2925 6.758C22.3177 6.66256 22.3429 6.58677 22.371 6.58396C23.4584 6.51378 25.4344 6.47167 26.491 6.58396C26.533 6.58958 26.5695 6.66256 26.6031 6.758Z" fill="white"/>
<path id="Vector_76" d="M26.7741 8.83193C26.7685 9.22213 26.9254 10.0474 26.491 10.1906C26.1715 10.2973 23.195 10.2832 22.7129 10.2243C21.8552 10.1204 22.1299 9.5618 22.1187 8.83474C22.1776 8.69719 22.2392 8.58773 22.3177 8.57369C22.9455 8.46983 26.2528 8.35754 26.5751 8.57369C26.662 8.63265 26.7208 8.72807 26.7741 8.83193Z" fill="white"/>
<path id="Vector_77" d="M22.4638 12.2857C21.8892 12.047 22.1723 11.2526 22.1191 10.7305H26.7772C26.71 11.1263 26.8725 11.7747 26.7772 12.1116C26.6231 12.1256 26.5502 12.2211 26.5474 12.3839C25.146 12.4064 23.7839 12.3727 22.4638 12.2857Z" fill="white"/>
<path id="Vector_78" d="M26.603 2.95666C26.8272 3.17562 26.8664 4.06547 26.7768 4.33777C26.2695 4.53427 25.8827 4.56517 25.6136 4.43043C24.5037 4.46411 23.3966 4.43321 22.2924 4.33777C21.9532 3.9981 22.0541 3.3244 22.2924 2.95666L22.5923 2.864C23.6321 2.49626 25.5099 2.67033 26.603 2.95666Z" fill="white"/>
<path id="Vector_79" d="M38.8487 18.1611C38.8487 18.2762 38.8487 18.3913 38.8487 18.5064H24.706C24.7144 18.4418 24.5631 18.2594 24.5322 18.1611H38.8487Z" fill="white"/>
<path id="Vector_80" d="M28.501 15.915C28.6075 16.0498 28.5907 16.3923 28.7897 16.44C31.8839 16.4596 34.981 16.3923 38.0752 16.4316C38.3667 16.4344 38.8431 16.3221 39.0225 16.6084C33.8262 16.7376 28.5991 16.4344 23.4056 16.6084C23.0721 16.6197 22.7133 16.4316 22.8086 16.9537C22.618 16.7095 22.5872 16.5073 22.4639 16.2631C24.2268 16.1452 26.1719 16.4175 27.9124 16.2744C28.26 16.2463 28.3356 16.2491 28.501 15.9178V15.915Z" fill="white"/>
<path id="Vector_81" d="M26.7744 12.1151C26.7044 12.3678 26.4633 11.9411 26.6007 12.6345H22.29C22.3293 12.5502 22.4358 12.3032 22.4638 12.2892C23.2794 11.84 25.7542 12.2723 26.7744 12.1151Z" fill="white"/>
<path id="Vector_82" d="M26.6031 2.44141C26.3284 2.70809 26.107 2.5144 25.9108 2.69968C25.9108 2.86811 26.3256 2.68846 26.6031 2.95795H22.2925C22.3794 2.82321 22.6456 2.82881 22.64 2.69968C22.626 2.55371 22.3569 2.56492 22.2925 2.44141H26.6031Z" fill="white"/>
<path id="Vector_83" d="M26.948 14.5301C25.6447 14.2886 23.6772 14.7069 22.2898 14.5301C22.2898 14.415 22.287 14.2999 22.2898 14.1848C23.7557 14.0865 25.356 14.3953 26.7742 14.0107C26.7882 14.196 26.8555 14.3701 26.948 14.5301Z" fill="white"/>
<path id="Vector_84" d="M26.6031 8.31348C26.6059 8.5184 26.7768 8.75981 26.7768 8.8328C25.3082 8.55489 23.5901 8.55208 22.1187 8.8328C22.1187 8.75981 22.2868 8.52121 22.2924 8.31348H26.6031Z" fill="white"/>
<path id="Vector_85" d="M26.7741 4.34082C26.6704 4.65242 26.1967 4.48118 25.9136 4.51486V4.68329C26.1995 4.67206 26.3733 4.63837 26.6031 4.85733C25.7427 5.05102 22.8698 4.59626 22.2925 4.85733L25.7427 4.59909C25.7427 4.31838 22.7101 4.7619 22.2925 4.34082H26.7769H26.7741Z" fill="white"/>
<path id="Vector_86" d="M26.6031 6.41309C26.6031 6.52818 26.6031 6.64327 26.6031 6.75836H22.2925C22.2925 6.64327 22.2925 6.52818 22.2925 6.41309H26.6031Z" fill="white"/>
<path id="Vector_87" d="M0.557231 18.16C-0.0145299 17.9073 0.187267 16.4336 0.644116 16.4336H18.4948C18.6013 17.3038 17.5727 18.1544 16.7711 18.16C16.7992 18.4744 16.6899 18.5277 16.446 18.3256L0.677747 18.3368L0.557231 18.16Z" fill="white"/>
<path id="Vector_88" d="M17.6345 10.732C17.8335 10.8106 18.5538 11.5545 18.6687 11.7678C18.7976 12.071 18.778 12.2984 18.6098 12.4556C18.4193 12.6016 14.529 12.4893 14.0105 12.2872C11.0228 12.304 8.02946 12.2647 5.04173 12.2872C3.76087 12.5117 2.06521 12.5033 0.689061 12.4472C0.644217 12.4472 0.599372 12.377 0.557331 12.2872C-0.0676823 11.7145 0.338714 11.2569 0.383558 10.732C0.829195 10.6028 1.27483 10.5018 1.72327 10.4934C6.66452 10.4064 11.9645 10.3249 16.7012 10.4541C17.3066 10.2969 17.6177 10.3895 17.6317 10.732H17.6345Z" fill="white"/>
<path id="Vector_89" d="M18.6689 8.65806C18.6241 8.74227 18.6801 8.99212 18.5063 9.26442C18.3802 9.46373 17.8561 9.9213 17.6347 10.0392L17.4609 10.4378C11.9227 10.5894 6.23029 10.5136 0.38656 10.2104C0.322097 9.47495 0.38656 9.23633 0.38656 8.65525L0.417391 8.48121C6.46292 8.60472 12.5085 8.60191 18.5512 8.47559L18.6689 8.65525V8.65806Z" fill="white"/>
<path id="Vector_90" d="M16.7715 2.78591C17.3265 2.87854 18.4588 3.77123 18.4952 4.34109L18.285 4.60498C16.8107 4.66674 15.3813 4.60779 13.9912 4.42813C9.49557 4.35233 5.02799 4.46743 0.596842 4.60498L0.386635 4.34109C0.221273 3.10313 0.476322 3.43717 0.560404 2.78591C5.16532 2.69608 9.77304 2.66803 14.3892 2.70171C15.2692 2.5417 16.0624 2.56975 16.7743 2.78591H16.7715Z" fill="white"/>
<path id="Vector_91" d="M16.5972 2.43991L16.5663 2.59994C11.2888 2.82171 5.87944 2.71782 0.593456 2.61396L0.38325 2.43991C0.299168 1.87287 0.0861588 1.50796 0.38325 0.884766H14.9575C15.661 0.884766 16.3757 1.81111 16.5972 2.43991Z" fill="white"/>
<path id="Vector_92" d="M0.386315 18.5069C5.75358 18.2655 11.4179 18.184 16.6787 18.4367L16.6002 18.8522C16.2275 19.3322 15.2605 20.0115 14.6215 20.0649C10.3165 19.787 5.58261 20.4214 1.33084 20.0677C0.299428 19.9807 -0.0929568 19.5287 0.389116 18.5069H0.386315Z" fill="white"/>
<path id="Vector_93" d="M17.6344 10.7324C16.7627 10.3928 15.9247 10.7324 15.1399 10.7409C10.2239 10.7858 5.30225 10.6931 0.38623 10.7324C0.414258 10.4377 0.411455 10.5079 0.38623 10.2131C5.35831 10.2299 10.336 10.1934 15.3137 10.2047C16.2162 10.2047 16.6085 10.5752 17.6344 10.0391V10.7296V10.7324Z" fill="white"/>
<path id="Vector_94" d="M19.0134 14.5314C19.0134 14.8627 19.6075 16.2579 18.7555 16.2579H13.8395C13.7974 15.5448 14.599 15.3006 14.7027 14.5314C14.728 14.436 14.7532 14.3602 14.7812 14.3574C15.8687 14.2872 17.8446 14.2451 18.9013 14.3574C18.9433 14.363 18.9797 14.436 19.0134 14.5314Z" fill="white"/>
<path id="Vector_95" d="M4.6969 14.5306C5.2014 14.7103 5.11732 16.2571 4.61002 16.2571H0.644128C-0.0733759 16.2571 0.389078 14.7692 0.386276 14.5306C0.445133 14.4436 0.503991 14.3734 0.565651 14.3706C1.35883 14.3201 3.98781 14.1825 4.59881 14.3397C4.64646 14.351 4.67448 14.4324 4.69971 14.5306H4.6969Z" fill="white"/>
<path id="Vector_96" d="M16.5973 2.44141C16.6394 2.55931 16.7235 2.66878 16.7711 2.78668C15.9275 2.64352 15.0839 2.95512 14.2795 2.96635C9.71658 3.03372 5.10046 3.03091 0.56 2.78668C0.568408 2.71089 0.403047 2.53685 0.38623 2.44141H16.6001H16.5973Z" fill="white"/>
<path id="Vector_97" d="M19.0137 4.85788C19.2631 5.28738 19.1847 5.77303 19.1875 6.23902L18.8623 6.5366C17.4189 6.67976 16.0316 6.63764 14.7031 6.41307C14.2546 6.3878 13.7053 5.62146 14.0136 5.20319C13.8903 4.95336 13.9491 4.75964 14.1705 4.5856C14.3639 4.43401 18.4139 4.59123 19.0137 4.85511V4.85788Z" fill="white"/>
<path id="Vector_98" d="M4.87095 4.85775C5.77624 4.70055 5.49596 6.48311 4.69718 6.41293C4.67476 6.50837 4.64954 6.58136 4.6159 6.58697C3.60131 6.68522 1.70384 6.66277 0.672431 6.58697C0.63039 6.58417 0.591155 6.50837 0.557522 6.41293C0.324894 5.53148 0.229597 6.03395 0.383749 4.85775C0.465028 4.76792 0.551914 4.68935 0.655616 4.64162C0.863019 4.54618 4.64954 4.48161 4.84293 4.60513C4.88777 4.6332 4.88497 4.73423 4.86815 4.85775H4.87095Z" fill="white"/>
<path id="Vector_99" d="M19.0134 6.75821C19.0078 6.98278 19.2713 7.36175 19.1872 7.88108C19.1284 8.24039 18.8509 8.28532 18.8425 8.31339C17.2982 8.52954 15.7118 8.58286 14.0862 8.47057L14.1843 7.79407C13.8564 7.37861 14.2291 6.83119 14.7028 6.75821C14.728 6.65996 14.7533 6.58417 14.7813 6.58417C15.9809 6.5196 17.713 6.48032 18.9013 6.53085C18.9434 6.53085 18.9798 6.63189 19.0134 6.75821Z" fill="white"/>
<path id="Vector_100" d="M18.8395 12.6328C18.8479 12.658 19.1282 12.717 19.1842 13.0623C19.2711 13.5844 19.0048 13.9662 19.0104 14.188C18.9908 14.2806 18.9684 14.3536 18.932 14.362C18.1948 14.508 15.6808 14.4069 14.8119 14.362C14.7727 14.362 14.7334 14.2862 14.6998 14.188C14.6522 13.649 14.3018 13.3935 14.1813 13.1521C14.1028 12.9556 14.0748 12.7535 14.0944 12.5485C14.2233 12.3436 18.2761 12.4307 18.8395 12.6356V12.6328Z" fill="white"/>
<path id="Vector_101" d="M4.8708 12.6331C4.87921 13.2394 5.14266 13.3573 4.8708 14.1882L4.6718 14.3567C4.09163 14.3875 0.806807 14.4661 0.501308 14.3707C0.448055 14.3538 0.414426 14.2809 0.386398 14.1882C0.397609 13.6661 0.0640819 13.4078 0.386398 12.6331C1.62521 12.3215 3.39935 12.3692 4.75588 12.459C4.79793 12.459 4.83436 12.5376 4.8708 12.6331Z" fill="white"/>
<path id="Vector_102" d="M4.69673 6.75799C5.28811 6.87308 5.51514 8.14755 4.87051 8.31317C4.83968 8.46757 4.78082 8.46195 4.69673 8.31317C3.32058 8.4423 1.93322 8.47037 0.557074 8.31317C0.509427 8.46476 0.450567 8.46195 0.383301 8.31317C0.422539 7.48225 0.377698 7.63102 0.557074 6.75799C0.582299 6.66255 0.610325 6.58675 0.638352 6.58395C1.87717 6.53061 3.34301 6.53061 4.58182 6.58395C4.62386 6.58395 4.6603 6.65974 4.69673 6.75799Z" fill="white"/>
<path id="Vector_103" d="M18.4947 4.3407C18.5003 4.40807 18.248 4.64106 18.3209 4.68317L19.0104 4.85721C17.5473 4.89932 16.0675 4.79826 14.6045 4.85721C14.2709 4.87125 13.9122 4.68039 14.0075 5.20252C13.716 5.24463 13.559 5.17161 13.5002 4.8937C10.5545 4.81791 7.67606 4.80387 4.8677 4.85721C4.84248 4.87405 4.52857 4.68038 4.28753 4.70003C2.99547 4.8067 1.69779 4.94704 0.383301 4.85721C0.425342 4.53158 0.425342 4.66633 0.383301 4.33789H18.4947V4.3407Z" fill="white"/>
<path id="Vector_104" d="M16.771 18.1611C16.8214 18.4868 16.7934 18.5991 16.5972 18.8517C16.6925 18.3296 16.3338 18.5204 16.0002 18.5064C10.8095 18.3015 5.57399 18.6608 0.383301 18.5064C0.439356 18.3913 0.506625 18.279 0.557074 18.1611H16.771Z" fill="white"/>
<path id="Vector_105" d="M14.1842 7.79395C14.1618 8.39749 14.0777 8.27116 14.6074 8.31326C15.9752 8.41994 17.4606 8.23466 18.8424 8.31326C18.7975 8.42836 18.7303 8.54906 18.6686 8.65854H0.38628C0.38628 8.54345 0.380675 8.42836 0.38628 8.31326H0.56005C1.9334 8.47327 3.32636 8.43959 4.69971 8.31326C4.75577 8.31326 4.81462 8.31326 4.87348 8.31326C5.07528 8.07185 5.45926 8.02131 6.02541 8.16448H13.6965C13.7302 7.87253 13.8619 7.79395 14.187 7.79676L14.1842 7.79395Z" fill="white"/>
<path id="Vector_106" d="M18.8396 12.6332C17.4607 12.7118 15.9724 12.5237 14.6047 12.6332C14.0749 12.6753 14.1618 12.549 14.1814 13.1525C14.0329 12.8521 13.918 12.7006 14.0077 12.2879C15.367 12.2795 16.9113 12.3918 18.2426 12.2879C18.7723 12.2458 18.6855 12.3721 18.6658 11.7686C18.9125 12.2289 18.7583 12.3693 18.8396 12.6332Z" fill="white"/>
<path id="Vector_107" d="M19.1872 6.24219C19.1872 6.32079 19.019 6.55378 19.0134 6.76151H14.7028C14.2571 6.68291 14.2824 6.5622 14.7028 6.41623C16.1882 6.33763 17.7381 6.60151 19.1872 6.24219Z" fill="white"/>
<path id="Vector_108" d="M5.04147 12.2854C5.01064 12.3893 4.8677 12.5521 4.8677 12.6307H0.383301C0.411328 12.5633 0.537455 12.291 0.557074 12.2854C0.974684 12.1282 4.2511 12.291 5.04147 12.2854Z" fill="white"/>
<path id="Vector_109" d="M4.87063 14.1865C4.83139 14.3044 4.7445 14.4139 4.69686 14.5318C3.90928 14.2511 1.38681 14.7395 0.38623 14.5318C0.38623 14.4167 0.38623 14.3016 0.38623 14.1865H4.87063Z" fill="white"/>
<path id="Vector_110" d="M19.0138 14.1865C19.0138 14.3016 19.0138 14.4167 19.0138 14.5318H14.7031C14.7171 14.4307 14.7115 14.2904 14.7031 14.1865H19.0138Z" fill="white"/>
<path id="Vector_111" d="M4.69679 6.41309C5.0191 6.4973 5.0191 6.6545 4.69679 6.75836H0.557129C0.571143 6.68257 0.573945 6.48046 0.557129 6.41309H4.69679Z" fill="white"/>
<path id="Vector_112" d="M4.69679 8.31326C3.46077 8.6024 1.79314 8.6024 0.557129 8.31326C1.93328 8.34414 3.32064 8.27116 4.69679 8.31326Z" fill="white"/>
</g>
</svg>
