<svg width="149" height="33" viewBox="0 0 149 33" fill="none" xmlns="http://www.w3.org/2000/svg">
<g id="Group 1000004043">
<path id="Vector" d="M48.487 7.86398C53.0467 8.20103 57.1005 11.7308 55.2843 16.5734C54.7314 18.0481 53.6598 18.7543 52.4548 19.6396C57.1928 20.6424 57.1165 27.5105 53.6931 30.1042C52.7312 30.8335 49.8273 31.7702 48.6633 31.7702H37.4653V7.86398C41.0586 8.06043 44.9251 7.60075 48.487 7.86398ZM43.4616 17.7078H47.4294C47.4974 17.7078 48.5716 17.2899 48.7018 17.2179C50.1364 16.4264 50.0832 13.9322 48.8448 12.957C48.5434 12.7194 47.2197 12.2585 46.9004 12.2585H43.4616V17.7078ZM47.9579 21.5746C46.6034 21.3845 44.8623 21.7145 43.461 21.5746V27.1998H48.1342C48.1932 27.1998 49.0795 26.7536 49.1937 26.674C50.2608 25.9325 50.3083 24.8058 50.1666 23.5924C50.0364 22.476 49.0308 21.7254 47.9579 21.5746Z" fill="white"/>
<path id="Vector_2" d="M75.5554 14.8958H69.7361C70.1523 10.7696 62.4187 11.1246 63.2479 14.7706C63.6526 16.5496 68.9774 17.7199 70.6147 18.5019C77.3363 21.7125 77.5082 30.0464 69.9515 31.722C64.0931 33.0214 56.6956 30.802 56.5103 23.8607H62.5059C62.4405 27.0861 64.8198 27.9676 67.6967 27.5407C69.4872 27.2749 70.2696 25.5248 69.3564 23.975C68.5073 22.5337 63.1517 21.2368 61.3265 20.2019C55.851 17.0972 55.9164 10.561 61.9306 8.25811C67.3421 6.18572 75.59 7.9371 75.5547 14.8958H75.5554Z" fill="white"/>
<path id="Vector_3" d="M102.889 23.6845V31.7705H97.0698V7.86426H108.444C109.335 7.86426 111.299 8.66997 112.113 9.129C116.602 11.6598 117.354 18.56 113.205 21.7514C110.36 23.9394 106.292 23.6665 102.889 23.6851V23.6845ZM102.889 19.1141H107.386C107.52 19.1141 108.467 18.7334 108.657 18.6236C110.643 17.4795 110.263 13.7951 108.343 12.7107C108.208 12.6343 107.102 12.2588 107.033 12.2588H102.888V19.1141H102.889Z" fill="white"/>
<path id="Vector_4" d="M96.0115 23.5088C96.3752 31.7072 85.1272 34.453 79.6266 29.9102C74.8937 26.001 74.8353 15.487 78.4806 10.8671C81.3145 7.27512 86.9645 6.55992 91.0163 8.36138C94.1402 9.75068 95.9622 12.754 96.1885 16.1258H90.1929C90.906 11.461 84.0465 10.5121 82.5407 14.5625C81.8237 16.4917 81.8372 22.8084 82.4843 24.7767C83.0153 26.3927 83.7573 27.1984 85.5216 27.3736C88.3279 27.6523 90.4 26.5647 90.1929 23.5088H96.0122H96.0115Z" fill="white"/>
<path id="Vector_5" d="M148.738 31.7702H143.624C143.534 31.7702 143.324 30.2204 143.27 30.0124C140.297 33.3419 135.327 32.4662 133.285 28.6289C131.344 24.9823 131.437 17.338 135.1 14.7475C137.365 13.1451 140.995 13.1278 142.919 15.247V6.45801H148.474C148.492 6.45801 148.738 6.70325 148.738 6.72187V31.7709V31.7702ZM140.053 17.9242C137.473 18.3306 137.61 22.6776 137.807 24.6491C138.118 27.7763 140.87 28.8825 142.883 26.3723C142.687 24.9015 143.336 20.0383 142.752 19.0162C142.275 18.1823 140.972 17.7791 140.053 17.9242Z" fill="white"/>
<path id="Vector_6" d="M132.338 31.7703H126.783C126.505 31.7703 126.358 30.365 126.077 30.3675C124.423 32.1587 121.883 32.4335 119.649 31.6746C114.909 30.0639 114.464 23.9263 118.991 21.7185C119.874 21.2877 122.139 20.6964 123.079 20.6964H125.813C126.086 18.7652 125.507 17.1814 123.265 17.5429C121.749 17.7875 122.061 19.4657 121.933 19.4657H116.29C116.172 13.3532 125.745 12.1205 129.501 15.1739C130.706 16.1536 131.442 17.6867 131.613 19.2204C132.069 23.2991 130.874 27.8143 132.337 31.7703H132.338ZM125.813 23.8602H123.256C122.851 23.8602 121.843 24.8232 121.698 25.2951C121.038 27.4374 122.294 28.2637 124.306 27.8952C124.62 27.8374 125.813 26.9386 125.813 26.7607V23.8602Z" fill="white"/>
<path id="Vector_7" d="M5.54783 0.480704C9.21101 0.232891 12.9928 0.251509 16.6573 0.480704C23.9208 0.831237 27.634 9.3108 22.6574 14.8115C22.315 15.1903 21.0599 16.0891 21.0638 16.387C27.0973 20.1773 25.7114 29.6693 18.9879 31.7199C17.8258 32.0743 17.1332 32.073 15.9519 32.1212C15.3195 31.8541 15.8698 31.3219 16.3495 31.0984C16.1539 30.5945 13.9074 30.538 13.6085 30.6946C13.3802 31.4907 12.9858 31.9664 12.4253 32.1212C11.7224 32.1295 11.0118 32.1282 10.3089 32.1212L10.1775 31.725C10.8951 31.0747 11.4011 30.3261 11.6961 29.4787L12.0726 29.3085L12.3983 28.9593L15.2778 28.9991C19.8241 29.4382 23.2507 25.0803 21.0567 20.9323C19.3983 17.7974 16.2161 17.8629 13.0512 18.0549L12.601 17.7069L12.2483 17.5066V15.2551C12.2181 15.207 11.1561 15.1267 11.362 15.5453L11.3645 17.5188L11.0137 17.7076C11.3722 19.05 11.4935 20.4489 11.3774 21.903C11.3838 22.0359 13.7855 22.1579 13.7413 21.3041C20.1108 17.5323 21.3376 28.7853 14.2562 26.2455C13.5713 25.4071 12.5644 25.1413 11.2363 25.4482L11.0144 25.0899C10.5603 25.5721 8.62934 25.5978 8.1926 25.0899L7.96686 25.445L5.61196 25.4103L5.37146 25.0899C4.79364 24.8004 4.81865 22.6182 5.37146 22.2773C5.88323 21.686 7.37237 21.8087 7.95596 22.1541C7.7283 18.677 7.90786 15.2005 8.19325 11.7305C8.48376 11.1546 10.6732 11.1797 11.015 11.7305C11.3626 12.7224 11.3607 13.7265 11.015 14.719C11.0163 14.5829 11.0458 14.3768 11.1356 14.3672C12.6671 14.2022 16.0519 14.2138 17.5949 14.3672L17.8046 14.719L17.9111 14.3544C23.4392 11.9096 22.9018 4.52725 16.6163 3.66696L16.3059 3.29267C14.5147 3.04743 12.458 3.11227 10.6629 3.29267C11.1516 3.51609 11.3774 4.02584 11.3389 4.82257C11.4345 5.59169 11.5685 7.02271 11.0157 7.51192C11.185 6.92769 13.3873 6.97328 13.6611 7.51192C13.0409 6.49755 14.9559 5.76566 15.8935 5.74127C20.9817 5.60773 19.4393 14.0642 14.3775 11.6528C13.6842 10.6905 12.6587 10.3637 11.2998 10.6744L11.0157 10.3252C10.3096 10.2494 10.3974 9.67867 10.9253 9.32878C11.9007 8.68228 14.5974 9.21001 15.2689 10.234C19.3303 10.8426 16.8978 5.46072 14.2973 8.46722C11.8423 9.18305 9.20075 9.14902 9.76703 5.73742C9.18921 3.86855 8.65949 1.98491 11.3306 2.00738L17.1787 2.08571C16.7304 1.83918 16.2648 1.6363 15.7588 1.55027C13.8913 1.23313 6.99014 1.23698 5.31951 1.79295C4.29598 2.13321 4.42681 2.13065 5.33683 1.99454C6.89202 1.7615 8.81788 2.51585 9.2963 4.12471C9.52461 4.89126 9.52846 8.55838 8.33626 8.69127C7.06004 8.58149 5.3253 9.06556 7.76678 9.09702C8.72041 9.33969 8.62421 10.2058 7.66545 10.3265C7.32683 10.86 5.64851 10.9331 5.37275 10.3265L5.02003 10.1287C4.93152 9.44305 4.84046 7.66728 5.37275 7.33793C5.63312 7.09525 6.01471 7.04197 6.5175 7.17743C7.32363 7.02527 7.88221 7.13762 8.19389 7.51384C7.62184 7.28785 7.64685 5.24115 8.19389 4.96509L7.95853 4.90924C7.3108 3.08723 4.19594 3.12126 4.32228 5.30278L3.96122 5.58013C4.19273 6.81534 4.17798 8.04028 4.14207 9.30952L3.78485 9.79873C3.98879 14.0693 3.98879 18.347 3.78485 22.6311L4.13437 22.9964C4.16772 24.2329 4.11 25.4585 3.96122 26.6738L4.29214 26.9652C4.23378 29.8324 8.16439 29.5243 7.84052 26.7206L8.19389 26.4979C8.4844 25.922 10.6739 25.947 11.0157 26.4979C11.6499 26.8067 11.4659 29.2039 10.6629 29.3105C10.7912 29.3792 10.9426 29.5287 10.8887 29.6084C9.9062 31.049 8.78646 32.0094 6.96 32.1231C5.2432 32.0736 4.16195 32.1565 2.74143 30.9668C1.71277 30.1059 1.38121 28.9343 0.964355 27.7286V4.87714C0.978464 2.28666 2.81583 0.0486302 5.54911 0.482624L5.54783 0.480704Z" fill="white"/>
<path id="Vector_8" d="M16.6573 0.304688V0.480596C13.2975 0.318169 8.89102 0.280291 5.54785 0.480596V0.304688H16.6573Z" fill="white"/>
<path id="Vector_9" d="M12.0728 29.3082C11.9843 30.4965 10.9845 31.265 10.3092 32.1208C9.19589 32.1092 8.07102 32.1529 6.95898 32.1208C7.79718 31.7677 8.8374 31.3382 9.51527 30.7142C9.69484 30.5492 10.5779 29.4706 10.6619 29.3088C10.8768 28.8042 11.9067 28.7689 12.0728 29.3088V29.3082Z" fill="white"/>
<path id="Vector_10" d="M12.4253 32.1216C12.7812 31.8603 13.2513 30.4492 13.3257 30.3831C13.4213 30.299 15.5665 30.3137 15.8736 30.351C16.059 30.3734 16.8337 31.2023 17.3615 31.0687C17.3012 31.3782 16.7253 31.3082 16.4303 31.4552C16.1302 31.6054 15.9634 31.7704 15.9519 32.121C14.784 32.1685 13.595 32.1069 12.4253 32.121V32.1216Z" fill="white"/>
<path id="Vector_11" d="M7.66417 10.3245C8.87882 9.10531 7.16715 9.49822 6.25264 9.44557C6.01022 7.85854 7.2486 8.5641 8.24199 8.3516C9.46434 8.0903 8.70181 5.57687 9.08724 4.61515C8.503 2.40409 5.73445 1.51299 3.97404 3.04224C3.68032 3.29712 2.84663 4.80068 2.76774 5.17818C2.58369 6.05644 2.89537 6.65286 2.91076 7.41684C3.05056 14.2856 2.24059 22.6233 3.12111 29.1801C3.17434 29.5781 3.74189 30.7755 2.87291 29.6032C2.18414 28.6735 1.92891 27.7516 1.83912 26.5909C1.35108 20.3102 2.22005 13.4151 1.84103 7.06888C2.50479 6.01407 2.19248 4.9355 2.41117 3.94618C2.601 3.08397 3.13393 3.05508 3.59632 2.66923C4.08115 2.26477 4.48132 1.70944 5.20729 1.45842C6.66436 0.954446 13.8625 1.02122 15.6851 1.18685C16.5861 1.26839 17.2178 1.78776 17.6629 1.8571C18.0246 1.9136 18.4241 1.59709 18.8314 1.73127C19.1386 1.83271 19.2944 2.51772 19.6567 2.67629C20.0858 2.86376 20.6142 2.63585 20.9952 2.92411C21.2568 3.12249 21.2767 3.68874 21.5153 3.98791C22.6299 5.38426 22.4971 5.50047 23.3167 6.94176C23.4867 7.24094 23.8541 7.31669 23.8907 7.4605C24.3653 9.33771 23.2122 13.2944 21.7648 14.6233C21.2568 15.0894 19.9325 15.2249 20.0108 16.3753C20.0281 16.6289 20.6963 17.9508 20.8855 18.1511C21.4883 18.7873 22.4009 18.4779 22.905 19.6541C24.2838 22.8718 24.3492 25.6786 22.095 28.4886C21.3601 29.4048 19.9998 30.7877 18.7749 30.6284C19.1976 29.5004 20.6867 29.5011 21.2382 29.0414C21.6839 28.6697 22.8672 25.452 22.964 24.7849C23.6271 20.2164 20.9451 17.8783 16.8952 16.853C16.7131 16.8068 16.3418 16.9268 16.4829 16.5679C16.7144 15.9805 17.5013 16.2309 17.8951 16.0409C18.1522 15.917 18.2138 15.4618 18.4248 15.3385C18.6159 15.2268 19.6048 14.8371 20.0178 14.6413C20.3237 14.4956 20.7104 14.5957 20.9952 14.3851C21.2831 14.172 21.3363 13.4298 21.5929 13.0472C22.315 11.9731 23.0006 12.6209 23.1827 10.5838C23.4476 7.61715 21.9725 4.21325 19.1924 2.96455C17.7803 2.33025 17.264 2.44325 15.8717 2.42271C14.6263 2.40409 11.2799 2.19608 10.3013 2.49461C8.99811 2.89201 9.96584 4.7108 10.1153 5.68536C10.2878 6.81528 9.64135 8.20394 11.2767 8.39462C11.7962 8.45496 13.0602 8.46202 13.5623 8.38177C14.5846 8.21806 14.8475 6.99569 16.2251 7.1472C16.4091 7.1671 17.0703 7.91182 17.4955 7.90797C18.3978 9.50656 17.0838 11.1732 15.2375 10.5986C14.8116 10.4664 14.5525 9.96238 14.1389 9.76015C13.5162 9.45584 11.0894 9.13227 10.8637 9.90974C10.813 10.0837 11.0131 10.2583 11.015 10.3251C10.1685 10.8368 9.02311 10.8573 8.19325 10.3251C7.9938 10.7739 7.86426 10.7739 7.66417 10.3251V10.3245Z" fill="white"/>
<path id="Vector_12" d="M10.1325 27.3765C9.7047 27.9627 9.80091 28.7074 9.54951 29.343C8.99862 30.7355 6.59881 31.6651 5.19434 31.2407C5.63428 30.2193 7.14136 30.5242 7.61401 30.1371C7.69418 30.0716 8.81328 28.5726 8.85817 28.4795C9.29106 27.5858 8.61895 27.1852 10.1318 27.3771L10.1325 27.3765Z" fill="white"/>
<path id="Vector_13" d="M5.37143 7.33592V10.3244C5.05206 10.2891 4.4582 10.0914 4.1369 9.97263C3.98555 10.2172 3.86755 10.1588 3.78418 9.79672C3.80534 8.29636 3.74891 7.0451 3.96054 5.57812C3.93296 6.36073 4.67881 7.07976 5.37143 7.33592Z" fill="white"/>
<path id="Vector_14" d="M5.3717 22.2773V25.09C4.74642 25.2055 4.032 26.0517 3.96081 26.6718C3.63567 25.4276 3.78573 23.9337 3.78445 22.6292C3.83447 22.4757 3.89347 22.4776 3.96081 22.6292C4.4822 22.4449 4.79709 22.3191 5.3717 22.2773Z" fill="white"/>
<path id="Vector_15" d="M11.0147 17.7074C11.0172 17.3524 10.9345 14.9192 11.116 14.8916L12.6026 14.8935V17.7068H11.0147V17.7074Z" fill="white"/>
<path id="Vector_16" d="M11.0144 25.0905C11.0125 25.5585 11.017 26.0285 11.0144 26.4965H8.19266C8.20292 26.0291 8.18561 25.5579 8.19266 25.0905C9.30983 25.0501 9.85238 25.0263 11.0144 25.0905Z" fill="white"/>
<path id="Vector_17" d="M11.0142 10.3248C11.0276 10.7915 11.0129 11.264 11.0142 11.7307H8.19238V10.3248C9.12998 10.3427 10.0759 10.3087 11.0142 10.3248Z" fill="white"/>
<path id="Vector_18" d="M4.13674 9.97224L3.96038 22.6287H3.78402C3.78017 18.3568 3.72373 14.0676 3.78402 9.79634C3.93344 9.78671 4.04631 9.93886 4.13674 9.97224Z" fill="white"/>
<path id="Vector_19" d="M16.3045 3.29282C14.4332 3.20872 12.5349 3.35445 10.6616 3.29282C10.845 3.00135 11.3305 3.11756 11.6287 3.11371C12.8626 3.0983 14.1036 3.10087 15.3368 3.11371C15.635 3.11692 16.1211 3.00135 16.3039 3.29282H16.3045Z" fill="white"/>
</g>
</svg>
