<svg width="185" height="47" viewBox="0 0 185 47" fill="none" xmlns="http://www.w3.org/2000/svg">
<g id="Group 1000004047">
<path id="Vector" d="M113.398 19.2942C113.147 19.5628 113.028 22.2817 113.624 22.5855L120.19 22.6582C121.612 23.0742 121.695 24.7606 120.19 25.1195L113.624 25.1921C113.11 25.4365 113.156 27.398 113.226 27.9374C113.294 28.4482 113.712 28.7366 114.207 28.7806L122.513 28.8048C123.805 29.2737 123.337 31.145 122.027 31.1296C118.84 30.8963 115.264 31.4202 112.123 31.1296C111.259 31.0504 110.912 30.7796 110.758 29.8902C111.041 26.0837 110.393 21.7599 110.753 18.0173C110.821 17.3216 111.094 16.7404 111.863 16.6524C115.07 16.2803 118.987 16.9298 122.271 16.6634C123.553 16.8681 123.634 18.8033 122.401 18.9948C119.998 19.3713 116.699 18.7218 114.204 18.9992C114.002 19.0212 113.521 19.1643 113.395 19.2964L113.398 19.2942Z" fill="white"/>
<path id="Vector_2" d="M89.1067 16.9609C89.6738 17.5289 89.5551 18.7749 88.6693 18.9731C86.0426 19.2549 82.928 18.6935 80.3629 18.9973C80.0683 19.0325 79.6661 19.1844 79.5122 19.4486C79.3012 19.8075 79.1803 22.3062 79.7848 22.5836C81.8048 22.9028 84.2424 22.3854 86.2119 22.6628C87.7461 22.8786 87.9308 24.8115 86.346 25.1197L79.7848 25.1968C79.2418 25.4368 79.31 27.3763 79.3847 27.9377C79.4638 28.5343 79.943 28.7148 80.4969 28.7787C83.0423 29.0693 86.0712 28.5387 88.6693 28.8073C89.9002 29.2784 89.5925 30.9934 88.3088 31.1299C85.0799 30.8988 81.4575 31.4271 78.2791 31.1299C77.0152 31.0132 76.9888 30.3616 76.9119 29.241C76.7075 26.2689 76.6635 21.2208 76.9119 18.2796C76.9888 17.3814 77.1603 16.7495 78.145 16.6461C81.3564 16.307 85.1634 16.9213 88.4407 16.6483C88.6781 16.6681 88.9397 16.7958 89.1045 16.9609H89.1067Z" fill="white"/>
<path id="Vector_3" d="M132.725 16.6878C134.363 16.4941 137.712 16.7495 139.124 17.6455C140.086 18.2553 139.886 19.6797 138.91 19.8888C138.321 20.0165 136.587 19.2966 135.78 19.169C134.215 18.918 129.593 18.8409 130.665 21.5554C131.228 22.9776 134.873 22.5747 136.196 22.7949C137.934 23.0833 140.042 24.2016 140.295 26.1192C140.886 30.6015 136.202 31.3192 132.817 31.1321C131.644 31.0682 127.201 30.5751 128.219 28.6003C128.953 27.1737 130.725 28.4352 131.945 28.6157C133.231 28.8072 135.633 28.8315 136.829 28.3581C139.062 27.4731 137.789 25.3905 135.673 25.1417C133.925 24.937 132.595 25.221 130.784 24.5627C126.054 22.8455 127.784 17.2712 132.727 16.6856L132.725 16.6878Z" fill="white"/>
<path id="Vector_4" d="M65.1742 16.6899C67.3833 16.4389 69.8341 17.0686 71.3859 18.7395C72.1399 19.5519 71.5508 20.8838 70.4781 20.8354C69.8605 20.8068 69.245 20.0538 68.7087 19.728C64.7038 17.3107 60.0549 21.5377 61.8881 25.9077C62.9058 28.3338 65.9655 29.3839 68.3152 28.3074C69.1989 27.9023 70.7287 25.9363 71.5662 27.5567C72.3135 28.9987 69.9242 30.3702 68.79 30.7401C63.0751 32.6004 57.67 27.6799 59.2856 21.8723C59.9824 19.3714 62.5695 16.9871 65.1764 16.6899H65.1742Z" fill="white"/>
<path id="Vector_5" d="M143.605 16.9611C143.77 16.796 144.032 16.6683 144.269 16.6485C148.164 16.9721 152.699 16.239 156.519 16.6463C158.049 16.8092 157.981 18.6893 157.005 18.9733C156.029 19.2573 153.774 18.861 152.604 18.9975C152.285 19.035 152.024 19.1252 151.826 19.3916L151.765 29.8885C151.514 31.3129 149.727 31.6519 149.296 30.1395C149.056 26.9076 149.588 23.2839 149.296 20.1027C149.263 19.7505 149.175 19.319 148.843 19.123C148.043 18.6497 144.929 19.33 143.858 18.9029C143.131 18.6123 143.106 17.4653 143.61 16.9611H143.605Z" fill="white"/>
<path id="Vector_6" d="M95.2371 16.6867C96.0614 16.4687 96.7032 16.9575 96.8197 17.7742C97.244 20.7727 96.5472 24.6958 96.8263 27.8066C96.9011 28.6278 97.1407 28.718 97.9342 28.7841C100.559 29.002 103.458 28.5881 106.113 28.8061C107.34 29.4621 107.003 31.045 105.625 31.1331C102.438 30.8975 98.8595 31.4259 95.7207 31.1331C94.9558 31.0626 94.5294 30.8293 94.3535 30.0257V17.7588C94.3799 17.3427 94.8547 16.7901 95.2371 16.6889V16.6867Z" fill="white"/>
<path id="Vector_7" d="M162.526 16.6821C163.553 16.451 164.043 17.074 164.131 18.0184C164.478 21.7346 163.861 25.9836 164.127 29.757C164.07 31.5336 161.808 31.6525 161.647 29.8935C161.293 26.0474 161.926 21.6642 161.649 17.7609C161.654 17.3029 162.091 16.7812 162.526 16.6821Z" fill="white"/>
<path id="Vector_8" d="M183.933 28.6915C181.982 24.7926 179.254 21.0368 177.256 17.1313C176.981 16.6557 176.297 16.5369 175.803 16.6822C175.497 16.7724 175.139 17.3867 174.957 17.6574C172.517 21.2944 170.655 25.6226 168.233 29.3079C167.914 30.3294 168.358 31.2673 169.516 31.122C170.668 30.9789 171.051 28.3745 172.027 28.1543L180.654 28.1939C181.672 28.9887 182.004 31.7428 183.747 31.0251C184.892 30.554 184.309 29.4444 183.931 28.6915H183.933ZM178.843 25.5939C178.649 25.7304 174.559 25.7194 174.079 25.6556C173.589 25.5917 173.392 25.3606 173.567 24.8762C173.721 24.4469 175.475 21.4661 175.781 21.094C175.864 20.9905 175.926 20.8849 176.064 20.8408C176.645 20.6735 177.13 21.7391 177.403 22.1926C177.632 22.5668 178.878 24.6275 178.933 24.8344C178.99 25.0436 179.034 25.4575 178.843 25.5939Z" fill="white"/>
<path id="Vector_9" d="M24.3869 0.0537109C11.4579 0.0537109 0.973145 10.5506 0.973145 23.5066C0.973145 36.4626 11.4579 46.9573 24.3869 46.9573C37.3159 46.9573 47.8007 36.456 47.8007 23.5066C47.8007 10.5572 37.3159 0.0559113 24.3869 0.0559113V0.0537109ZM39.7579 8.44153C41.2746 10.0266 42.9759 12.3757 43.8354 14.3923C44.0486 14.8898 44.3453 15.3037 44.2486 15.8739C43.4375 15.7704 42.2044 15.8805 41.4505 15.7374C40.5844 15.5767 40.3822 12.9018 40.1536 12.0873C39.7953 10.806 39.3733 9.52909 38.8392 8.31384C38.8523 7.47286 39.4678 8.13993 39.7579 8.43933V8.44153ZM41.8879 21.4922C41.9912 21.5494 43.0682 23.3261 43.0682 23.5C43.055 23.8258 41.9538 24.997 41.6439 25.0719C41.501 25.1071 41.3801 24.9816 41.3801 24.9332C41.3801 24.2617 41.2438 22.1372 41.3801 21.6749C41.4263 21.5208 41.7362 21.4107 41.8879 21.4944V21.4922ZM12.3129 5.72485C15.9112 2.81222 23.1428 1.40545 27.6181 2.21341C27.7851 2.24203 28.1808 2.3499 28.2313 2.51722C28.3412 2.86946 26.8465 4.11113 26.5476 4.46557C26.1322 4.96092 24.8507 7.13603 24.5012 7.2395C23.7297 7.46846 22.1031 6.77938 21.2613 6.62527C19.1028 6.2334 16.5574 5.96261 14.3703 6.0881C13.5373 6.13653 12.7042 6.48658 11.836 6.35228C11.803 6.04847 12.1173 5.88335 12.3129 5.72264V5.72485ZM9.9852 38.9107C7.67723 38.2018 9.11696 35.7779 10.038 34.4746C10.6226 33.6446 11.359 32.9225 12.0294 32.1674C12.3833 31.3947 11.4733 30.4304 10.616 30.8839C9.89288 31.2648 8.19158 33.6931 7.69482 34.4746C7.29037 35.1108 7.15629 36.2204 6.26168 35.08C3.65038 31.7381 2.69423 25.5364 2.98217 21.4085C3.00855 21.0167 3.27671 19.2334 3.45036 19.0089C3.53169 18.9032 3.65698 18.7931 3.76688 18.8702C3.82403 18.9164 4.10318 20.015 4.22847 20.299C6.74526 26.0251 11.7656 30.5207 17.0871 33.6248C18.0587 34.1928 20.9535 35.8285 21.9251 35.8285C22.5098 35.8285 24.2286 35.2231 24.3341 34.5715C22.7999 27.7181 22.8241 20.7569 24.3913 13.9145C24.5166 13.3686 25.2507 11.3872 25.2376 11.1076C25.2112 10.5814 23.833 10.0707 23.4549 10.4317C23.2703 10.6056 22.7779 12.3294 22.6746 12.7147C22.1427 14.7291 21.7119 17.2542 21.4701 19.3281C21.369 20.1911 21.5118 22.0932 21.1316 22.7713C20.7227 23.5044 17.929 24.9992 17.0542 25.5958C16.364 26.0648 13.7329 28.2311 13.19 28.2509C12.7921 28.2641 12.2756 27.8018 11.9635 27.5398C4.26584 21.1642 0.986333 8.83561 14.6297 8.04526C22.4702 7.58954 30.9679 11.5149 36.9532 16.3274L30.4162 18.5091C29.4996 19.0133 24.5649 20.8207 24.2682 21.4768C24.1099 21.8334 23.9934 23.6233 24.7562 23.2776C28.0445 21.512 31.4954 20.1383 35.0365 18.9648C35.841 18.6963 37.705 18.4805 38.061 17.6946C38.3578 17.0407 37.9445 15.0527 37.5357 14.4451C36.9488 13.5711 34.0166 11.768 32.9901 11.1758C31.2273 10.1565 28.6072 9.31994 27.1059 8.33145C26.3893 7.86253 26.818 7.48387 27.218 6.83221C28.8116 4.2146 31.546 2.2024 34.3068 4.70554C35.8652 6.11452 37.0895 8.86863 37.7445 10.8478C39.4612 16.0434 39.7206 21.785 39.2326 27.2096C35.4893 30.2323 31.2075 32.8389 26.8509 34.8885C22.9032 36.7444 14.1571 40.1876 9.9852 38.9107ZM14.8297 29.7545C15.8958 28.7726 17.1025 27.9184 18.3027 27.1061C18.883 26.7142 20.2743 25.6773 20.8194 25.4571C20.9513 25.4021 21.0546 25.3603 21.2063 25.3867C21.4195 28.2311 21.6042 31.0776 22.246 33.8626C22.0196 33.9022 21.8393 33.8296 21.6327 33.7591C20.8348 33.4905 19.305 32.6275 18.5137 32.1872C18.0521 31.9318 14.8275 29.9769 14.8275 29.7523L14.8297 29.7545ZM27.3059 44.7932C27.2532 44.8262 26.2706 44.9385 26.0948 44.9473C22.3251 45.1872 16.0233 44.1833 13.0119 41.744C12.0536 40.9647 13.4669 41.0836 13.8516 41.0286C16.3178 40.6895 18.5488 40.1039 20.9162 39.3708C21.4283 39.2123 23.101 38.4748 23.4571 38.5716C23.822 38.6729 24.4023 40.3241 24.6551 40.7732C25.1254 41.6208 25.7299 42.5036 26.3454 43.2499C26.574 43.5251 27.8423 44.4585 27.3037 44.791L27.3059 44.7932ZM34.7969 41.4116C32.2538 44.573 29.4644 44.496 27.1367 41.154C26.818 40.6917 25.6134 38.5188 25.5233 38.0675C25.4486 37.702 25.6134 37.4621 25.9871 37.407C26.3036 37.3608 28.9787 38.1534 29.6381 38.2612C30.9173 38.4682 32.6077 38.6751 33.8913 38.6949C34.3991 38.7015 36.351 38.2458 36.2828 38.9899C36.2564 39.2717 35.0585 41.0902 34.7947 41.4138L34.7969 41.4116ZM36.6235 36.5925C35.3354 36.7906 32.889 36.7158 31.5724 36.5837C31.1855 36.544 29.3523 36.2997 29.2776 36.0157L38.4809 30.3643C39.1491 30.2587 38.7073 31.595 38.6128 32.0683C38.4699 32.7596 37.639 36.0157 37.2675 36.3261C37.1423 36.4318 36.7972 36.5683 36.6257 36.5947L36.6235 36.5925ZM38.3886 39.5998C38.3842 38.739 38.6655 38.0411 39.5601 37.8341C41.0812 37.4819 38.6391 39.8816 38.3886 39.5998ZM40.7251 35.3574C39.1799 35.9232 40.2987 33.5169 40.435 32.8521C40.6833 31.65 40.8086 29.345 41.1845 28.3852C41.29 28.1166 43.3738 26.122 43.5562 26.067C44.5211 25.7764 44.7278 27.9008 44.7629 28.5855C44.8992 31.2626 43.3276 34.3975 40.7251 35.3574ZM42.7363 19.4029C42.5011 19.0859 41.8461 18.5003 41.701 18.2163C41.6043 18.0292 41.6856 17.9257 41.8307 17.8178C42.3275 17.4612 44.6882 17.9786 45.1586 18.5421C45.6532 19.1233 45.319 20.8053 44.8618 21.3095C44.1739 22.0668 43.1122 19.9005 42.7385 19.4029H42.7363ZM45.4202 24.2133C45.2905 24.046 45.5235 23.5462 45.7433 23.4383C45.9829 23.6035 45.996 23.8941 45.9301 24.1406C45.8554 24.4092 45.4487 24.2529 45.4202 24.2155V24.2133Z" fill="white"/>
</g>
</svg>
