<svg width="117" height="23" viewBox="0 0 117 23" fill="none" xmlns="http://www.w3.org/2000/svg">
<g id="Group 1000004003">
<path id="Vector" d="M92.6321 0.470703L96.3069 13.7313L99.9962 0.488616L105.006 0.549529L108.401 13.9087L112.61 0.470703H117L110.711 21.0577L106.359 21.0864L102.574 7.63583L98.6398 20.9018L94.0727 21.0684L87.9736 0.470703H92.6321Z" fill="black"/>
<path id="Vector_2" d="M70.2352 7.2793H66.1143V21.0756H70.2352V7.2793Z" fill="black"/>
<path id="Vector_3" d="M46.2261 7.6379H41.6572C40.3403 4.6045 36.9736 3.58679 34.0352 5.03272C29.8802 7.07888 30.2385 15.6523 34.8397 16.9639C37.3069 17.6662 41.0211 16.7883 41.5676 13.909H46.2261C44.8089 23.2152 30.5145 24.2275 27.2768 15.5681C26.1104 12.4487 26.2018 8.46748 27.6441 5.45021C31.3852 -2.37786 44.9665 -1.47125 46.2261 7.6379Z" fill="black"/>
<path id="Vector_4" d="M67.4957 0.149951C71.1239 -0.67962 71.5163 5.17219 68.0224 4.93568C65.0786 4.7368 65.0607 0.705388 67.4957 0.149951Z" fill="black"/>
<path id="Vector_5" d="M48.1952 15.4335C48.8456 21.5128 57.5139 23.3906 61.3751 19.3878C62.4824 18.2411 63.2851 16.6752 63.4231 15.0698C64.3781 4.01478 46.9589 3.88578 48.1952 15.4335ZM55.7759 17.6785C53.8158 17.6785 52.2266 16.091 52.2266 14.1309C52.2266 12.1707 53.8158 10.5815 55.7759 10.5815C57.7361 10.5815 59.3236 12.1707 59.3236 14.1309C59.3236 16.091 57.7361 17.6785 55.7759 17.6785Z" fill="black"/>
<path id="Vector_6" d="M87.436 21.0757H83.1358V12.7441C83.1358 12.1923 82.3438 11.0814 81.8045 10.8503C80.8531 10.4417 79.298 10.6012 78.558 11.3931C78.3036 11.6655 77.7606 12.7997 77.7606 13.1042V21.0774H73.6396V7.28112H77.5815C77.6728 7.51584 77.6209 8.70913 78.0276 8.53354C80.029 6.11829 84.7824 6.13441 86.4774 8.8668C86.9289 9.59424 87.4377 11.2014 87.4377 12.0274V21.0757H87.436Z" fill="black"/>
<path id="Vector_7" d="M6.80809 7.6377C7.23989 8.00321 6.80092 13.1777 6.99085 14.1739C7.04102 14.4337 7.69141 15.163 7.79354 15.163H17.7376L17.5585 22.1507H7.79354C6.16665 22.1507 3.56149 20.7854 2.43628 19.6244C-1.05401 16.0194 0.653493 12.0525 -0.000488281 7.6377H6.80809Z" fill="black"/>
<path id="Vector_8" d="M17.7466 0.649414H6.9873V7.63716H17.7466V0.649414Z" fill="black"/>
</g>
</svg>
