<svg width="120" height="33" viewBox="0 0 120 33" fill="none" xmlns="http://www.w3.org/2000/svg">
<g id="Group 1000004050">
<path id="Vector" d="M22.0372 0.835175C23.3129 1.20776 24.685 1.24283 25.9716 1.60665C31.9324 3.29863 37.2892 8.7121 35.1075 15.3485C32.7245 22.5964 21.0306 23.1553 14.8139 21.9849L9.34765 20.008C17.3522 27.2121 28.6369 26.6795 36.9216 20.2316C37.0944 20.0979 37.3417 19.642 37.5736 20.008C35.7093 25.3645 31.6457 29.5024 26.1883 31.179L21.1641 32.1741H16.35C10.328 32.3121 3.15277 28.5578 2.24247 22.0266C0.559715 9.93505 18.2187 8.29568 26.2977 11.4276C18.698 6.50946 8.52488 7.42776 1.48315 12.9464L0.594727 13.1064V12.6681C1.09146 9.35646 3.73265 6.19605 6.36072 4.19723C9.46363 1.83898 12.4703 1.0982 16.1312 0.833008H22.0394L22.0372 0.835175Z" fill="white"/>
<path id="Vector_2" d="M119.413 15.2996V17.4913L109.348 17.7127C110.105 19.8452 111.914 20.3953 114.033 20.1016C114.761 20.0008 116.297 19.0255 116.427 19.0474C116.562 19.0715 118.247 20.7547 118.293 20.9322C118.486 21.6752 116.707 22.622 116.127 22.8587C111.63 24.6932 105.647 22.2319 105.398 16.9543C105.043 9.42811 114.553 6.87041 118.499 12.8186L119.411 15.3018L119.413 15.2996ZM109.348 15.2996H115.693C115.052 11.7447 109.798 11.668 109.348 15.2996Z" fill="white"/>
<path id="Vector_3" d="M87.0211 13.5428C85.3274 13.076 84.1764 12.4623 82.3229 12.6705C80.8699 12.8349 79.813 13.9965 81.4323 14.6584C83.5637 15.5328 87.6447 14.8381 88.5025 17.8779C89.7498 22.3051 84.6228 23.6837 81.2332 23.4054C80.5461 23.3484 77.1434 22.5374 76.8392 22.1035C76.3447 21.3956 77.7998 19.8439 77.8414 19.0242C79.1719 19.9337 83.3405 21.0822 84.5221 19.9118C86.3537 18.0993 80.638 17.8253 79.6905 17.4966C75.8655 16.1706 76.0099 11.8968 79.4782 10.2531C81.4411 9.32381 84.2617 9.39394 86.3252 9.97474C89.3625 10.8295 87.544 11.2722 87.0232 13.5384L87.0211 13.5428Z" fill="white"/>
<path id="Vector_4" d="M103.877 17.711H94.0303C94.2491 19.9114 96.6562 20.3564 98.4965 20.1021C99.223 20.0013 100.761 19.026 100.89 19.0479C101.227 19.1071 102.558 20.8078 102.995 21.1081C99.5403 25.1846 91.5138 23.7513 90.1527 18.4123C87.3693 7.48681 105.413 6.19589 103.873 17.711H103.877ZM100.157 15.3001C99.7525 11.6707 94.3476 11.7562 93.8115 15.3001H100.157Z" fill="white"/>
<path id="Vector_5" d="M65.5829 17.7108C65.8018 19.9113 68.2088 20.3562 70.0491 20.102C70.7756 20.0011 72.3139 19.0259 72.443 19.0478C72.78 19.1069 74.1105 20.8077 74.5481 21.1079C70.6815 25.465 62.1321 23.5122 61.4472 17.358C60.5303 9.12162 72.0842 6.6779 74.8785 13.5466C75.1367 14.1844 75.9442 17.7087 75.0995 17.7087H65.5807L65.5829 17.7108ZM71.71 15.3C71.187 11.767 65.7952 11.6596 65.3641 15.3H71.71Z" fill="white"/>
<path id="Vector_6" d="M59.8939 17.7115H50.0469C50.4342 19.9777 52.7734 20.4248 54.7384 20.1092C55.454 19.993 56.7297 18.9213 57.128 19.0396C57.3315 19.101 58.5503 20.8872 59.0143 21.1086C54.8172 25.6914 45.9811 23.103 45.9111 16.4819C45.8105 6.76839 61.5986 7.54863 59.8917 17.7115H59.8939ZM56.1739 15.3006C55.6794 11.6317 50.5611 11.7917 49.8281 15.3006H56.1739Z" fill="white"/>
</g>
</svg>
