<svg width="84" height="27" viewBox="0 0 84 27" fill="none" xmlns="http://www.w3.org/2000/svg">
<g id="Group 1000004037">
<path id="Vector" d="M4.52885 10.8366H4.65765L16.6363 10.9651C16.7625 11.0911 16.7522 11.0936 16.7716 11.2735C16.8746 12.1949 16.8424 14.0712 16.7728 15.0247C16.7574 15.2342 16.8063 15.2933 16.6363 15.4629L7.59307 15.5593C6.18396 15.5388 5.05952 15.5375 4.65636 15.5902H4.52885C4.51597 19.1023 4.53915 22.6183 4.52885 26.1292H0.0194656C0.0709867 20.7781 -0.0449358 15.4167 0.0207536 10.0655C0.0452262 8.0441 -0.167298 6.85025 0.535965 4.92518C0.917221 3.8804 0.968742 3.72361 1.69519 2.86903C2.41777 2.0183 2.77971 1.70602 3.75603 1.19841C4.82381 0.643247 5.62367 0.378518 6.8473 0.298842H13.4845C15.1525 0.34382 16.8179 0.377233 18.4395 0.298842C18.4795 0.310408 18.5349 0.283421 18.5683 0.298842C18.6881 0.354101 18.6778 0.34382 18.6997 0.48518C18.8904 1.75742 18.5529 3.47302 18.6972 4.79667C17.1155 4.78639 15.5389 4.78767 13.9662 4.80052C11.5821 4.81723 9.20954 4.85835 6.8473 4.92518C6.55363 4.94574 6.33466 5.02027 6.07448 5.05369C3.97757 6.05734 4.55075 8.88712 4.52885 10.8366Z" fill="white"/>
<path id="Vector_2" d="M13.4844 0.299277H6.84717C8.64654 0.181049 10.5052 0.218316 12.3702 0.268435C12.7412 0.278716 13.1134 0.288997 13.4844 0.299277Z" fill="white"/>
<path id="Vector_3" d="M18.4394 0.298828C16.8178 0.377219 15.1524 0.343806 13.4844 0.298828H18.4394Z" fill="white"/>
<path id="Vector_4" d="M77.8179 14.1777C76.6728 14.2291 75.5252 14.2651 74.3737 14.2857C73.2917 14.3062 72.2072 14.3127 71.1201 14.3062C72.1093 14.2985 73.096 14.287 74.08 14.2677C75.3307 14.2471 76.5762 14.2163 77.8179 14.1777Z" fill="white"/>
<path id="Vector_5" d="M70.0158 21.7244L69.9604 21.6318C70.0506 21.6511 70.0674 21.682 70.0158 21.7244Z" fill="white"/>
<path id="Vector_6" d="M37.4894 21.7475L37.2446 21.6318C37.3296 21.655 37.4494 21.6897 37.4894 21.7475Z" fill="white"/>
<path id="Vector_7" d="M45.6235 4.84206C44.9369 4.84849 44.2337 4.82536 43.5278 4.79837C44.177 4.79451 44.9872 4.81251 45.6235 4.84206Z" fill="white"/>
<path id="Vector_8" d="M46.7762 5.05409C46.5805 5.01425 46.5006 4.96927 46.5328 4.91787C46.5341 4.9153 46.5354 4.91273 46.538 4.91016C46.5405 4.91144 46.5431 4.91144 46.5457 4.91144C46.5586 4.91401 46.5702 4.9153 46.5818 4.91787C46.6526 4.93072 46.7157 4.98598 46.7762 5.05409Z" fill="white"/>
<path id="Vector_9" d="M46.7763 4.79688V5.05389C46.5805 5.01406 46.5007 4.96908 46.5329 4.91767C46.5342 4.9151 46.5355 4.91253 46.538 4.90996C46.3642 4.88426 46.0306 4.85984 45.6235 4.84185C46.0138 4.838 46.3989 4.82386 46.7763 4.79688Z" fill="white"/>
<path id="Vector_10" d="M46.7762 4.79688V5.05389C46.5805 5.01406 46.5006 4.96908 46.5328 4.91767C46.5341 4.9151 46.5354 4.91253 46.538 4.90996C46.5689 4.87527 46.6487 4.838 46.7762 4.79688Z" fill="white"/>
<path id="Vector_11" d="M46.7762 0.29879C44.848 0.29108 42.907 0.267948 40.9801 0.29879C38.3551 0.341198 36.4539 0.171566 34.473 2.22386C32.2112 4.56658 32.7637 7.21259 32.7367 10.194V19.2372C32.7457 21.4925 32.7522 23.7466 32.7367 26.0006C32.7766 26.0418 32.8153 26.1022 32.8655 26.1292C34.3029 26.2204 35.8241 26.1806 37.2448 26.1292H43.0409C43.7828 26.2204 44.5556 26.2204 45.3594 26.1292C48.743 25.6935 51.1194 23.5872 51.2843 20.0892V0.29879C49.7837 0.29365 48.2768 0.305216 46.7762 0.29879ZM46.5186 20.8603C46.2636 21.2407 45.5011 21.5825 45.0374 21.6313C42.6017 21.8922 39.7281 21.4373 37.2448 21.6313C37.3298 21.6545 37.4496 21.6892 37.4895 21.747L37.2448 21.6313C37.2448 18.8067 37.2306 15.9744 37.2448 13.1497C37.2551 11.0961 37.0696 8.65061 37.2396 6.65486C37.2693 6.3066 37.335 6.00203 37.5024 5.69618C37.8386 5.08319 38.4478 4.86472 39.1137 4.7979C40.5074 4.65911 42.0234 4.73879 43.5278 4.7979C44.177 4.79404 44.9871 4.81204 45.6234 4.84159C46.0137 4.83774 46.3988 4.8236 46.7762 4.79662V5.05363C46.7762 10.0012 46.771 14.9527 46.7826 19.9029C46.7685 20.1419 46.6371 20.6816 46.5186 20.8603Z" fill="white"/>
<path id="Vector_12" d="M32.7368 26.0007V19.2373C32.746 21.4926 32.7526 23.7467 32.7368 26.0007Z" fill="white"/>
<path id="Vector_13" d="M37.4894 21.7475L37.2446 21.6318C37.3296 21.655 37.4494 21.6897 37.4894 21.7475Z" fill="white"/>
<path id="Vector_14" d="M45.6235 4.84206C44.9369 4.84849 44.2337 4.82536 43.5278 4.79837C44.177 4.79451 44.9872 4.81251 45.6235 4.84206Z" fill="white"/>
<path id="Vector_15" d="M46.7763 4.79688L46.5458 4.91125L46.5342 4.91767H46.5329C46.5329 4.91767 46.5355 4.91253 46.538 4.90996C46.3642 4.88426 46.0306 4.85984 45.6235 4.84185C46.0138 4.838 46.3989 4.82386 46.7763 4.79688Z" fill="white"/>
<path id="Vector_16" d="M32.737 10.1943V19.2375C32.7252 16.2227 32.7094 13.2066 32.737 10.1943Z" fill="white"/>
<path id="Vector_17" d="M32.7368 26.0007V19.2373C32.746 21.4926 32.7526 23.7467 32.7368 26.0007Z" fill="white"/>
<path id="Vector_18" d="M37.4894 21.7475L37.2446 21.6318C37.3296 21.655 37.4494 21.6897 37.4894 21.7475Z" fill="white"/>
<path id="Vector_19" d="M4.54823 24.5682L4.52891 26.1296C4.53922 22.6187 4.51603 19.1027 4.52891 15.5918C4.57271 18.5835 4.57915 21.5752 4.54823 24.5682Z" fill="white"/>
<path id="Vector_20" d="M27.8613 10.3306V10.3871L27.842 14.6922C27.8394 14.8451 27.8407 14.998 27.842 15.151V16.3628C27.8085 17.2842 27.6823 18.2236 27.3848 19.0564C25.9151 23.1661 22.4864 25.6489 18.1818 26.1295C15.8209 26.2516 13.4586 26.2516 11.0977 26.1295V21.6317C13.4045 21.534 15.723 21.4916 18.053 21.5032C18.451 21.4942 18.7691 21.3901 19.0834 21.3747C20.3083 21.02 21.4611 20.186 22.2275 19.1785C23.0802 18.0579 23.1871 17.0748 23.3339 15.7203C23.3404 15.6663 23.5452 15.4491 23.4717 15.2859L23.4576 0.499625C23.464 0.466213 24.0552 0.305576 24.1067 0.299151C24.8731 0.198914 26.1225 0.279875 26.9404 0.299151L27.8433 0.42766C27.8098 3.72521 27.8523 7.02918 27.8613 10.3306Z" fill="white"/>
<path id="Vector_21" d="M24.1068 0.298828C24.0553 0.305254 23.4641 0.46589 23.4576 0.499303L23.4718 15.2856C23.5452 15.4488 23.3404 15.666 23.334 15.7199C23.4164 10.6541 23.437 5.57156 23.3958 0.473601C23.5736 0.359227 23.8106 0.301398 24.1068 0.298828Z" fill="white"/>
<path id="Vector_22" d="M27.9065 0.39521L27.8614 10.3303C27.8524 7.02886 27.8098 3.72489 27.8433 0.427337L26.9404 0.298828L27.9065 0.39521Z" fill="white"/>
<path id="Vector_23" d="M16.6364 10.9651L4.65771 10.8366C5.56577 10.8328 6.47255 10.8315 7.38061 10.8353H7.61374C10.6251 10.8443 13.6327 10.888 16.6364 10.9651Z" fill="white"/>
<path id="Vector_24" d="M27.8489 15.6221C27.8515 15.8701 27.8515 16.1168 27.8423 16.3623L27.8489 15.6221Z" fill="white"/>
<path id="Vector_25" d="M27.9721 0.29803L27.8485 15.6228C27.8459 15.466 27.8433 15.3092 27.842 15.1511V14.6924C27.8614 13.2582 27.8639 11.8227 27.8614 10.3873V10.3307C27.8524 7.02935 27.8098 3.72537 27.8433 0.427825L26.9404 0.299316C27.283 0.307026 27.6295 0.29289 27.9721 0.29803Z" fill="white"/>
<path id="Vector_26" d="M23.4718 15.2859C23.5452 15.4491 23.3404 15.6663 23.334 15.7203V0.297852L24.1068 0.299137C24.0553 0.305562 23.4641 0.466199 23.4576 0.499611L23.4718 15.2859Z" fill="white"/>
<path id="Vector_27" d="M16.6364 10.9657L4.65771 10.8372H7.38061L7.61374 10.8359L16.3272 10.8308C16.496 10.8089 16.5372 10.8668 16.6364 10.9657Z" fill="white"/>
<path id="Vector_28" d="M4.65643 15.5908V15.7168L4.54823 24.5685L4.52891 26.1299C4.53922 22.619 4.51603 19.103 4.52891 15.5921H4.65643V15.5908Z" fill="white"/>
<path id="Vector_29" d="M7.59295 15.5591L4.68587 15.5899H4.65625C5.0594 15.5373 6.18385 15.5385 7.59295 15.5591Z" fill="white"/>
<path id="Vector_30" d="M15.6766 4.82905L6.84717 4.92544C9.20941 4.85861 11.582 4.81749 13.9661 4.80078C14.5367 4.81235 15.1073 4.82391 15.6766 4.82905Z" fill="white"/>
<path id="Vector_31" d="M18.6972 4.79688C17.699 4.83543 16.6904 4.84057 15.6768 4.829L18.6972 4.79688Z" fill="white"/>
<path id="Vector_32" d="M79.4919 9.68001C79.4481 7.00059 79.4416 4.3186 79.4738 1.63661L79.4919 0.298828C79.4713 3.42289 79.5202 6.55595 79.4919 9.68001Z" fill="white"/>
<path id="Vector_33" d="M72.9232 0.298828V4.79665C71.6738 4.84934 70.4206 4.88533 69.1635 4.90717C68.1871 4.92259 67.207 4.92902 66.2255 4.92516C65.5686 4.95858 65.3123 4.97914 64.6799 5.18218C62.4181 5.90826 60.848 7.97083 60.687 10.3226C60.5337 12.5586 60.5685 14.8705 60.6303 17.1939L60.5582 26.0007C60.4319 26.1266 60.4294 26.1163 60.249 26.1356C59.4092 26.2294 57.1346 26.2346 56.3077 26.1292C56.1621 25.9146 56.1814 25.673 56.1737 25.4288C56.0926 22.761 56.1776 20.0597 56.1789 17.3906C56.1802 15.5516 56.1467 13.7023 56.1789 11.8647C56.1905 11.226 56.1441 10.5731 56.1789 9.93703C56.4275 5.39294 60.8183 0.298828 65.5171 0.298828H72.9232Z" fill="white"/>
<path id="Vector_34" d="M56.1786 17.3911C56.0743 15.556 56.0433 13.6978 56.1786 11.8652C56.1464 13.7029 56.1799 15.5522 56.1786 17.3911Z" fill="white"/>
<path id="Vector_35" d="M56.3075 26.1293L56.1607 26.0714C56.0319 23.2442 56.0705 20.2692 56.1787 17.3906C56.1774 20.0598 56.0924 22.761 56.1736 25.4289C56.1813 25.673 56.162 25.9146 56.3075 26.1293Z" fill="white"/>
<path id="Vector_36" d="M60.6869 10.3232C60.6933 12.9872 60.6869 15.6487 60.6624 18.3075C60.6418 20.8739 60.6071 23.4389 60.5581 26.0014L60.6302 17.1946C60.5684 14.8712 60.5336 12.5593 60.6869 10.3232Z" fill="white"/>
<path id="Vector_37" d="M79.4918 0.298828C79.4712 3.42289 79.5201 6.55595 79.4918 9.68001H79.363C77.391 9.70699 75.4101 9.64402 73.4381 9.68001C72.6678 9.69414 71.8268 9.62089 71.0707 9.69543C68.0309 9.99871 65.5129 12.6216 65.3184 15.6505L65.3235 26.1292H78.2038C80.8223 25.7308 83.9999 23.4035 83.9999 20.539V0.298828H79.4918ZM79.363 14.1778C79.3269 16.3085 79.5098 18.6384 79.363 20.7318C78.8736 21.1122 78.4279 21.6005 77.753 21.6314H69.9604C70.0506 21.6506 70.0673 21.6815 70.0158 21.7239C70.0016 21.7355 69.9836 21.747 69.9604 21.7599V21.6314C69.9604 19.7937 69.7981 17.5563 69.9553 15.7752C69.9772 15.5208 70.0055 15.4334 70.0892 15.2059C70.2412 14.7947 70.6881 14.3822 71.1196 14.3063L73.8425 14.2537L77.8174 14.1778" fill="white"/>
<path id="Vector_38" d="M70.0158 21.7244C70.0017 21.7359 69.9836 21.7475 69.9604 21.7603V21.6318C70.0506 21.6511 70.0674 21.682 70.0158 21.7244Z" fill="white"/>
<path id="Vector_39" d="M77.8179 14.1777C76.6728 14.2291 75.5252 14.2651 74.3737 14.2857C73.2917 14.3062 72.2072 14.3127 71.1201 14.3062L73.843 14.2536L77.8179 14.1777Z" fill="white"/>
<path id="Vector_40" d="M79.4921 9.68005H79.3633C79.3993 9.56825 79.4431 9.56953 79.4921 9.68005Z" fill="white"/>
<path id="Vector_41" d="M60.6868 10.3232L60.6302 17.1946C60.5683 14.8712 60.5336 12.5593 60.6868 10.3232Z" fill="white"/>
<path id="Vector_42" d="M60.6933 25.6927C60.7152 25.861 60.6573 25.9021 60.5581 26.0011L60.6302 17.1943C60.6405 17.5644 60.6508 17.9358 60.6624 18.3072C60.7346 20.7939 60.8106 23.2818 60.6933 25.6927Z" fill="white"/>
<path id="Vector_43" d="M79.4921 9.68001H79.3633L79.4741 1.63661L79.4921 0.298828C79.4715 3.42289 79.5204 6.55595 79.4921 9.68001Z" fill="white"/>
<path id="Vector_44" d="M56.3075 26.1293L56.1607 26.0714C56.0319 23.2442 56.0705 20.2692 56.1787 17.3906C56.1774 20.0598 56.0924 22.761 56.1736 25.4289C56.1813 25.673 56.162 25.9146 56.3075 26.1293Z" fill="white"/>
<path id="Vector_45" d="M56.1786 17.3911C56.0743 15.556 56.0433 13.6978 56.1786 11.8652C56.1464 13.7029 56.1799 15.5522 56.1786 17.3911Z" fill="white"/>
<path id="Vector_46" d="M70.0158 21.7244C70.0017 21.7359 69.9836 21.7475 69.9604 21.7603V21.6318C70.0506 21.6511 70.0674 21.682 70.0158 21.7244Z" fill="white"/>
<path id="Vector_47" d="M77.8176 14.1777C76.6726 14.2291 75.5249 14.2651 74.3734 14.2857C74.2756 14.2793 74.1777 14.2728 74.0798 14.2677C74.0012 14.2626 73.9213 14.2574 73.8428 14.2536L77.8176 14.1777Z" fill="white"/>
</g>
</svg>
