<svg width="126" height="19" viewBox="0 0 126 19" fill="none" xmlns="http://www.w3.org/2000/svg">
<g id="Group 1000004045">
<path id="Vector" d="M72.0588 17.8091C71.812 17.8712 71.5828 17.9306 71.3239 17.9509C70.736 17.9968 67.2435 18.0184 66.9374 17.8753C66.874 17.8456 66.665 17.6309 66.665 17.608V9.84603L62.2124 16.5254C58.732 20.3092 56.3115 15.9638 54.4735 13.2086C53.8829 12.3231 53.3085 11.0812 52.6801 10.2874C52.5938 10.1795 52.6868 10.0404 52.3713 10.116V17.608C52.3713 17.6323 52.0585 17.9455 52.0342 17.9455H47.1797C47.0314 17.9455 46.9869 17.6161 46.9707 17.4798C46.6255 14.5329 46.9667 10.0539 46.9842 6.93833C46.9909 5.64647 46.8076 4.04548 46.9721 2.75227C47.2458 0.597817 51.1145 0.402081 52.6262 1.15398C54.8875 2.27845 57.4981 8.09655 59.0286 10.4035C59.2646 10.7599 59.4305 11.1554 59.7676 10.7019C61.4532 8.42998 62.7356 5.35894 64.378 3.03305C65.7736 1.05544 67.4066 0.445278 69.8258 0.809753C70.3692 0.892097 72.0588 1.96797 72.0588 2.48904V17.8105V17.8091Z" fill="white"/>
<path id="Vector_2" d="M81.4978 11.6001V7.21287C81.4978 7.19802 81.6853 7.01038 81.7001 7.01038H90.3976V5.93046H80.4865C80.4716 5.93046 80.2842 6.11809 80.2842 6.13294V12.3425C80.2842 12.3938 80.5903 12.815 80.6213 12.815H95.7915V17.7421C95.7915 17.757 95.604 17.9446 95.5892 17.9446H77.7896C77.1005 17.9446 76.224 17.3723 75.7642 16.8674C75.1965 16.2451 74.9511 15.6147 74.8863 14.7764C74.6099 11.2248 75.0899 7.30736 74.9065 3.71796C75.0751 2.33431 75.9732 1.43797 77.18 0.864258H93.6407C94.5158 1.24628 95.6135 2.19931 95.7861 3.17125C95.9452 4.06759 95.9263 8.28604 95.7996 9.24448C95.751 9.6157 95.36 10.2934 95.1159 10.5849C94.9757 10.7537 93.9198 11.6001 93.8376 11.6001H81.4992H81.4978Z" fill="white"/>
<path id="Vector_3" d="M21.3566 0.800781V5.72794C21.3566 5.74279 21.1691 5.93043 21.1543 5.93043H5.91672C5.90189 5.93043 5.71446 6.11806 5.71446 6.13291V12.6125C5.71446 12.6273 5.90189 12.815 5.91672 12.815H15.8953C16.1839 12.815 16.1839 11.6 15.8953 11.6H8.14168V7.21284C8.14168 7.19799 8.32912 7.01035 8.34395 7.01035H19.1316C19.1721 7.01035 19.7627 7.30463 19.8611 7.35998C20.4841 7.7096 21.2743 8.79628 21.3566 9.50903C21.4928 10.6969 21.5238 14.5739 21.3485 15.7092C21.1921 16.7256 19.5389 18.0283 18.4628 17.95C13.611 17.6382 8.27922 18.3482 3.48545 17.95C1.781 17.8083 0.744035 16.8134 0.332755 15.1665C0.560645 11.5204 -0.0111021 7.42612 0.315225 3.83402C0.374557 3.17662 0.707627 2.32078 1.14992 1.83481C1.31713 1.65257 2.54423 0.802132 2.68042 0.802132H21.3566V0.800781Z" fill="white"/>
<path id="Vector_4" d="M125.499 0.962048C124.004 1.06194 122.108 0.736613 120.664 0.92965C120.389 0.966097 120.192 1.00524 120.091 1.30087C120.312 3.20559 119.646 17.1974 120.231 17.7778C120.381 17.9263 120.724 17.9331 120.935 17.9506C121.947 18.033 124.298 18.0775 125.262 17.9506C125.613 17.9047 125.815 17.7643 125.969 17.4417L126 1.80844C125.993 1.50876 125.8 1.05114 125.499 0.960699V0.962048ZM125.188 17.2689H120.603V1.61H125.188V17.2689Z" fill="white"/>
<path id="Vector_5" d="M42.8022 1.53773C41.1409 0.321464 35.9844 0.51585 34.404 1.87656C30.898 6.89416 26.7165 11.6499 23.2671 16.6837C23.1795 16.8106 22.3299 17.9431 22.9071 17.9431H28.8403L30.9978 15.2433H38.6166V17.8082C38.7488 17.765 38.9092 17.9431 38.9537 17.9431H43.943C43.9579 17.9431 44.1453 17.7555 44.1453 17.7407V3.70163C44.1453 3.21161 43.2432 1.86036 42.8022 1.53773ZM38.7515 10.3162C38.7515 10.331 38.564 10.5187 38.5492 10.5187H34.5712C34.4701 10.4336 35.147 9.63582 35.2482 9.51028C35.7768 8.86232 37.1198 7.0656 37.6673 6.66737C37.9451 6.46354 38.7515 6.16521 38.7515 6.67142V10.3162Z" fill="white"/>
<path id="Vector_6" d="M44.0161 5.04543C43.9406 3.79947 43.7774 2.54136 42.7081 1.76516C40.8971 0.453051 35.9496 0.664986 34.3679 2.28217C30.901 7.17424 26.8732 11.8341 23.4589 16.7397C23.3119 16.9503 22.7064 17.6765 23.177 17.8074H28.7057L31.0264 15.001C33.2662 15.1427 35.9618 14.7148 38.1476 14.9699C38.3297 14.9915 38.8866 15.1454 38.8866 15.3101V17.605C38.8866 17.6198 39.074 17.8074 39.0889 17.8074H43.6736C43.7828 17.8074 44.0701 17.3782 44.0175 17.2067C43.8193 13.2151 44.2562 9.01146 44.0175 5.04543H44.0161ZM38.7517 10.3155C38.7517 10.3303 38.5643 10.518 38.5495 10.518H34.5715C34.4704 10.4329 35.1473 9.63511 35.2484 9.50957C35.777 8.86162 37.1201 7.06489 37.6676 6.66667C37.9454 6.46283 38.7517 6.1645 38.7517 6.67072V10.3155Z" fill="white"/>
<path id="Vector_7" d="M117.165 6.19882C117.368 6.26766 117.608 6.03683 117.705 5.83839C117.792 5.6629 117.824 4.59108 117.812 3.47065C117.813 3.46795 117.812 3.46661 117.812 3.46526C117.81 3.20472 117.805 2.94284 117.798 2.68771C117.769 1.69553 117.707 0.828889 117.615 0.711447L117.232 0.529209C112.264 0.0175944 106.444 0.916632 101.384 0.526509C99.6319 0.971978 98.5005 2.1329 98.3481 3.96742L98.3819 17.4422C98.5356 17.7648 98.7378 17.9052 99.0884 17.9511C99.9784 18.0672 102.64 18.0523 103.548 17.9457C103.73 17.9255 104.287 17.7716 104.287 17.6055V12.0709C104.287 12.0574 104.474 11.8684 104.489 11.8684H117.299C117.471 11.8684 117.619 11.4473 117.643 11.2677C117.743 10.5239 117.716 7.36244 117.502 6.73878L117.125 6.4175C114.816 6.42155 112.539 6.41345 110.298 6.3959C112.582 6.3959 114.863 6.3905 117.14 6.3797L117.165 6.19882ZM117.097 10.856C117.097 10.8708 116.91 11.0585 116.895 11.0585H103.815C103.8 11.0585 103.613 11.2475 103.613 11.261V17.268H99.23C99.2152 17.268 99.0278 17.0804 99.0278 17.0656V3.29652C99.0278 3.25197 99.3662 2.58242 99.431 2.48522C99.8517 1.86022 100.755 1.28246 101.522 1.20416L116.825 1.27436C116.889 1.30406 117.097 1.51869 117.097 1.54164V5.38887L103.611 5.52386V7.27874H116.895C116.91 7.27874 117.097 7.46773 117.097 7.48123V10.856Z" fill="white"/>
<path id="Vector_8" d="M117.502 6.74045C117.262 6.66485 117.022 6.6122 116.767 6.60006C112.734 6.40837 108.558 6.77284 104.512 6.58251L104.287 6.20048H117.165C117.205 6.20048 117.629 5.89136 117.648 5.73342C117.734 5.02337 117.762 1.6243 117.638 1.00334C117.587 0.74821 117.405 0.679366 117.232 0.532227C117.439 0.553825 117.669 0.48633 117.753 0.753611C117.793 0.880502 117.894 1.97933 117.907 2.21961C117.919 2.44504 117.757 2.68668 117.765 2.90131C117.793 3.69506 118.137 5.35274 117.699 6.06279C117.614 6.20048 117.239 6.30308 117.234 6.40432C117.234 6.42727 117.459 6.61895 117.501 6.7418L117.502 6.74045Z" fill="white"/>
</g>
</svg>
