<svg width="130" height="30" viewBox="0 0 130 30" fill="none" xmlns="http://www.w3.org/2000/svg">
<g id="Group 1000004038">
<path id="Vector" d="M15.603 0.386719V6.98272C15.7076 7.09344 15.6635 7.13349 15.5244 7.06125L15.257 7.22222C10.3054 7.362 6.78152 11.9658 7.82563 16.7904C9.79277 25.8803 22.9802 24.5642 23.5211 15.4712L23.7003 15.1492C23.6304 15.1343 23.6335 15.1084 23.7003 15.0707H30.3841C30.4186 21.9651 25.3561 28.2038 18.593 29.5607C18.0206 29.6753 17.4262 29.6934 16.8609 29.8332H14.2664C7.36018 29.6424 1.0625 23.3652 0.821918 16.4841C0.87774 15.5395 0.74644 14.5124 0.821918 13.5787C0.792827 11.0479 1.8448 8.63487 3.30168 6.60345C5.8066 3.10914 9.90992 0.469169 14.2664 0.386719H15.603Z" fill="black"/>
<path id="Vector_2" d="M15.6029 6.98242H23.7019C23.6115 9.65459 23.8214 12.4069 23.7019 15.0704C23.7011 15.0963 23.7034 15.123 23.7019 15.1489C23.7019 15.2102 23.6854 15.3052 23.6468 15.306C20.9705 15.3468 18.1951 15.2957 15.533 15.218L15.441 15.0617L15.3687 7.15675L15.5251 7.06095L15.6037 6.98242H15.6029Z" fill="black"/>
<path id="Vector_3" d="M88.0143 18.212C89.0576 22.3918 94.7797 23.0954 96.9364 19.4001L99.961 20.9321C99.1048 22.7028 97.2721 24.2018 95.3883 24.8308C87.2249 27.5563 80.7723 17.6749 86.5189 11.3396C91.9918 5.30503 101.964 10.0494 100.988 18.0165C100.99 18.0809 100.914 18.2128 100.87 18.2128H88.015L88.0143 18.212ZM97.2131 15.2281C95.8372 11.0428 89.5498 11.0451 88.1715 15.2281H97.2131Z" fill="black"/>
<path id="Vector_4" d="M79.2087 5.49121V9.10331H83.3757V12.2835C83.3757 12.2922 83.2664 12.4013 83.2577 12.4013H79.2087V20.8426C79.2087 20.8725 79.4013 21.3224 79.4414 21.3954C80.1977 22.7453 82.1704 22.3354 83.3757 21.9027V24.4547C81.6696 25.5344 78.5199 25.6467 76.9703 24.2561C76.3987 23.7433 75.7493 22.4689 75.7493 21.7064V12.4013H73.7051V9.10331H75.7493V5.49121H79.2087Z" fill="black"/>
<path id="Vector_5" d="M49.9611 17.6612H44.8506V13.8921H54.0494C54.0856 15.8599 54.1053 17.7193 53.422 19.5866C50.0334 28.843 36.6785 27.8968 34.0588 18.664C31.3864 9.24503 41.9801 1.76798 49.9862 7.38951C50.2606 7.58189 51.8063 8.87361 51.8425 9.07384C51.8763 9.2623 49.2393 11.2309 48.8989 11.5214C44.9654 6.89716 37.1534 9.94703 37.4616 16.0507C37.8241 23.2356 48.1189 24.715 49.9618 17.6612H49.9611Z" fill="black"/>
<path id="Vector_6" d="M68.4375 10.2023V9.10297H71.8969V24.69C71.8969 24.6986 71.7876 24.8077 71.779 24.8077H68.4375V23.7084C68.1348 23.8333 67.8659 24.0618 67.5743 24.2204C60.7883 27.9134 53.0173 21.2647 55.7187 14.0288C57.6269 8.91844 63.9859 7.05114 68.4375 10.2023ZM68.4226 16.9475C68.4226 14.2534 66.2361 12.0696 63.5385 12.0696C60.841 12.0696 58.6545 14.2534 58.6545 16.9475C58.6545 19.6417 60.841 21.8254 63.5385 21.8254C66.2361 21.8254 68.4226 19.6417 68.4226 16.9475Z" fill="black"/>
<path id="Vector_7" d="M129.763 16.0916C129.808 16.5721 129.811 17.4987 129.763 17.9761C129.399 21.5702 126.172 24.6978 122.637 25.1893C114.331 26.3428 109.667 15.9062 116.124 10.5187C121.16 6.31769 129.16 9.56936 129.763 16.0916ZM126.324 16.9482C126.324 14.2549 124.138 12.0719 121.442 12.0719C118.746 12.0719 116.559 14.2557 116.559 16.9482C116.559 19.6408 118.746 21.8246 121.442 21.8246C124.138 21.8246 126.324 19.6408 126.324 16.9482Z" fill="black"/>
<path id="Vector_8" d="M111.287 10.752H107.513V24.8077H111.287V10.752Z" fill="black"/>
<path id="Vector_9" d="M111.287 5.49121H107.513V9.18183H111.287V5.49121Z" fill="black"/>
<path id="Vector_10" d="M105.626 21.1162H101.931V24.8068H105.626V21.1162Z" fill="black"/>
</g>
</svg>
