<svg width="213" height="39" viewBox="0 0 213 39" fill="none" xmlns="http://www.w3.org/2000/svg">
<g id="Group 1000004048">
<path id="Vector" d="M52.0065 0.937412C53.8284 1.14016 58.318 2.75249 59.6988 3.9738C60.7712 4.92237 60.0314 4.64479 59.4024 5.07683C58.7734 5.50888 56.1876 7.31671 55.6864 7.41809C55.0839 7.53877 52.4957 6.3947 51.3776 6.27643C41.3357 5.22166 33.9229 13.9253 36.8316 23.6234C37.3642 22.9066 39.8367 21.2942 40.0777 20.7222C40.4103 19.9281 40.1211 18.393 40.3115 17.3358C40.632 15.5618 42.0875 13.4209 43.4612 12.284C49.5846 7.21052 58.9975 11.5937 58.7566 19.5202C51.38 18.043 43.9576 20.3457 38.5089 25.4264L34.5399 30.623C28.373 22.1849 30.2334 10.0297 38.921 4.1162C40.8874 2.77662 44.6034 1.18601 46.9482 0.93258C48.158 0.802242 50.804 0.797415 52.0089 0.93258L52.0065 0.937412Z" fill="white"/>
<path id="Vector_2" d="M51.2836 38.1069C50.351 38.201 48.6015 38.201 47.6688 38.1069C45.5289 37.8896 40.7766 36.3449 39.1524 34.9305C38.9066 34.7157 38.6463 34.694 38.7524 34.2499C40.0224 33.9892 42.5021 31.5755 43.4926 31.3993C43.7649 31.351 44.965 32.0534 45.4976 32.1934C55.3515 34.8267 63.6125 27.5906 62.6052 17.4725C62.5015 16.4298 61.3641 13.8858 61.4388 13.4199C61.6003 12.4038 63.9282 9.81394 64.415 8.66504C67.89 12.9589 68.7624 19.3262 67.3044 24.588C65.3524 31.6455 58.5903 37.3659 51.2812 38.1069H51.2836Z" fill="white"/>
<path id="Vector_3" d="M52.9223 20.5609C53.7055 20.5295 58.6625 20.7202 58.7156 21.326C56.9395 29.4938 46.418 31.613 41.6489 24.7124C44.8492 22.2191 48.8448 20.7226 52.9223 20.5609Z" fill="white"/>
<path id="Vector_4" d="M0.194629 6.73145H5.25534V17.1102H14.8948V6.73145H19.7145V32.3163H14.8948V21.6961H5.25534V32.3163H0.435615C0.250056 24.0277 0.170531 15.6596 0.194629 7.21418V6.73145Z" fill="white"/>
<path id="Vector_5" d="M0.43581 32.315H0.194824V7.21289L0.43581 32.315Z" fill="white"/>
<path id="Vector_6" d="M88.7568 6.73064C96.5623 7.783 97.7745 20.1603 90.8052 23.2642L97.5528 32.3155H91.7691L85.983 24.2321L83.8166 24.109V32.3155H78.7559V6.73064C81.8718 7.03235 85.7324 6.32273 88.7568 6.73064ZM83.8166 19.523H87.7928C88.0627 19.523 89.5617 18.7169 89.8412 18.4369C91.0076 17.259 91.1064 14.5075 90.3714 13.0786C90.1111 12.5741 88.7423 11.3166 88.2748 11.3166H83.8166V19.523Z" fill="white"/>
<path id="Vector_7" d="M144.545 6.73145L132.978 27.4889H144.545V32.3163H124.062L135.87 11.5588H126.592C126.565 11.5588 126.23 11.2233 126.23 11.1967V6.73145H144.545Z" fill="white"/>
<path id="Vector_8" d="M171.536 6.73145V10.9554C171.536 10.9819 171.201 11.3174 171.174 11.3174H160.451V16.6275H169.247C169.273 16.6275 169.608 16.963 169.608 16.9895V21.2134H160.451V27.7303H171.174C171.201 27.7303 171.536 28.0658 171.536 28.0923V32.3163H155.631V6.73145H171.536Z" fill="white"/>
<path id="Vector_9" d="M112.735 6.73145H107.916V32.3163H112.735V6.73145Z" fill="white"/>
<path id="Vector_10" d="M212.021 10.1097C210.771 11.0342 211.465 8.7605 211.296 8.18122C210.751 8.36707 210.754 9.98422 210.211 10.1097C209.669 10.2352 209.431 9.01635 209.368 8.66395C208.85 8.77015 209.308 9.66802 209.016 10.117C208.71 10.59 208.166 10.1556 208.166 9.98905V6.48924C209.534 5.89789 209.756 8.355 209.975 8.42259C210.443 8.56499 210.327 8.19087 210.443 7.93744C210.824 7.11438 210.715 6.27925 212.021 6.48924V10.1097Z" fill="white"/>
<path id="Vector_11" d="M186.115 6.73145L198.044 22.4202V6.73145H203.105V32.3163H199.37L187.441 16.6275V32.3163H182.621V6.73145H186.115Z" fill="white"/>
<path id="Vector_12" d="M207.927 6.49023C208.262 7.685 207.173 7.00917 206.961 7.21192C206.766 7.39777 207.423 10.5741 206.363 10.3497C205.645 10.1976 206.18 7.38087 205.999 7.21192C205.785 7.00917 204.698 7.685 205.033 6.49023H207.927Z" fill="white"/>
</g>
</svg>
