<svg width="140" height="33" viewBox="0 0 140 33" fill="none" xmlns="http://www.w3.org/2000/svg">
<g id="Group 1000003998">
<path id="Vector" d="M128.077 6.56738C130.403 10.4773 132.869 14.3427 135.511 18.036V6.56738H139.015C139.038 6.56738 139.334 6.86259 139.334 6.88596V25.3632C139.334 25.8347 136.252 25.805 135.814 25.4843L128.29 14.2132V25.6818H124.679V6.56738H128.077Z" fill="black"/>
<path id="Vector_2" d="M43.7614 6.56738V14.4255C44.9167 13.8181 50.1392 6.56738 50.6638 6.56738H54.8053L48.8671 14.3215L55.4424 25.6818H51.5133C51.0206 25.6818 47.1234 18.1868 46.5202 17.1865C46.1677 16.9147 43.7614 19.8519 43.7614 20.0537V25.6818H40.1509V6.56738H43.7614Z" fill="black"/>
<path id="Vector_3" d="M69.4596 6.56738H73.0701V20.6908C73.0701 22.6596 70.0033 25.119 68.1959 25.5862C63.3833 26.8287 59.4564 23.8872 59.0571 18.9896C58.8277 16.1671 58.7236 10.0292 59.0422 7.3001C59.0677 7.0856 59.1399 6.56738 59.3714 6.56738H62.5572C62.7908 6.56738 62.8609 7.0856 62.8864 7.3001C63.3239 11.0232 62.417 15.7062 62.8693 19.4229C63.2049 22.169 66.499 23.5771 68.5124 21.4448C68.7396 21.2048 69.4575 19.8519 69.4575 19.6289V6.56738H69.4596Z" fill="black"/>
<path id="Vector_4" d="M92.1847 12.5138H88.6804C88.4552 12.5138 87.8096 10.1096 85.8663 9.80163C83.3984 9.41297 82.1453 11.2076 81.9797 13.4589C81.8671 14.9838 81.8077 18.1504 82.0073 19.6094C82.3938 22.4405 85.8174 23.5364 87.6227 21.4402C87.8988 21.1195 88.5232 19.7348 88.6782 19.7348H92.1825C91.745 26.1317 83.0437 27.9752 79.4396 23.0267C77.868 20.8668 77.9572 14.61 78.3989 12.0062C79.7157 4.24995 91.5029 4.7002 92.1825 12.5159L92.1847 12.5138Z" fill="black"/>
<path id="Vector_5" d="M118.743 6.56738H114.899V25.6818H118.743V6.56738Z" fill="black"/>
<path id="Vector_6" d="M101.909 6.41858C99.5286 6.61184 97.1308 8.0072 96.1814 10.2457C95.3446 12.2272 95.3807 17.3818 95.574 19.6373C96.2727 27.729 108.871 28.449 109.598 18.7771C110.022 13.1065 109.481 5.80054 101.909 6.41858ZM105.726 19.7902C105.148 23.2435 100.323 23.3986 99.4564 20.2149C99.0273 18.6412 99.0082 13.5929 99.4606 12.0382C100.136 9.73386 103.205 8.92894 104.853 10.6768C105.055 10.8914 105.352 11.3904 105.454 11.6687C105.928 12.9451 105.968 18.3502 105.726 19.7902Z" fill="black"/>
<path id="Vector_7" d="M5.53256 20.1598V26.8498C5.53256 26.9284 5.16514 27.9478 5.08018 28.0965C3.83138 30.2989 0.743332 29.8147 0.0594603 27.4381L0 5.38856C0.127429 2.66156 3.70607 1.72708 5.08018 4.15249C5.16514 4.30116 5.53256 5.32272 5.53256 5.39918V12.0892L17.1053 0.618448C18.369 -0.267187 19.4054 -0.17374 20.616 0.72039C21.9795 1.72921 27.6777 7.4338 28.6801 8.79729C30.6871 11.5328 27.6416 14.7695 24.853 12.6244C22.9373 11.1505 21.1384 8.57854 19.2397 6.9793L18.6366 6.80302L9.37031 16.048L18.6238 25.4481C19.4988 25.5989 24.1075 19.8624 25.4838 19.1934C28.0833 17.9297 30.4726 21.0454 28.7736 23.3327L20.1253 31.8875C18.9806 32.3739 18.1396 32.359 17.1053 31.6327L5.53256 20.1619V20.1598Z" fill="black"/>
<path id="Vector_8" d="M18.7893 18.856C20.2942 18.856 21.5142 17.636 21.5142 16.1311C21.5142 14.6262 20.2942 13.4062 18.7893 13.4062C17.2844 13.4062 16.0645 14.6262 16.0645 16.1311C16.0645 17.636 17.2844 18.856 18.7893 18.856Z" fill="black"/>
</g>
</svg>
