<svg width="109" height="24" viewBox="0 0 109 24" fill="none" xmlns="http://www.w3.org/2000/svg">
<g id="Group 1000004039">
<path id="Vector" d="M108.595 23.765C106.784 23.6356 104.744 23.9367 102.96 23.7699C102.153 23.6937 101.966 23.4107 101.454 22.8557C99.2301 20.4408 97.2517 17.0816 94.9767 14.8143C94.8654 14.7043 94.4767 14.333 94.369 14.333H92.6134V23.765H88.0731C87.7667 23.765 86.9229 23.0552 86.9229 22.7372V0.547852H91.5842C91.8518 0.547852 92.6134 1.30725 92.6134 1.57569V9.73798C93.4016 9.71984 94.2733 9.88671 94.9198 9.32079L101.629 1.02671C101.733 0.916668 102.285 0.547852 102.36 0.547852H108.474L99.9444 11.0742C99.643 11.5724 99.5122 12.1347 99.7871 12.6728L108.596 23.5244V23.7662L108.595 23.765Z" fill="black"/>
<path id="Vector_2" d="M78.5682 14.0909V1.45448C78.5682 1.29244 79.3128 0.547561 79.4763 0.547561H84.2587V22.616C84.2587 22.8155 83.7841 23.4128 83.5952 23.5253C83.048 23.8542 80.0998 23.8494 79.3552 23.7647C78.9593 23.72 78.6445 23.5773 78.3345 23.333L70.6983 10.1005V22.616C70.6983 23.0005 69.9331 23.7647 69.5481 23.7647H65.0078V1.45448C65.0078 1.07237 65.8965 0.589882 66.2767 0.54514C66.991 0.459285 69.4718 0.442358 70.1474 0.554816C70.4562 0.605604 70.6826 0.818426 70.9284 0.98409C72.9794 4.33849 74.8076 7.82469 76.7751 11.2275C77.3344 12.1936 77.895 13.2009 78.5682 14.0921V14.0909Z" fill="black"/>
<path id="Vector_3" d="M33.5284 24.0073H21.7841C21.2454 23.647 20.7126 23.358 20.6945 22.6167C20.7308 15.5029 20.6206 8.37446 20.7502 1.26904C20.9911 0.724891 21.4597 0.305289 22.0808 0.300452C25.7033 0.526577 29.6455 0.0199121 33.2306 0.301662C37.7321 0.655966 39.4417 5.20266 38.9635 9.17981C38.7722 10.7699 37.0541 11.1182 37.1619 12.2053C37.2369 12.9659 38.9731 13.4701 39.1911 14.5415C39.3654 15.3989 39.2758 18.561 39.0397 19.4135C38.4513 21.5296 36.502 23.3169 34.3832 23.8308L33.5284 24.0061V24.0073ZM28.8985 3.24008C27.4626 3.43235 26.3329 4.83747 26.517 6.28128C26.6441 7.27769 27.5994 8.24749 28.0231 9.13022C28.9348 11.0311 28.9542 13.1787 28.0449 15.0845C27.3136 16.6166 25.8971 17.5283 26.764 19.457C28.1382 22.5164 33.2826 20.8186 31.7716 17.116C30.935 15.0663 29.7884 14.5367 29.8913 11.8474C29.9821 9.4809 31.1759 8.77229 31.8552 6.91734C32.5913 4.90518 31.0028 2.95954 28.8997 3.24008H28.8985Z" fill="black"/>
<path id="Vector_4" d="M0.596191 0.547974C2.02851 0.697918 3.86885 0.342405 5.25031 0.555229C5.77456 0.636247 6.18622 1.01836 6.35088 1.51172L6.46227 17.725C6.57608 17.9971 6.74559 18.2196 7.06765 18.2087C10.1321 18.4482 13.7473 17.8617 16.7464 18.216C17.3723 18.2898 18.2731 18.7589 18.2731 19.4724V23.7651H1.62533C1.41829 23.7651 0.810494 23.1738 0.596191 23.0396V0.547974Z" fill="black"/>
<path id="Vector_5" d="M63.192 23.7659H58.0463C57.9797 23.7659 57.4252 23.4636 57.3356 23.3874C56.6745 22.8142 56.1963 20.1491 55.8197 19.2409L48.0128 19.1877C47.5879 19.3304 47.089 22.7296 46.3033 23.4055C46.2282 23.4696 45.7318 23.7659 45.6955 23.7659H40.4287L47.4801 1.48464C47.7719 0.818358 47.9426 0.493078 48.7163 0.421734C50.7479 0.235513 53.0677 0.565629 55.132 0.433823C55.5558 0.500331 55.8331 0.860683 56.0982 1.16178L63.1351 23.2761L63.1896 23.7646L63.192 23.7659ZM54.4746 15.3013L51.9308 6.9576L49.1473 15.3013H54.4746Z" fill="black"/>
</g>
</svg>
