<svg width="168" height="53" viewBox="0 0 168 53" fill="none" xmlns="http://www.w3.org/2000/svg">
<g id="Group 1000004001">
<path id="Vector" d="M112.088 45.6331C112.296 45.6673 112.25 45.3773 112.29 45.2227C112.989 42.446 113.274 39.5297 114.133 36.8063L116.399 36.8775C117.145 39.542 117.418 42.5582 118.225 45.179C118.293 45.4006 118.113 45.5661 118.515 45.4977L119.359 32.8683C119.489 32.4757 120.617 32.6371 120.985 32.7L120.019 48.0296L119.891 48.3113C119.339 48.336 117.426 48.5794 117.169 48.1445L115.165 39.0729L113.198 48.2922L110.506 48.243L109.412 32.7684C109.553 32.566 110.998 32.5099 111.109 32.8655L112.088 45.6345V45.6331Z" fill="white"/>
<path id="Vector_2" d="M66.8192 32.6385L71.9472 45.2241L72.1469 32.8669C72.2208 32.5496 73.5134 32.6494 73.7938 32.6385V48.232H71.2633L65.8617 35.3742V48.232H64.0835V32.8436L64.2887 32.6385H66.8192Z" fill="white"/>
<path id="Vector_3" d="M97.3841 6.10168L102.652 18.8214C102.79 18.8802 102.924 18.5026 102.924 18.4808V6.30686C103.122 5.98815 104.363 6.02372 104.505 6.23026C104.713 11.372 104.654 16.5411 104.565 21.6952H102.035L96.6332 8.56382V21.6952H94.855V6.30686L95.0602 6.10168H97.3855H97.3841Z" fill="white"/>
<path id="Vector_4" d="M74.068 21.6962H72.4266V9.11191C72.0901 9.02847 71.9342 9.67547 71.8152 9.93673C70.7934 12.1923 70.0397 14.6011 69.1424 16.9073C69.0548 16.9757 68.8305 16.6406 68.7689 16.5311C67.5912 14.4698 67.0386 11.3634 65.8937 9.28563C65.8062 9.12696 65.9033 9.05446 65.5887 9.11054V21.6948H63.9473V6.23805H66.4094L69.0767 12.9378L71.7618 6.2572C72.3787 6.34885 73.2158 6.11358 73.7602 6.12862C73.9285 6.13273 73.9709 6.1806 74.0694 6.30781V21.6962H74.068Z" fill="white"/>
<path id="Vector_5" d="M147.643 41.7339C147.605 41.4275 147.689 41.5779 147.845 41.5287C149.878 40.8858 150.881 40.4221 151.068 38.0475C151.281 35.3501 150.593 33.0945 147.576 32.7758C145.646 32.572 143.389 32.9276 141.42 32.7758L141.208 33.2477L141.353 48.3679H143.13V41.872L143.335 41.6668H145.524L149.216 48.2325H151.336L147.643 41.7339ZM143.13 40.0254V34.4172H147.439C147.96 34.4172 148.853 35.0054 149.08 35.5101C149.355 36.1229 149.391 38.0065 149.22 38.6617C149.087 39.1691 148.216 40.0254 147.713 40.0254H143.13Z" fill="white"/>
<path id="Vector_6" d="M158.448 32.7754V40.5722L164.944 32.7754H167.064L162.143 39.2727C163.309 41.4011 164.676 43.4228 165.858 45.5416C166.353 46.4293 166.971 47.4018 167.202 48.3689H165.082L160.704 41.1193C160.364 41.04 158.812 43.3489 158.511 43.7114L158.39 48.2417C158.254 48.4387 156.765 48.4961 156.536 48.1651V32.7768H158.451L158.448 32.7754Z" fill="white"/>
<path id="Vector_7" d="M129.835 32.4037C127.883 32.6321 126.167 34.0383 125.519 35.8849C124.939 37.5386 124.991 42.3207 125.277 44.1358C126.17 49.8206 135.309 50.101 135.881 43.1003C136.242 38.6753 136.201 31.6569 129.835 32.4037ZM133.873 44.2384C132.993 46.9303 129.249 47.5253 127.617 45.215C126.772 44.0182 126.809 41.0403 126.85 39.5412C126.912 37.3266 127.126 34.6114 129.829 34.1765C131.982 33.8304 133.837 35.2105 134.09 37.3731C134.243 38.6849 134.249 43.088 133.873 44.2384Z" fill="white"/>
<path id="Vector_8" d="M89.2483 32.7754V34.4168H81.7949L81.5897 34.622V39.4095L81.7949 39.6147H88.9747V41.2561H81.5897V46.5907H89.2483C89.1703 47.1584 89.4535 47.9339 89.0431 48.3689H80.0167L79.8115 48.1637V32.7754H89.2483Z" fill="white"/>
<path id="Vector_9" d="M85.7053 6.32394L83.4291 6.09277L83.2158 6.18716L78.4434 21.6945C78.8865 21.6206 80.1778 21.8614 80.4281 21.5618C80.6702 21.2732 81.1995 18.6538 81.4143 18.0328C81.4772 17.8495 81.5662 17.4788 81.7235 17.3844L87.0745 17.3994L88.2905 21.6959H90.3409L85.7053 6.32394ZM82.1352 15.5405L84.2567 8.15276C84.5303 8.07479 84.6028 8.64656 84.6657 8.83805C85.3948 11.0184 85.9487 13.3096 86.5123 15.5405H82.1352Z" fill="white"/>
<path id="Vector_10" d="M131.624 6.12109L129.303 6.18401L124.722 21.6859C124.644 22.1304 126.498 22.0429 126.654 21.835L127.827 17.1952L133.163 17.2623L134.578 21.8364L136.429 21.969L131.624 6.12109ZM128.36 15.5401L130.413 8.15372L130.754 8.56408L132.737 15.5401H128.36Z" fill="white"/>
<path id="Vector_11" d="M116.052 7.88172V21.9706C115.445 21.8858 114.612 22.184 114.137 21.7654V7.88172H109.283C108.959 7.67381 109.004 6.30459 109.206 6.1637L120.908 6.10352L121.19 6.23209C121.319 6.41812 121.349 7.69296 121.045 7.88172H116.054H116.052Z" fill="white"/>
<path id="Vector_12" d="M105.795 32.7754V34.4168H100.735V48.1637C100.315 48.4975 99.2253 48.4934 98.8204 48.1637V34.4168H93.7607V32.7754H105.795Z" fill="white"/>
<path id="Vector_13" d="M53.1435 25.1143C50.1972 25.1006 47.01 25.0472 44.1403 24.3387C37.219 22.6316 34.538 14.7049 26.5483 14.1673C22.9153 13.9225 17.2333 15.3929 14.1652 17.3859C14.1091 17.4228 13.9846 17.5569 14.0298 17.5911C16.1253 18.0438 18.3549 18.5978 20.2248 19.6702C21.5078 20.4075 23.1561 21.6974 23.4666 23.1993C18.4192 23.983 13.9545 27.0593 10.3393 30.5187C10.472 30.7307 10.6101 30.6978 10.8126 30.7266C16.6246 31.5404 29.072 33.6606 25.636 42.538C23.3325 48.4909 16.0994 48.1722 11.7769 44.535C-1.59657 33.2858 1.56448 11.6833 17.6299 4.84815C28.0776 0.402628 42.2061 4.30511 49.096 13.2276C49.6021 13.8815 49.9359 14.6885 50.5432 15.2671C47.099 7.47032 39.4117 1.85802 31.0158 0.533942C30.1896 0.403996 29.3319 0.424513 28.5263 0.220703H25.1066C12.4403 1.07014 1.54539 11.5944 0.626193 24.2949C0.530443 25.6245 0.697321 27.0566 0.626193 28.3985L1.24032 32.2298C4.51907 46.7906 19.0895 55.7104 33.6434 51.9146C45.5424 48.8123 53.8193 37.4277 53.1435 25.1143ZM21.8252 17.3202C24.9548 16.5419 27.8013 16.7211 30.6177 18.3037C33.9922 20.1996 36.1739 23.5152 39.5115 25.4125C41.789 26.7064 44.3907 27.3124 46.9882 27.5791C47.0197 27.7747 46.7502 27.7652 46.6066 27.8103C41.5811 29.3888 37.7087 26.3221 33.3097 24.6396C31.0773 23.7847 28.7424 23.1938 26.3446 23.057C26.1544 21.2186 24.8919 19.8084 23.6047 18.617L21.8252 17.3202ZM31.697 49.5564C28.9366 50.1131 25.1846 50.2718 22.4407 49.6002C22.2588 49.5551 22.0864 49.5975 21.962 49.3937C29.2266 46.9452 31.5027 37.6944 25.3077 32.6429C22.8702 30.6541 20.0552 29.8142 17.1006 28.9497C16.9023 28.8909 16.8612 29.0277 16.9022 28.6748C19.0238 27.5477 21.1535 26.3508 23.5705 25.9733C31.6477 24.7135 37.1766 31.524 44.7381 31.0029C46.6325 30.8729 48.393 30.1835 50.1329 29.4928C49.1425 39.3057 41.3034 47.6237 31.697 49.5564Z" fill="white"/>
</g>
</svg>
