<svg width="95" height="33" viewBox="0 0 95 33" fill="none" xmlns="http://www.w3.org/2000/svg">
<g id="Group 1000004049">
<path id="Vector" d="M20.9598 21.4271C20.5876 21.2964 20.6994 21.0452 20.9746 20.8337C21.3115 20.5737 25.0488 20.4767 25.3813 20.7411C25.8419 21.3904 26.223 22.0866 26.5231 22.8299C28.2182 21.054 29.1584 20.2784 31.6965 20.678L33.1002 20.5884L33.3194 20.8395C33.2929 21.0187 33.3592 21.2685 33.3194 21.4271C33.0296 22.5978 32.2821 24.4706 31.848 25.6869C31.7421 26.8121 31.2021 28.1987 30.7004 29.2181C30.7651 29.8747 30.3943 30.5078 29.9353 30.9749C29.8764 31.586 29.0245 31.5728 28.5374 31.5713C27.7973 31.5684 26.454 31.5037 25.7345 31.4229C25.4019 31.3862 25.2239 31.373 25.2268 30.9749C25.452 30.5533 26.7144 27.6449 26.5496 27.4496L24.7104 28.9141L23.9026 27.0074C24.1292 26.9061 24.3734 27.1014 24.6383 27.595C25.2504 27.1675 25.9257 26.6813 26.5732 26.1951L27.1396 26.1261C27.5766 25.7647 27.8739 25.587 27.5811 26.273C27.9386 26.4639 27.8856 27.1352 27.4339 27.1543C27.8238 27.4172 27.4413 28.3294 26.9925 28.3294C27.378 28.657 26.9734 29.2798 26.6408 29.4899L26.4039 29.9452C26.5261 30.0892 26.6202 30.2375 26.5334 30.3991C26.6467 30.5724 29.051 30.734 29.1996 30.239C28.8862 29.9129 29.3379 28.9096 29.7881 28.917C29.5468 28.3808 29.7925 27.3658 30.3767 27.1543L30.1618 26.8958C30.8843 25.2168 31.5023 23.5026 32.0173 21.7532L32.2909 21.5725C31.2551 21.4359 30.2251 21.4359 29.201 21.5725C29.254 21.6724 29.3276 21.8163 29.2702 21.8869C28.8214 22.4436 26.6261 24.5294 26.0023 24.3047C25.4093 23.5893 24.8928 22.7858 24.4544 21.8927C24.3308 21.8193 21.7367 21.6783 21.7323 22.304L21.4027 22.307L21.2468 22.4964C20.8627 23.1295 20.62 23.2632 20.5199 22.8945C20.2654 22.354 20.4125 21.8634 20.9613 21.4256L20.9598 21.4271Z" fill="white"/>
<path id="Vector_2" d="M21.4013 22.3089L21.494 22.8553L20.2154 26.9051L19.6357 27.7438C19.9667 28.1595 19.5871 28.7236 19.1942 28.9189C19.6224 29.2509 19.2428 29.6049 18.9 29.8003C19.1001 29.9354 19.1192 30.0676 18.9338 30.1998C19.8475 30.2909 20.8172 30.3056 21.6956 30.0941C21.4749 29.6828 21.4543 29.2832 21.9899 29.2127C21.8633 28.7236 22.0134 28.3211 22.4313 28.0376C22.1458 27.6146 22.9198 25.3084 23.2964 25.2335C23.8776 25.1174 25.0989 27.0505 24.6369 27.5969C24.1631 27.406 24.2131 27.2047 23.9012 27.0094C23.8276 26.9638 23.7393 26.9359 23.6805 26.8669C23.4068 26.911 22.6314 29.9134 22.4298 30.3878C22.8639 31.3074 21.3675 32.0903 20.8113 31.2692C19.7195 31.3147 18.641 31.2662 17.5743 31.1223C17.5581 31.1061 17.458 31.1311 17.4565 31.0562C17.664 30.689 17.7067 30.1499 17.8685 29.8003C17.7876 29.2524 17.8847 28.7265 18.335 28.3872C18.7043 27.0476 19.1839 25.5361 19.7489 24.2361C19.8004 24.1171 19.9285 24.0305 20.0785 23.9541C19.9564 23.5134 20.1639 23.1785 20.5155 22.8965C21.0791 22.9802 20.6847 22.1062 21.3984 22.3089H21.4013Z" fill="white"/>
<path id="Vector_3" d="M29.1997 21.5741C30.2253 21.4375 31.2552 21.4375 32.2896 21.5741C32.5559 21.8415 30.6343 26.4729 30.3768 27.1559H30.0325C29.5087 27.648 29.0629 27.6921 28.695 27.2881C28.2683 27.5658 27.3502 27.8742 27.434 27.1559C27.4944 26.9753 27.4649 26.6345 27.5812 26.2746C27.6739 25.8545 27.412 25.9044 27.1398 26.1277C26.5703 26.5816 25.9362 27.0326 25.3403 27.4571C25.0578 27.6583 25.3741 27.8933 24.6384 27.5966C24.4266 26.9371 24.1087 26.2496 23.6511 25.7267C23.5879 25.6547 23.5452 25.3184 23.3157 25.5402C23.22 25.6327 22.5697 27.6759 22.4314 28.0373C22.1856 27.9021 21.9693 27.8507 21.7795 27.8816C21.347 28.9671 20.6937 28.4104 20.0816 27.8684C20.2993 27.4203 20.267 27.3836 19.9859 27.7611L19.6357 27.7435C20.2258 26.0234 20.6848 23.9567 21.4014 22.3086C21.9311 21.0909 23.4157 21.7063 24.5398 21.5991C25.0946 21.865 25.686 24.0713 26.1525 24.0492C26.3232 24.0404 26.616 23.8788 26.7719 23.7789C27.2281 23.4896 29.0437 21.6314 29.1982 21.5756L29.1997 21.5741Z" fill="white"/>
<path id="Vector_4" d="M27.4336 27.1552C27.9162 27.6046 28.7564 26.857 28.8329 26.8643C28.9624 26.8775 29.005 27.2727 29.1301 27.3079C29.4773 27.4049 30.007 26.4016 30.3764 27.1552C30.166 27.7119 30.0173 28.3244 29.7878 28.9178C29.6127 29.0912 29.4832 29.0941 29.3817 28.8826C28.9697 29.451 28.2443 29.5994 28.2958 28.7313C27.6337 28.7944 27.1982 28.6608 26.9922 28.3303C27.132 27.916 27.3232 27.4871 27.4336 27.1552Z" fill="white"/>
<path id="Vector_5" d="M26.9919 28.3306L28.9032 28.4789C28.8738 28.6493 28.3544 28.7521 28.6104 29.0635C28.7575 29.2428 29.1533 28.6038 29.3476 28.5465C29.583 28.4775 29.6345 28.8212 29.786 28.9167C29.5874 29.4293 29.4403 29.7495 29.1975 30.2387C29.0356 30.3532 28.8399 30.3356 28.6104 30.1858C27.963 30.3474 27.4083 29.8714 28.2161 29.7201C28.2867 29.6746 27.1684 30.6147 26.9801 29.7201C26.8153 29.8876 26.6755 30.0066 26.4019 29.9449C26.4725 29.3691 26.8153 28.8462 26.9904 28.3291L26.9919 28.3306Z" fill="white"/>
<path id="Vector_6" d="M26.4032 29.9463C26.7887 29.3382 27.1609 29.206 27.4346 29.9463H27.5773C27.5096 29.491 27.9731 29.6687 28.3145 29.6555V29.7994L27.8745 29.9463C28.494 29.914 28.7441 29.7392 29.1973 30.2416C29.1326 30.3723 29.2885 30.6999 28.9575 30.81C28.004 30.8438 27.0388 30.8982 26.1074 30.6808C26.2295 30.459 26.2766 30.1461 26.4017 29.9478L26.4032 29.9463Z" fill="white"/>
<path id="Vector_7" d="M32.2891 21.5746C31.5652 21.7259 29.7672 21.3704 29.1992 21.5746C30.0953 21.3293 31.393 21.3293 32.2891 21.5746Z" fill="white"/>
<path id="Vector_8" d="M27.1392 26.1268C27.3452 25.9623 27.4893 25.4511 27.8734 25.5407C27.9484 25.8404 27.6453 26.071 27.5806 26.2737C27.6306 25.7904 27.4996 26.0622 27.1392 26.1268Z" fill="white"/>
<path id="Vector_9" d="M19.6353 27.7427C19.9561 27.2521 20.4902 26.8746 20.8124 27.5943L20.2254 27.8132L21.0332 28.035C20.9846 28.9927 21.4378 27.6884 21.6408 27.6149C22.147 27.4298 22.2779 27.6223 22.431 28.0365C22.2809 28.4257 22.1352 28.8209 21.9895 29.2116C21.7247 29.4643 21.6232 29.288 21.5761 28.9516C21.1729 29.4922 20.4902 29.5348 19.5294 29.0779C19.2646 29.2366 19.0998 29.2189 19.1954 28.9178C19.3514 28.5344 19.3837 28.1305 19.6368 27.7427H19.6353Z" fill="white"/>
<path id="Vector_10" d="M19.1947 28.9189L19.3403 29.0011C19.3536 28.8763 19.2756 28.7764 19.4168 28.769C19.7347 28.7543 21.0089 29.3478 21.2281 29.0276C21.3649 28.8278 21.0236 28.3754 21.9079 28.772C22.0624 28.841 21.7387 29.1495 21.9903 29.2126C21.877 29.5167 21.7946 29.8325 21.696 30.094C21.4724 30.0925 21.2311 30.0426 20.9721 29.9456C20.1143 30.2556 19.6302 30.2438 18.9004 29.8002C19.0196 29.4036 19.0343 29.314 19.1947 28.9189Z" fill="white"/>
<path id="Vector_11" d="M18.9003 29.7997C19.4594 29.4252 19.6507 29.9305 19.6978 29.9305C20.4261 29.9246 21.1898 29.2063 21.6959 30.0935C21.6474 30.2242 21.5723 30.5107 21.4502 30.54C20.9735 30.4504 18.6972 30.7383 18.606 30.3109C18.553 30.0656 18.8723 29.8923 18.9003 29.7997Z" fill="white"/>
<path id="Vector_12" d="M65.978 19.078C66.4871 18.5462 67.4685 18.3347 68.1865 18.37C68.5765 18.3891 69.3813 18.4801 68.8016 18.8694C68.1586 18.7504 67.6583 18.8194 67.3022 19.0765L67.1831 19.4158C66.4444 19.7772 65.8956 20.397 65.5366 21.2798L65.6778 21.4238C65.1908 22.3521 65.0555 23.2408 65.2717 24.0913C67.0786 24.2074 68.9046 24.3072 70.7482 24.391C71.4486 24.6583 71.0616 25.9274 70.3921 25.9803L70.2862 26.2726L63.9519 26.1199C63.7209 26.5693 63.4649 27.0115 63.1824 27.4492L63.3001 27.6269C65.9854 27.7195 68.6721 27.768 71.3618 27.7738C71.8341 27.6167 72.1975 27.6064 72.4506 27.743C72.6419 27.2612 72.9156 26.8161 73.2702 26.4048L73.4806 26.421C73.4556 25.8716 73.5968 25.3281 73.9043 24.7905C74.1412 24.1324 74.4782 23.0469 73.5056 22.9L68.3528 22.5783C67.6407 22.0069 68.65 20.3016 69.3622 21.1315C70.295 21.2226 71.2382 21.2123 72.1725 21.1241L72.3049 21.2784C72.5816 20.9596 73.023 20.9596 73.6292 21.2784C74.0132 21.2637 74.4267 21.2226 74.8695 21.1594C75.4625 21.5163 75.976 19.6171 75.9231 19.5216C75.0726 19.6611 74.6503 19.5128 74.6591 19.075C74.7754 18.7739 75.1138 18.6755 75.6729 18.7798C75.9466 18.4522 77.4415 18.4787 77.1605 19.075C77.0796 19.5465 76.8839 20.256 76.7191 20.6908C77.0133 20.9596 76.9663 21.0301 76.5719 20.9846C75.8848 22.6121 75.9304 21.9203 74.2177 22.0143C75.0152 22.7003 75.4081 22.9397 75.2124 24.1089C75.1476 24.4923 74.2751 26.847 74.0779 27.2347C73.6895 28.0015 72.6419 28.6787 71.79 28.7697C69.1253 29.0576 65.2894 28.7154 62.5144 28.6229C62.2319 28.614 61.9244 28.7727 62.0068 28.3291C62.1318 27.9193 63.0426 25.2606 63.1765 25.1577C63.3325 25.0358 64.7332 25.3942 65.0967 25.2444C65.0922 24.7817 64.6111 24.9726 64.2933 24.5041C64.1108 24.2353 64.0917 23.8049 64.0667 23.7755C63.8901 23.4391 63.9387 23.0484 64.2138 22.6004C64.2447 22.4271 64.3257 22.2993 64.361 22.1597L64.9495 20.6908C65.2099 19.9872 65.2732 19.5289 65.9795 19.075L65.978 19.078Z" fill="white"/>
<path id="Vector_13" d="M77.3076 19.0769H77.1605C77.2561 18.5701 76.2909 18.8404 75.9128 18.6333L76.2777 19.0754H74.6606L74.075 19.3413C71.8577 19.3545 69.6741 19.3486 67.5259 19.3266L67.3037 19.0769C67.1213 18.8154 67.0683 18.7611 67.4406 18.7243C67.8481 18.6832 68.3352 18.7611 68.7736 18.6347C68.6898 18.3836 67.8629 18.4585 67.6628 18.482C67.189 18.5363 66.3665 18.8286 65.978 19.0769V18.93C67.1846 17.8195 69.5226 18.4761 71.0484 18.4952C73.0112 18.5216 74.977 18.4629 76.9398 18.4878C77.3503 18.5246 77.2767 18.7743 77.3076 19.0754V19.0769Z" fill="white"/>
<path id="Vector_14" d="M65.5367 21.2807L66.0576 20.3921C66.2106 20.3406 66.3651 20.4244 66.4858 20.5272C66.6094 19.6723 67.2612 19.5283 68.4412 20.0983L69.405 19.9485C70.435 19.7061 70.894 19.9323 70.7822 20.6256C71.6665 20.3421 72.6597 20.0336 73.3556 20.8239C74.4665 20.4067 74.9506 21.6156 73.6278 21.2793C73.1894 21.2954 72.7436 21.2763 72.3036 21.2793C72.0476 21.2235 71.9343 21.1735 72.1594 21.125C71.2383 21.2161 70.2908 21.222 69.3609 21.1324C68.4618 21.197 68.5487 21.4864 68.3309 22.306L73.5455 22.6086C75.3479 22.8892 73.9825 25.4069 73.4807 26.4189C73.0099 26.6114 72.617 26.5776 72.2977 26.3161C71.9814 26.4263 71.7165 26.3102 71.4576 26.1237C71.1706 26.7818 70.2643 26.723 70.3908 25.9783C70.5939 25.5479 70.9043 25.1645 70.8322 24.6563C70.1039 24.7752 69.3888 24.5358 68.7046 24.502C67.9763 24.4668 65.5765 24.6695 65.1571 24.3713C64.3699 23.8131 65.1115 21.9256 65.5353 21.2763L65.5367 21.2807Z" fill="white"/>
<path id="Vector_15" d="M74.6592 19.0772C74.6798 19.0772 74.8269 19.2138 75.0152 19.23C75.4287 19.2652 75.8613 19.1947 76.2777 19.2256C76.3586 19.2975 75.6832 21.1968 75.62 21.285C75.4566 21.5082 73.9426 21.5303 73.6307 21.282C73.8264 21.2747 74.0235 21.2894 74.2192 21.282C74.0544 20.7459 73.5851 21.1865 73.2908 21.116C73.1333 21.0778 73.0068 20.8178 72.7832 20.7341C71.7708 20.3566 71.3618 20.9515 70.3951 20.9897C70.3112 20.8737 70.8601 20.1377 70.1729 20.1113C69.9257 20.101 70.2745 20.8252 69.6579 20.5476L69.8066 20.2567C69.3328 20.1642 68.8781 20.4168 68.4293 20.3933C68.0453 20.3742 67.161 19.8234 66.8873 20.1348C66.6637 20.3889 66.983 21.683 66.1281 20.549C66.1796 20.9427 65.6352 21.1337 65.5381 21.2835C65.8088 20.1098 66.0913 19.3871 67.3037 19.0801C68.1836 18.8569 68.266 19.0816 68.9899 19.086C70.8233 19.0963 72.8655 18.9612 74.6606 19.0801L74.6592 19.0772Z" fill="white"/>
<path id="Vector_16" d="M70.3924 25.9804C71.103 26.7031 71.106 25.9892 71.2943 25.854C71.5018 25.7072 71.7637 26.0215 71.9667 26.0714C72.08 26.0993 72.2345 26.0083 72.3493 26.0362C72.5082 26.0744 72.8952 26.4078 73.0409 26.2741C73.0821 26.236 73.035 25.1034 73.4823 26.421C73.1865 27.0189 73.1129 27.3538 72.4523 27.743C71.8902 27.5418 71.2737 27.4845 70.6042 27.5726L70.3924 27.3024C69.72 27.1819 69.0313 27.2128 68.3251 27.392L66.7139 27.1555C66.6771 27.2774 66.6271 27.2745 66.5668 27.1555C65.9267 27.2275 65.169 27.2069 64.5142 26.9689C64.2052 27.0967 63.8595 27.2069 63.4769 27.3024C63.6211 27.6593 63.474 27.7004 63.1826 27.4493C63.2856 27.1129 63.5902 25.9466 63.8639 25.8526L70.3909 25.9804H70.3924Z" fill="white"/>
<path id="Vector_17" d="M63.4767 27.3032C63.5621 26.9918 63.8004 26.9331 64.1918 27.1284L64.2713 26.9434C65.0437 27.1343 65.8089 27.2063 66.5681 27.1564C66.571 27.1505 66.6784 27.1475 66.7152 27.1564C67.292 27.2445 67.8761 27.3223 68.4676 27.3914C68.5177 27.2724 68.5692 27.1799 68.6207 27.1784C69.1945 27.1696 69.8934 27.1784 70.3937 27.3032C70.76 27.2342 71.9636 27.2665 72.38 27.3003C72.7964 27.3341 72.4198 27.4971 72.4536 27.7439C72.1843 27.9026 71.971 28.0054 71.6473 28.0421C68.9208 28.3491 65.7971 27.7542 63.0368 27.8908C62.9353 27.644 63.156 27.5397 63.1825 27.4501C63.2781 27.4178 63.3884 27.3194 63.4767 27.3032Z" fill="white"/>
<path id="Vector_18" d="M69.3618 21.1344C70.1887 21.0742 70.9642 21.108 71.8337 21.0287C72.1162 21.0037 72.3752 20.8172 72.3046 21.2813C71.3658 21.2872 70.2461 21.4003 69.3618 21.1344Z" fill="white"/>
<path id="Vector_19" d="M63.4771 27.3035C63.5418 27.1478 63.5477 26.7717 63.6992 26.7144C64.0259 26.5925 63.7919 27.1683 64.2113 27.0082L64.0656 26.4221C64.6733 26.381 64.5835 26.926 65.2721 27.0538C65.8327 27.158 66.3124 26.5808 66.5655 27.1551C66.5375 27.2036 66.642 27.4254 66.4728 27.4606C66.2079 27.5165 65.615 27.2594 65.2633 27.2388C64.8351 27.2139 63.8905 27.2271 63.4756 27.3035H63.4771Z" fill="white"/>
<path id="Vector_20" d="M66.7134 27.1567C66.9738 26.8409 68.3952 27.4314 68.4776 27.3051C68.5188 27.2419 68.4511 26.9819 68.479 26.8629C68.7718 26.8012 68.8366 27.1229 69.1088 27.1244C69.3663 27.1273 69.9386 26.7777 70.0976 26.8644C69.7989 27.3021 70.1652 27.0789 70.3904 27.3036C69.587 27.4549 68.479 27.5239 67.5388 27.4329C67.1783 27.3976 66.9282 27.2081 66.7119 27.1567H66.7134Z" fill="white"/>
<path id="Vector_21" d="M60.8309 22.1629C60.7574 22.088 60.188 21.7501 60.0953 21.7222C59.8716 21.6546 59.2595 21.5885 58.9976 21.5694C56.3197 21.3756 53.3975 21.7119 50.6946 21.593L47.0015 31.6329L47.3693 31.8576C48.7774 31.7533 50.162 32.2043 51.5642 31.934C51.9262 31.0291 52.3323 30.1228 52.6663 29.2092C52.8267 28.7656 52.7148 28.2515 53.6241 28.6965C53.9537 28.8581 54.9057 31.4904 55.0926 32.0045C55.1941 32.0045 55.4678 32.1573 55.7444 32.1573C56.383 32.1573 59.6641 32.2601 59.8819 32.0074C59.9628 31.9134 59.7966 31.7386 59.801 31.7107L59.8451 31.5021C59.4037 30.587 59.002 29.6572 58.6401 28.7098C59.2566 28.2544 59.7907 27.6889 60.2424 27.0102C60.4999 26.3066 61.1856 24.2208 61.2694 23.5451C61.3224 23.1147 61.137 22.4714 60.8309 22.1629ZM56.4168 25.1007V25.3945H54.0626V25.1007H56.4168Z" fill="white"/>
<path id="Vector_22" d="M49.2067 27.8908C49.6849 27.3091 50.0469 27.6323 50.0822 27.5955C50.1896 27.4854 50.2131 26.3147 50.8267 27.3796C50.222 27.5309 50.7399 27.5794 50.8238 27.8188C50.9503 28.1802 50.5089 27.8967 50.531 28.1831H52.148C51.9155 28.6546 51.7669 29.4317 51.5595 29.9473C51.2578 29.843 50.9312 29.8121 50.5795 29.8562C49.9954 29.0277 49.5702 29.2069 48.858 29.7534L48.6167 29.5066C48.6844 29.0072 48.8874 28.2771 49.2053 27.8908H49.2067Z" fill="white"/>
<path id="Vector_23" d="M48.6183 29.5062C48.6448 29.4842 48.8493 29.4915 48.9965 29.3711C49.1436 29.2506 49.1833 28.9568 49.2245 28.9274C49.3217 28.8584 49.5836 29.0685 49.7145 29.0743C49.8734 29.0832 49.6895 28.7042 49.9411 28.7717C49.8558 29.4078 50.4355 28.7512 50.6076 29.0641C50.7033 29.2359 50.4782 29.4239 50.5311 29.4988C50.7415 29.7926 51.5067 29.1977 51.5611 29.9454C51.4655 30.1834 51.3831 30.458 51.2668 30.6798L51.0005 30.8855C50.1986 30.8825 49.4261 30.7709 48.6816 30.5476C48.5183 30.9031 48.1843 31.1029 48.0298 30.6798C48.1431 30.3787 48.405 29.6883 48.6183 29.5047V29.5062Z" fill="white"/>
<path id="Vector_24" d="M55.9744 31.4154C55.4256 30.9307 55.0681 29.9363 56.1363 30.4401C56.4938 30.1419 57.053 30.1963 57.4929 30.3167C57.7577 29.9554 58.0358 30.0273 58.3286 30.5341C58.5096 30.6384 58.8583 31.3347 58.7686 31.414C57.9005 31.3244 56.8072 31.5403 55.9744 31.414V31.4154Z" fill="white"/>
<path id="Vector_25" d="M48.03 30.6819C48.3743 30.773 48.3301 30.3984 48.5346 30.297C48.954 30.0899 49.3895 30.8508 49.722 30.2412C49.8913 30.8155 50.7417 30.3778 51.2655 30.6819C51.2022 30.8038 51.242 31.0006 51.061 31.1343C50.4945 31.5529 48.6185 31.0932 47.8813 31.1211C47.9652 30.9859 47.9755 30.8229 48.0285 30.6819H48.03Z" fill="white"/>
<path id="Vector_26" d="M55.2393 30.3878L55.7542 29.9471C56.1236 30.589 56.3987 30.2894 56.1221 29.6533C56.7048 30.0514 57.3213 30.0573 57.8863 29.6533C57.9952 29.8928 58.3527 30.1557 58.3277 30.5347C58.3203 30.5303 58.2659 30.6742 58.2115 30.6463C58.1644 30.6213 57.8863 29.859 57.5891 30.827H57.4463C57.3698 30.1087 56.0529 30.918 55.5335 30.3863L55.9735 31.4145C55.354 31.322 55.4511 30.7858 55.2378 30.3863L55.2393 30.3878Z" fill="white"/>
<path id="Vector_27" d="M60.4307 22.9416C60.1026 22.122 59.2315 22.4671 58.6224 22.1631C57.5439 22.1822 56.4712 22.1925 55.403 22.1954H55.3927C54.2141 22.1969 53.0444 22.1881 51.8791 22.1675H51.8761C51.7702 22.166 51.6657 22.1646 51.5598 22.1631C51.5127 22.1748 51.1066 22.5274 51.0551 22.6126L49.207 27.8918C49.6499 27.8595 50.0604 27.8389 50.4386 27.8301C49.9942 28.6629 51.8305 28.6997 52.1483 28.1856C52.1925 28.0974 52.3131 27.9021 52.4043 27.8874C54.0699 28.0871 53.936 27.8169 54.6497 29.2138L54.9233 29.4327C55.5781 29.2799 56.2255 29.0933 56.8641 28.8715C57.2687 29.3034 57.691 29.274 57.4453 28.6262C57.3438 28.4265 57.0377 28.2649 57.151 27.8918C58.1059 27.999 58.9637 27.5348 59.4169 26.702C59.7024 26.1746 60.6117 23.3955 60.4307 22.9416ZM56.4168 25.1009V25.3947H54.0626V25.1009H56.4168Z" fill="white"/>
<path id="Vector_28" d="M54.6504 29.2125L55.5317 28.9172L54.7975 28.7703L54.9461 28.1843C55.0256 28.0932 55.5994 28.8614 55.7848 28.9055C55.8628 28.9246 56.8619 28.7086 56.7854 28.4751C57.009 28.4134 57.4666 29.352 57.4475 28.6249C57.6564 29.0318 57.727 29.2962 57.8889 29.6531C58.0037 30.3024 57.034 30.2906 56.5485 30.1805L56.4013 30.3964C55.9732 30.3847 55.5847 30.3817 55.2404 30.3876C55.0315 29.9954 54.852 29.6032 54.6519 29.2125H54.6504Z" fill="white"/>
<path id="Vector_29" d="M51.561 22.1629H58.6236C56.73 22.038 54.8363 22.2657 52.9588 22.3186C52.5248 22.3303 51.8332 22.0968 51.561 22.1629Z" fill="white"/>
<path id="Vector_30" d="M57.0756 24.3644C56.5547 24.5524 53.6237 24.4129 53.4898 24.5304C53.4325 24.5803 53.1087 25.7643 53.0308 25.9817H56.6356C56.8196 25.9817 57.3375 24.3468 57.0756 24.3644ZM56.4164 25.3941H54.0622V25.1003H56.4164V25.3941Z" fill="white"/>
<path id="Vector_31" d="M38.1728 18.9299L38.2052 19.259C37.1061 20.979 36.3174 22.9444 35.8392 25.158C35.6229 25.4621 35.4213 25.7853 35.2301 26.1275C35.4184 26.3479 35.1374 26.696 34.9358 26.862C35.1285 27.0617 35.1447 27.1925 34.9829 27.3908C35.0609 27.545 37.6387 27.5127 37.7314 27.1557C37.3959 26.8899 37.6108 26.4874 38.0257 26.5682C37.9109 25.8117 38.0831 25.4695 38.5407 25.54C39.6074 25.4577 40.7109 25.4577 41.8513 25.54C42.4678 25.6722 41.9307 26.9104 41.4099 27.0089C41.3657 27.4422 41.3716 27.661 41.429 27.6699C41.7777 27.8094 44.1657 27.6625 44.3526 27.4495C44.2069 27.3438 44.2555 27.2953 44.4997 27.3026C44.1393 27.1602 44.1201 27.1528 44.4997 27.0089C44.4335 26.602 44.4291 26.0526 44.9412 25.9806C45.0736 25.0567 45.3046 24.1357 45.6768 23.2588L46.1183 22.8959C46.3184 22.2496 46.929 22.3378 46.7068 23.0428C46.1801 24.5764 45.7063 26.6475 45.0471 28.0694C44.9941 28.1854 44.8087 28.4778 44.7205 28.4778H40.2327L41.1156 26.1275H38.9085C38.782 26.1275 38.445 28.1326 37.88 28.4058L33.7587 28.6246C33.744 28.4146 33.7499 28.2089 33.794 27.9989C34.128 26.4154 35.1138 24.544 35.6582 23.0737C36.1453 21.7561 36.4145 19.754 37.4371 18.783C37.9109 18.5069 38.1566 18.5568 38.1728 18.9299Z" fill="white"/>
<path id="Vector_32" d="M46.7062 23.0438C46.7886 22.5502 46.4825 22.8117 46.1176 22.8969C45.7616 22.8264 45.8087 22.5297 45.9028 22.2285C46.2604 21.074 46.6797 19.7828 47.2727 18.7649L47.0623 18.9059C44.1489 18.781 41.2827 18.8486 38.4665 19.1101L38.1737 18.9309L37.438 18.784C37.9074 18.3389 38.4562 17.9805 39.1257 17.8982C40.8133 17.6941 43.9739 17.816 45.7557 17.8953C46.5694 17.932 47.4846 18.1156 48.3306 18.1171L48.4159 18.4975C47.7994 19.9885 47.23 21.5191 46.7062 23.0438Z" fill="white"/>
<path id="Vector_33" d="M35.0839 26.8628C35.3855 26.6278 35.6003 26.616 35.7283 26.8305C36.1403 26.7233 37.6176 26.3898 37.7265 26.9039C37.7441 26.9847 37.7412 27.0699 37.7324 27.1566C37.6588 27.3064 37.6838 27.7045 37.4881 27.75C37.0143 27.659 34.7234 27.9469 34.6425 27.5194C34.613 27.3608 34.8705 27.0479 34.9367 26.8613H35.0839V26.8628Z" fill="white"/>
<path id="Vector_34" d="M38.0253 26.5688C37.9179 26.8067 37.8266 26.958 37.731 27.1563C37.116 26.5835 36.1434 27.1666 35.3753 27.1563L35.5254 26.864H35.0825C35.6431 26.3719 35.8829 25.5361 36.4803 26.4219L36.5539 26.1296C37.1277 26.6378 37.0262 26.3132 37.4397 26.0811C37.5088 26.0429 37.6339 26.1163 37.7016 26.0782C37.7693 26.04 37.6368 25.7726 37.8737 25.8358L38.0223 26.5702L38.0253 26.5688Z" fill="white"/>
<path id="Vector_35" d="M42.292 26.8623C42.7688 26.9284 43.397 26.949 44.1783 26.9255C44.374 26.9607 44.4682 27.112 44.4991 27.303C44.4888 27.3485 44.377 27.3985 44.352 27.4499C43.7825 27.6687 41.9404 27.8435 41.3562 27.6702C41.2709 27.6452 41.4828 26.9681 41.705 27.0092C41.9522 26.9343 42.0375 26.9137 42.2935 26.8623H42.292Z" fill="white"/>
<path id="Vector_36" d="M42.2917 26.8632C42.4242 26.8368 42.6154 26.9073 42.7758 26.8617C42.9156 26.8221 42.8288 26.5195 43.0966 26.5621C43.3099 26.5959 43.5601 26.9029 43.613 26.8617C43.641 26.8397 43.5203 26.5503 43.8278 26.5547C44.178 26.5606 44.5047 26.6487 44.4988 27.0101C44.4973 27.1041 44.5165 27.2246 44.4988 27.3039C43.8499 27.1232 43.3143 27.1159 42.6581 27.1041C42.3888 27.0997 42.2358 27.3156 42.2917 26.8632Z" fill="white"/>
<path id="Vector_37" d="M41.7031 27.0079L41.4102 27.594C42.3975 27.6101 43.379 27.6263 44.3515 27.4486C44.3221 27.5073 44.4383 27.7144 44.2603 27.7497L41.2616 27.7423C41.194 27.4486 41.3337 27.2503 41.4088 27.0079C41.5015 26.9917 41.6265 27.0314 41.7031 27.0079Z" fill="white"/>
<path id="Vector_38" d="M39.2704 18.6305C38.8819 18.6628 38.5112 18.7348 38.1727 18.9302C37.671 19.2196 37.4429 19.7469 37.2193 20.2551C36.4233 22.0545 35.8288 24.2402 35.23 26.1278C35.5066 26.2321 35.9068 25.8443 36.0981 25.6107C36.797 25.9544 37.4812 25.8648 38.1183 25.6665C38.2463 25.6254 38.3728 25.5813 38.4979 25.5358C38.5597 25.5123 38.62 25.4888 38.6804 25.4653L39.6412 25.4859H39.6515L41.6364 25.527H41.6393L41.8468 25.5314C41.8468 25.5314 41.86 25.5402 41.8659 25.5446C41.9233 25.5858 41.9821 25.6225 42.0425 25.6533C42.4412 25.859 42.89 25.8428 43.3888 25.6048C43.8449 25.8634 44.2245 25.856 44.5291 25.5799C44.382 25.8428 44.4482 26.1043 44.5747 26.2042C44.6865 26.2952 44.8454 26.2585 44.9411 25.9809C45.3016 24.9556 45.7798 23.8936 46.1182 22.8962C46.1594 22.7714 46.1138 22.5187 46.1844 22.3086C46.5979 21.0821 47.0819 19.8806 47.4409 18.6379C44.7836 18.7862 41.9042 18.4058 39.2704 18.6305ZM42.4397 22.6024H40.3798C40.346 21.0219 41.6187 21.8048 42.6575 21.4244C42.8208 21.4332 42.5001 22.6024 42.4397 22.6024Z" fill="white"/>
<path id="Vector_39" d="M35.2313 26.1279C35.4858 25.7504 36.0288 25.7328 35.6727 25.248C36.2524 25.5154 35.9684 25.2084 36.3245 25.0894C36.4069 25.0615 36.8733 25.06 36.6276 25.248L36.3333 25.3949C37.022 25.7475 37.9063 25.4052 38.6802 25.3905C39.8205 25.37 40.9858 25.5213 42.085 25.5286C42.1953 25.5286 42.0747 25.2818 42.2218 25.2466C42.5646 25.1628 42.3837 25.5462 42.522 25.5506C42.7353 25.5565 43.0973 25.3083 43.3989 25.3141C43.6402 25.32 43.9051 25.5521 44.1125 25.5124C44.473 25.4449 44.654 24.5797 45.016 24.3652C45.2543 24.3799 44.8673 25.5007 44.8247 25.6461C44.7555 25.8841 44.4142 26.0192 44.9424 25.9825C44.8188 26.3336 44.7923 26.7683 44.501 27.0107C43.8197 26.8741 43.1179 26.8712 42.3954 27.0019L42.2939 26.8638C42.238 27.2869 41.9511 27.3588 41.7054 27.0107C41.5361 27.2193 41.4743 27.2913 41.4111 27.0107C41.5626 26.5216 41.9128 26.078 41.8525 25.5418H38.5419C38.2064 25.8106 38.177 26.2366 38.0269 26.57C37.793 26.6494 37.7061 26.5789 37.6723 26.3629C37.1132 26.689 36.5246 26.7963 35.9935 26.3189C35.7463 26.6773 35.4432 26.858 35.0841 26.8638C35.043 26.9916 34.9929 26.9902 34.937 26.8638C35.0444 26.5642 35.0224 26.4408 35.2313 26.1294V26.1279Z" fill="white"/>
<path id="Vector_40" d="M43.6161 20.8398H40.0848L39.3477 23.1901C39.9671 23.2341 42.4891 23.572 42.8069 23.1901C42.8863 23.0946 43.7088 20.9221 43.6161 20.8398ZM42.439 22.6025H40.3791C40.3453 21.022 41.618 21.8049 42.6568 21.4245C42.8201 21.4333 42.4994 22.6025 42.439 22.6025Z" fill="white"/>
<path id="Vector_41" d="M58.7703 1.15805C59.8665 0.735005 61.3968 0.71444 62.4488 1.15805C62.3943 1.82639 61.7646 3.11021 61.488 3.79765C61.0098 4.98305 60.4095 6.13467 59.9474 7.32741H64.5087C64.5661 7.7813 64.2086 8.14118 64.0673 8.50253L63.7568 8.61269C63.6818 9.09743 63.155 10.3812 62.8902 9.53075C62.5047 9.47787 62.5209 9.35742 62.8902 9.23697C62.693 9.0093 62.7328 8.71111 63.0094 8.34389C61.7999 8.18818 60.5757 8.14558 59.3368 8.21462C59.2427 8.04276 59.1058 7.93847 58.9175 7.91497C58.6129 7.90469 58.5673 7.69757 58.7806 7.29216L61.026 2.1143C60.33 2.05554 59.6399 2.01001 58.9572 1.97769C58.7615 2.97654 58.3569 3.78003 57.7404 4.38815L57.4255 4.60848C57.193 5.48248 56.8075 6.14348 56.269 6.59149C56.2249 6.16404 56.4426 5.80563 56.5633 5.41638L56.3852 5.00509C56.7369 3.95042 57.1489 2.92072 57.6212 1.91453L58.0347 1.74414C58.1465 1.19183 58.3922 0.996468 58.7703 1.15658V1.15805Z" fill="white"/>
<path id="Vector_42" d="M56.2688 6.59225C56.6735 5.71973 57.1428 4.86483 57.4489 3.94824L57.7402 4.38891C57.7402 5.78289 57.0295 7.09168 56.2688 8.20804L56.4218 8.35199C56.3836 8.76035 56.185 9.10407 55.8274 9.38316C56.0099 9.74157 55.8627 10.0853 55.386 10.4114C55.6567 10.5318 55.979 10.5656 56.3512 10.5113L61.1744 10.6038C61.7541 10.6538 62.1426 10.4187 62.5943 10.1176C62.3029 9.79739 62.4589 9.48157 62.8886 9.53005C62.9577 9.86349 63.3623 9.11729 63.3756 9.08791C63.5698 8.64724 63.4168 7.85404 64.0657 8.50182C63.7905 9.20248 63.3388 10.8535 62.8165 11.2942C62.0616 11.9317 60.4799 11.4484 59.5838 11.4323C58.6054 11.4146 57.6063 11.4102 56.6278 11.4323C56.1747 11.4426 54.1648 11.9229 54.228 11.2457C54.2501 11.0004 54.6415 10.5803 54.7533 10.2939C55.2344 9.05413 55.7259 7.76296 56.2674 6.59225H56.2688Z" fill="white"/>
<path id="Vector_43" d="M57.7399 4.39027C58.0989 3.52363 58.4094 2.6276 58.7934 1.77123C59.6704 1.71541 60.5605 1.69632 61.4169 1.89462C61.1918 2.71133 58.8287 7.53371 58.9155 7.91562C59.972 8.09924 59.1583 8.92622 58.4638 8.31369C57.8885 8.56928 57.4191 8.29754 57.0439 7.8554C57.0763 8.48115 56.1714 8.92916 56.2685 8.20793C56.7541 6.92706 57.2146 5.65646 57.7399 4.38881V4.39027Z" fill="white"/>
<path id="Vector_44" d="M56.2689 8.20873C56.2939 8.45257 56.6941 8.20433 56.7162 8.11032C56.7603 7.93258 56.6809 7.67258 56.7103 7.47428C57.1767 7.36705 57.2959 7.78716 57.6049 7.97665C58.2244 8.35562 58.217 7.92964 58.5466 7.90908C58.5878 7.90614 58.6952 8.43347 59.2087 8.20726C59.2705 7.9928 58.9498 8.06772 58.9144 7.91495C60.3873 7.95168 61.8749 7.80332 63.3286 8.06331C63.3727 8.52454 63.0328 8.8477 62.8872 9.23696C62.5532 9.30012 62.225 9.39854 61.9028 9.53515C61.2848 9.10182 60.2725 9.42938 59.7884 9.8348C58.8232 9.38238 58.3053 9.23255 57.2533 9.43967C57.0002 9.27221 56.8663 9.35447 56.8516 9.68644C56.5764 9.83774 55.7274 9.72023 55.8275 9.38385C55.8554 8.94759 56.1306 8.57302 56.2689 8.20873Z" fill="white"/>
<path id="Vector_45" d="M55.8277 9.3824C55.8277 9.3824 55.9233 9.50579 55.9777 9.45438C56.1175 9.32365 56.0454 9.04896 56.2676 9.09009L56.5619 9.67618L56.784 8.64648C57.2152 9.64093 58.0921 8.90354 58.5438 8.93145C58.6292 8.93586 58.6144 9.22817 58.6865 9.22523C58.791 9.21935 58.969 9.05777 59.1177 9.0754C59.2663 9.09303 59.2118 9.6659 59.8578 9.53223C59.9534 9.51313 59.9343 9.30308 60.0211 9.27517C60.2153 9.21201 61.4719 8.9623 61.6499 8.94908C61.7117 8.94467 61.7073 9.23257 61.7956 9.24726C62.2296 9.31777 62.6298 8.58185 62.8903 9.23698C62.8623 9.31189 62.9197 9.46172 62.8903 9.53076C62.8226 9.69234 62.6843 9.9538 62.596 10.1183L62.237 10.4312C61.6676 10.4224 61.1158 10.3651 60.5493 10.2035C60.0064 10.3857 59.4987 10.3563 59.025 10.1139C58.2554 10.3563 57.4256 10.4312 56.5324 10.3387C56.0837 10.4988 55.7011 10.5223 55.3848 10.4121C55.4848 10.1022 55.5908 9.59833 55.8262 9.38387L55.8277 9.3824Z" fill="white"/>
<path id="Vector_46" d="M55.3862 10.4117C56.2882 9.80944 57.3917 10.1179 58.407 10.0489C58.6071 10.0357 58.7836 9.84176 59.0014 9.8256C59.3737 9.79622 59.7636 10.2163 59.9475 10.1179C59.9666 10.1076 59.7636 9.77566 60.0211 9.67871C60.152 10.1444 60.3065 9.86232 60.6552 9.92108C61.0849 9.99305 61.363 10.3529 61.491 9.8256C61.8206 10.3368 62.0722 10.1664 62.5945 10.1194C62.4989 10.3001 62.3988 10.6026 62.2384 10.7172C61.5984 11.1755 56.3927 10.6541 55.2376 10.8524C55.2155 10.8391 55.3612 10.4851 55.3848 10.4132L55.3862 10.4117Z" fill="white"/>
<path id="Vector_47" d="M78.1153 4.97818C77.8299 4.97084 77.5533 4.83129 77.2384 4.82395C74.5973 4.76666 71.9606 4.8166 69.3268 4.56836C68.7412 4.6609 68.3822 5.07807 68.1262 5.58043C67.2625 7.26966 66.6121 9.39221 65.9309 11.174C65.4718 12.3799 64.1078 14.1882 65.9073 14.9637C67.9202 15.0357 69.9286 15.0636 71.9429 15.1077C73.5452 15.1429 74.7503 15.8789 75.77 14.0941L79.6603 5.05603C79.2483 4.53751 78.5818 4.98993 78.1153 4.97818ZM72.9685 10.8538H70.3935C70.5422 10.5556 71.091 8.9442 71.3499 8.9442H73.557C73.6203 8.9442 73.7763 9.13809 73.7615 9.29086C73.7483 9.41865 73.1009 10.6143 72.9685 10.8538Z" fill="white"/>
<path id="Vector_48" d="M72.0103 5.41786C73.3787 5.31797 74.7677 5.31503 76.1302 5.41786C76.7482 5.75864 77.6001 5.47074 78.2667 5.56475C78.4697 5.59412 78.5197 5.48249 78.4859 5.78508C77.4927 8.12209 76.5201 10.4885 75.3945 12.7623C75.0708 12.733 74.9458 12.4524 75.0208 11.9221L74.0585 11.7635C73.8452 12.6022 72.1251 12.1425 72.8932 11.5872C73.2419 11.3948 74.4308 8.84185 74.3498 8.6979C74.2645 8.54367 70.9642 8.43938 70.8303 8.55395C70.7155 8.65237 69.6341 11.148 69.612 11.2993C69.6061 11.3434 69.6267 11.3919 69.6561 11.4403C70.2624 12.0675 68.7954 12.4201 68.713 11.5843L68.3893 11.4565C68.0671 12.5038 67.0665 12.3084 66.272 12.0294C67.0842 9.81279 67.9744 7.60945 68.9572 5.45752C69.4237 5.0095 71.3262 5.40757 72.0103 5.41933V5.41786Z" fill="white"/>
<path id="Vector_49" d="M75.3948 12.7622C75.3463 12.8606 75.2963 12.959 75.2477 13.056C75.2418 13.197 75.1933 13.2954 75.1006 13.3497C74.7975 13.2822 74.5238 13.0883 74.2795 12.7681C73.7631 13.2175 73.0583 13.172 72.1681 12.6329C71.5031 13.0295 70.8821 13.0942 70.3054 12.8283C68.9399 12.8797 67.5553 12.9502 66.1531 13.0413L65.978 12.7607C66.0869 12.3994 66.1855 12.2628 66.2723 12.0263C67.2375 11.5298 67.5274 12.5316 68.088 11.4358C68.1365 11.3418 68.0247 11.1538 68.038 11.1464C68.2116 11.0524 69.3269 11.3109 68.9193 11.731C69.7359 11.897 69.5226 11.5871 69.6565 11.4387C69.6594 11.3623 69.6697 11.2889 69.6977 11.2228C69.808 10.9657 72.3344 11.1993 72.7611 11.258C72.8523 11.2698 72.8847 11.4578 72.8935 11.5856C72.9215 11.6047 72.767 11.8412 73.1039 11.8911C74.05 12.0336 73.6527 11.6899 73.7837 11.4431C73.8528 11.3124 75.6273 12.0292 75.0976 11.2918C75.5376 11.4152 75.436 11.1038 75.6862 10.998C75.6774 11.5063 75.1182 12.2481 75.3934 12.7607L75.3948 12.7622Z" fill="white"/>
<path id="Vector_50" d="M65.9779 12.7628H66.5679C66.2001 11.7111 66.8975 12.7525 66.9549 12.7599C67.1682 12.7907 68.1438 12.5821 68.4601 12.5528C68.6852 12.5307 68.9515 12.6615 69.1207 12.6262C69.29 12.5909 69.1487 12.3221 69.29 12.3207C69.3532 12.3207 69.3047 12.8098 70.0036 12.6174C70.1625 12.5733 69.9874 12.259 70.3184 12.3221C70.4523 12.3471 70.3376 12.5763 70.5745 12.6644C71.2763 12.9244 71.8296 12.3104 72.1959 12.3456C72.6874 12.3941 73.3377 13.0522 74.0734 12.7628L73.9248 12.472C74.6678 12.3133 74.6752 12.9523 75.1034 13.3518C75.1887 13.4811 75.1225 13.7455 74.9562 13.7925C74.7399 13.9908 74.4177 13.4635 74.5796 13.4282L72.3695 13.6779L72.1606 13.4987C71.728 13.885 71.038 14.1098 70.6775 13.6339L70.4685 13.8542C69.3061 13.888 68.1452 13.7866 66.9843 13.5501C66.3943 13.5046 66.1368 13.4987 65.9823 14.0863C65.8366 14.029 65.7116 14.2376 65.6748 13.8704C65.6174 13.2975 65.8734 13.13 65.9823 12.7643L65.9779 12.7628Z" fill="white"/>
<path id="Vector_51" d="M65.9777 14.0832C65.4936 13.2577 66.4809 13.1887 67.0503 13.2592C67.6198 13.3297 68.1392 13.4883 68.841 13.5001C69.125 13.5045 70.1932 13.6617 70.3183 13.6205C70.3786 13.6014 70.4801 13.1461 70.9819 13.3503L70.8333 13.6426C71.2732 13.5897 71.7131 13.5353 72.159 13.4972C72.4459 13.5559 72.5386 13.6205 72.4371 13.6955C73.2081 13.5383 75.4578 13.08 74.3999 14.3623C73.4611 14.4475 72.518 14.4534 71.5719 14.3785C70.1505 14.3476 67.1872 14.5577 65.9807 14.0847L65.9777 14.0832Z" fill="white"/>
<path id="Vector_52" d="M72.0098 5.41917C73.4605 5.0828 75.0791 5.36189 76.5696 5.27375C76.6078 5.52053 76.2929 5.41036 76.1296 5.41917C74.8098 5.4838 73.3414 5.44267 72.0098 5.41917Z" fill="white"/>
<path id="Vector_53" d="M72.1569 13.4964C72.9912 13.423 73.8372 13.3863 74.6568 13.2012L74.9525 13.7902C75.0673 14.0047 74.7289 14.2647 74.5111 14.3778C74.1212 14.6143 72.613 14.5408 72.076 14.5261C71.8553 14.5202 71.639 14.3792 71.5684 14.3778C72.1746 14.0487 74.1565 14.5746 74.5111 14.2279C74.5317 14.2074 74.3184 13.8504 74.5111 13.6448C74.0064 13.7887 73.4753 13.6433 72.9897 13.6933C72.6645 13.727 72.254 14.2896 72.1569 13.4964Z" fill="white"/>
<path id="Vector_54" d="M74.5112 14.3786C74.5598 14.3493 74.8908 13.8939 74.9526 13.7911C75.0027 13.7059 75.0247 13.4973 75.0998 13.3504C75.1483 13.2549 75.1998 13.1536 75.2469 13.0566C75.244 13.5766 75.1439 14.3199 74.5112 14.3786Z" fill="white"/>
<path id="Vector_55" d="M74.6605 8.35529C73.8071 8.56094 71.1689 7.86468 70.6127 8.35383C70.4818 8.4684 69.5681 10.6894 69.4636 11.0272C69.3768 11.3063 69.1987 11.4973 69.6578 11.44C69.7652 11.3195 72.7595 11.4973 72.8949 11.5869C73.1921 11.6118 73.3804 11.5428 73.5511 11.2872C73.6659 11.1124 74.5207 9.18375 74.5899 8.94726C74.6487 8.74896 74.6855 8.56241 74.6605 8.35529ZM70.3935 10.8524C70.5421 10.5542 71.0909 8.94285 71.3499 8.94285H73.557C73.6202 8.94285 73.7762 9.13675 73.7615 9.28951C73.7483 9.41731 73.1008 10.613 72.9684 10.8524H70.3935Z" fill="white"/>
<path id="Vector_56" d="M86.429 1.59937C87.1411 1.35259 87.7871 2.17811 88.1137 2.7833L89.0142 4.60032C89.2599 3.97898 89.5012 3.34295 89.7381 2.69223L90.1074 2.62613C90.284 2.32647 90.5194 1.99303 90.7696 1.74479H94.8158C94.8673 2.23834 94.626 2.73923 94.4289 3.19459C93.368 5.63883 91.9967 8.41357 90.8431 10.8519C90.6607 11.2383 90.2825 11.8905 89.8499 11.9874C89.3482 12.099 87.8077 12.0873 87.3074 11.958C86.2201 11.6745 85.63 9.27288 84.8119 8.50318L83.4127 12.0285H79.2192C79.3605 11.3014 79.8299 10.661 80.1021 9.97207C81.2453 7.26343 82.4195 4.56947 83.6275 1.88874L83.9276 1.59937C84.5206 1.38197 85.8169 1.4422 86.429 1.59937Z" fill="white"/>
<path id="Vector_57" d="M80.1021 9.97232C81.0364 7.6118 81.9678 5.27919 82.9977 2.94806C83.2832 2.30027 83.036 1.92717 83.9276 1.59961L80.1021 9.97232Z" fill="white"/>
<path id="Vector_58" d="M81.1322 9.23663L83.8998 2.67214C84.2074 1.8525 86.3188 2.08017 86.8088 2.61632C87.3311 3.18772 88.495 6.27681 88.8584 6.44573L91.0522 2.46943C91.6555 2.03464 93.04 2.66333 93.7846 2.48118C92.7487 4.7521 91.6202 6.98188 90.549 9.23663C90.2665 9.68465 89.8015 9.19991 89.8663 8.80331C89.6206 9.08387 89.21 9.12353 88.6362 8.92229L86.5071 8.81212C86.1775 8.63292 85.8582 8.48162 85.5463 8.3553C85.2844 7.91463 85.0387 7.4534 84.7371 7.03623C84.5428 7.03623 83.7777 9.05009 83.6335 9.38352C83.017 9.16907 82.3843 9.05009 81.7399 9.02658C81.6531 9.5877 80.9335 9.89176 81.1322 9.23663Z" fill="white"/>
<path id="Vector_59" d="M85.5459 8.35537C85.796 8.42294 85.3988 7.00251 85.8387 7.47403C85.8755 7.51369 86.0388 8.26283 86.3125 8.46113C86.5862 8.65943 89.189 8.42 89.7393 8.94439L89.3715 8.5757C90.194 8.14238 89.9615 9.19851 90.5501 9.2367C90.3441 9.67003 90.1734 10.1342 89.9615 10.5587C89.6113 10.7717 89.4833 10.5528 89.3891 10.2253C88.9816 10.1988 88.5519 10.2972 88.1002 10.5205L87.8015 10.3575C87.313 10.7511 86.8186 10.334 86.4302 9.97262C86.1168 9.48054 85.8475 8.8636 85.5474 8.35684L85.5459 8.35537Z" fill="white"/>
<path id="Vector_60" d="M81.1321 9.23697C81.1321 9.23697 81.1321 9.48228 81.2822 9.31336C81.5529 9.00636 81.2822 8.61563 82.2445 8.71405C82.4711 8.73755 82.6359 9.24579 82.605 8.64941H82.7492C82.7242 9.25901 83.504 8.58331 83.6335 9.38239C83.4348 9.84216 83.2892 10.2564 83.0449 10.7044C82.7153 10.4018 81.8531 10.9526 82.5697 10.8425L82.8978 11.1451C82.1091 11.48 81.0924 11.2053 80.2508 11.2905C80.1669 11.2156 80.9659 9.36624 81.1321 9.2355V9.23697Z" fill="white"/>
<path id="Vector_61" d="M86.4287 9.97133C86.7554 9.98455 87.2792 10.2401 87.544 10.2534C87.6117 10.2563 87.5543 9.85088 87.9751 9.96839C88.0384 9.98602 88.0399 10.2813 88.1179 10.2666C88.4077 10.2152 88.6534 9.82738 89.2332 9.89201C89.8644 9.96252 89.5304 10.2871 89.96 10.5589C89.4921 11.5004 88.7417 11.4476 87.6882 11.2845C86.9775 11.1744 86.7686 10.5045 86.4287 9.97133Z" fill="white"/>
<path id="Vector_62" d="M83.0445 10.7052C82.9871 10.8095 83.0033 11.0269 82.8973 11.1458C82.2411 11.1121 81.5657 11.1928 80.9095 11.1458C80.7447 11.1341 80.4254 11.231 80.5446 10.927C80.7903 10.3056 81.5128 10.6993 81.8674 10.6479C82.2426 10.5935 82.9503 9.83558 83.0445 10.7052Z" fill="white"/>
<path id="Vector_63" d="M50.8255 8.06158C50.8343 8.05277 50.8505 8.04542 50.874 8.04102C50.8564 8.09977 50.8372 8.15853 50.8181 8.21728C50.8152 8.13356 50.8152 8.07186 50.8255 8.06158Z" fill="white"/>
<path id="Vector_64" d="M54.2103 4.53682C53.9734 5.15082 53.223 7.5789 52.8861 7.91528C52.8714 7.91822 52.8537 7.91969 52.8361 7.92116C51.9738 7.99607 47.5406 7.43054 47.3155 7.64207C47.2699 7.68613 47.264 8.06805 47.1492 8.20759L50.679 8.21053L50.5319 9.0904C50.4466 9.28576 50.4274 9.43412 50.3848 9.53107L50.2641 9.99083C50.0096 10.3625 49.8845 10.6636 49.8874 10.8942C48.9443 10.8252 47.7672 10.69 47.2375 10.8428C47.1036 10.8824 47.1212 11.2879 47.0021 11.4392H50.6334L50.6378 11.4406C50.8159 11.4583 51.0263 11.4583 51.2676 11.4406C51.3235 12.0781 50.8733 12.6951 50.679 13.2033C50.0875 13.4515 49.8918 13.4031 50.0905 13.0564C49.8992 13.0035 49.7977 12.8082 49.7889 12.4733C49.3504 12.5408 49.059 12.4424 48.9149 12.1751H48.1792L46.2664 12.0282C46.1487 12.3278 44.7332 12.3925 44.5964 12.1648C44.3742 11.7946 45.2305 9.67355 45.9927 9.92326C46.9947 9.98496 47.9938 10.0055 48.9914 9.98496C49.1297 9.41649 49.3489 9.02136 49.6491 8.79662C49.3151 8.72758 49.4033 8.68058 49.4784 8.66001C49.3357 8.68204 49.0237 8.69673 48.6485 8.70261H48.6426C47.9967 8.71583 47.1639 8.70702 46.6784 8.67764H46.6769C46.6769 8.67764 46.6754 8.67617 46.6739 8.67764C46.6739 8.67617 46.6695 8.67617 46.6681 8.67764C46.643 8.67617 46.621 8.67323 46.5989 8.67176C46.4223 8.65854 46.3046 8.64238 46.2811 8.62329L46.2664 8.35595C45.7764 8.12386 46.4841 6.99575 46.8476 6.79598L52.1681 6.86502C52.2711 6.81655 52.7831 5.47398 52.7345 5.41228L45.2541 5.28743C44.5478 6.56683 43.9813 7.92703 43.5532 9.36802L43.1765 9.53107L42.8999 9.63683C42.8145 9.83219 42.7365 10.0305 42.6674 10.2288C42.6659 10.2303 42.6659 10.2317 42.6644 10.2347C42.5055 10.6797 42.3819 11.1307 42.2937 11.5875C42.6792 11.6448 42.6644 11.7638 42.2937 11.8813C42.1553 11.9665 42.0317 12.0928 41.9317 12.2412C41.8537 12.3543 41.7904 12.4806 41.7492 12.6099C41.6801 12.8111 41.6595 13.0212 41.7051 13.2033C41.8316 13.2415 41.8287 13.29 41.7051 13.3502C41.4388 13.5749 41.3225 13.8834 41.3534 14.2785C42.6306 14.2271 43.9092 14.2433 45.1878 14.3255L45.2364 14.6722H43.4708C43.0661 14.6722 40.6369 14.7706 40.5339 14.6663C40.5074 14.6399 40.475 14.1742 40.3809 13.9378C40.7678 13.9804 40.8237 13.9069 40.9812 13.5823C42.201 11.0881 42.9499 7.8433 44.1299 5.2698L44.7965 4.46484L54.2103 4.53682Z" fill="white"/>
<path id="Vector_65" d="M50.09 13.0555C50.09 13.0555 50.1651 13.1965 50.2063 13.1656C50.3093 13.0893 50.6197 12.4106 50.6786 13.2024C50.399 13.9339 50.6727 14.5053 49.5118 14.755C48.5318 14.9665 46.3674 14.7168 45.2345 14.6713C45.208 14.6713 44.9961 14.5258 44.7372 14.5141C44.1648 14.4876 40.9704 14.6507 40.8218 14.5244C40.5378 14.282 41.0984 14.2291 41.119 14.1336C41.2235 13.6313 40.8733 13.4447 41.7046 13.3507C41.7164 13.5358 41.7164 13.7312 41.7046 13.9383C41.9106 13.7826 42.3844 13.6474 42.6463 13.646C45.1241 13.8972 47.5078 13.8972 49.7972 13.646C49.6104 13.2112 49.5206 12.8939 50.0915 13.0584L50.09 13.0555Z" fill="white"/>
<path id="Vector_66" d="M50.8177 8.2168C50.8177 8.36516 50.825 8.57961 50.7927 8.69272C50.7265 8.92921 50.5676 9.00266 50.5293 9.08932C50.6294 8.79701 50.725 8.50764 50.8177 8.2168Z" fill="white"/>
<path id="Vector_67" d="M52.8849 7.91504C52.5509 8.24995 51.1707 7.97967 50.875 8.04136C50.8868 8.00464 50.8985 7.96645 50.9103 7.92973C51.5577 8.01639 52.1992 8.01492 52.8349 7.92091C52.8525 7.91945 52.8702 7.91798 52.8849 7.91504Z" fill="white"/>
<path id="Vector_68" d="M43.1744 9.53104C43.6453 8.33095 44.1897 6.53155 44.7635 5.46219C44.8636 5.27564 44.9681 5.07294 45.1902 5.00684L53.1798 5.12729L52.4279 7.16464L46.9515 7.05888C46.719 7.1382 46.3791 8.05626 46.2658 8.35739L46.6057 8.68054C47.6636 8.63942 48.6774 8.67761 49.65 8.79806C49.6382 9.11534 49.3851 10.1553 49.1144 10.2464C48.4361 10.4755 45.9995 10.0451 45.5596 10.2978C45.4772 10.3448 44.74 11.9518 44.7944 12.0282C45.2962 12.2088 45.7906 12.034 46.2658 12.0282L48.1786 12.175C48.4243 12.175 48.6686 12.175 48.9143 12.175L48.7289 12.4894L45.255 12.7509C44.8783 13.1577 44.5237 13.3957 44.2853 12.7318C43.6276 13.1137 42.7551 12.77 42.146 12.4688C41.7708 12.3234 41.9135 11.868 42.2931 11.8813C42.3211 11.8064 42.2651 11.6624 42.2931 11.5875C42.2181 11.4994 42.1621 11.4156 42.1754 11.3451C42.2372 11.0249 42.8758 9.69702 43.1759 9.53104H43.1744Z" fill="white"/>
<path id="Vector_69" d="M48.9131 12.1744C49.3325 12.1304 49.8077 12.2053 50.2374 12.1744L50.0903 13.0543C49.8548 13.1571 49.9181 13.4553 49.796 13.6419C49.1942 13.4303 48.5438 13.4597 47.8435 13.7285L47.0828 13.7153C46.4795 13.5523 45.8218 13.5552 45.1111 13.7256C43.8384 13.4156 42.7025 13.4862 41.7034 13.9371C41.5651 13.8049 41.6416 13.5714 41.7034 13.3495C41.7166 13.3025 41.6887 13.2453 41.7034 13.2027C41.4459 13.0161 41.7652 12.3096 42.1448 12.4682C42.6804 12.1803 43.2439 12.6548 43.6898 12.6327C43.9781 12.6195 44.3828 12.2376 44.4975 12.3213C44.5623 12.3683 44.5137 12.9294 44.7918 12.9074L44.8786 12.4579C45.6114 12.4756 46.35 12.3522 47.0754 12.3096C47.8008 12.267 48.1642 12.2523 48.9131 12.173V12.1744Z" fill="white"/>
<path id="Vector_70" d="M46.2643 8.35547C46.9441 8.91952 47.5974 8.5097 48.2507 8.50236C48.7009 8.49648 49.1526 8.85196 49.647 8.50236C49.6485 8.59931 49.6514 8.69772 49.647 8.79614H46.1157C46.1981 8.65953 46.2099 8.49648 46.2629 8.35547H46.2643Z" fill="white"/>
<path id="Vector_71" d="M48.177 12.1733C47.5737 12.1733 46.7527 12.2967 46.2642 12.0264C46.863 12.0205 47.6914 11.9089 48.177 12.1733Z" fill="white"/>
<path id="Vector_72" d="M49.7957 13.6429C49.5823 13.9705 49.5662 14.0366 49.1409 14.0909C47.1619 14.3436 44.7047 13.8941 42.6625 13.9367C42.3005 13.944 42.0298 14.2466 41.7046 13.9367L41.8517 13.3491C42.2166 13.4622 42.6786 13.1993 42.9641 13.2169C43.5894 13.2551 44.4723 13.4534 45.23 13.4299C45.5714 13.4196 46.1614 13.1787 46.3321 13.1934C46.4851 13.2066 46.3424 13.496 46.4866 13.4975C46.6308 13.499 46.4836 13.1964 46.6366 13.1949C46.8618 13.1949 46.9927 13.402 47.1384 13.4314C47.1825 13.4402 47.9138 13.4373 47.9579 13.4314C48.6318 13.3653 49.2557 12.7248 49.7986 13.6414L49.7957 13.6429Z" fill="white"/>
<path id="Vector_73" d="M43.0007 1.34733C42.9256 1.81003 42.0943 3.77248 41.853 4.39088L34.9581 4.41145L33.6133 8.06312H36.041C36.1043 8.06312 36.5369 7.5872 36.4089 7.47703L34.4961 7.4741C34.6212 7.04812 35.1464 5.16205 35.3775 5.05042C37.0563 4.72873 38.7587 4.85946 40.4611 4.8389C40.8863 4.83302 41.5146 4.39676 41.5587 5.12533C40.9246 6.73965 40.0859 9.15451 39.3325 10.6161C39.1795 10.9128 39.0515 11.1816 38.7263 11.3314C35.7997 11.5782 32.8702 11.5885 29.9348 11.5885C29.3169 11.6825 28.6091 11.7706 28.022 11.5885C27.9396 11.0538 28.7401 9.95947 28.977 9.38366C29.5876 7.89126 30.0555 6.32248 30.6705 4.83155C31.0104 4.00603 31.8241 1.68518 32.5289 1.3253C33.2042 0.981575 34.6344 1.20485 35.4584 1.16519C35.8071 1.14903 36.1293 1.0183 36.4766 1.00655C38.6071 0.937508 40.7583 1.1314 42.883 0.93457C43.0713 1.06824 43.033 1.15197 43.0007 1.34733Z" fill="white"/>
<path id="Vector_74" d="M41.8504 4.39014C41.7592 4.62369 41.6606 4.85725 41.5562 5.12459L41.5959 4.66189C41.6076 4.66189 41.6194 4.66189 41.6312 4.66189L41.8504 4.38867V4.39014Z" fill="white"/>
<path id="Vector_75" d="M29.9348 11.5869C29.5846 11.797 28.5929 11.8087 28.1691 11.7338C28.044 11.7118 28.0411 11.7088 28.022 11.5869H29.9348Z" fill="white"/>
<path id="Vector_76" d="M41.9981 1.59919C41.7111 2.25284 41.5066 2.97113 41.2418 3.63508L34.4896 3.87451C34.3925 4.04196 34.2836 4.21676 34.1983 4.39009C33.9482 4.58692 33.7495 4.89833 33.6024 5.32137C33.1624 5.07166 32.7446 5.00996 32.3458 5.13629C32.0839 4.91448 31.8191 4.71471 31.5498 4.53698C31.7632 4.00964 32.259 2.19409 32.7269 1.96641C33.5759 1.55512 36.3362 1.78427 37.4353 1.74607C38.8581 1.43467 40.5179 1.46111 41.9966 1.59919H41.9981Z" fill="white"/>
<path id="Vector_77" d="M40.3793 5.41717C40.6088 5.46711 40.4337 5.61841 40.3764 5.78145C40.0188 6.7994 39.5818 7.78797 39.2022 8.79563C38.9153 8.97924 38.7637 8.79563 38.7461 8.24479L37.9398 8.3814C38.0648 9.20839 36.9583 8.93517 36.5537 8.64727C36.2697 8.56061 36.2653 8.42987 36.5537 8.35349C36.6229 8.08321 37.1629 7.21363 37.1437 7.10934C37.0613 6.67454 35.5797 7.02708 35.2324 6.81409C35.4443 6.65104 35.6326 5.62869 35.6885 5.58168C35.7871 5.49796 36.461 5.58903 36.7023 5.56406C37.7191 5.20565 39.2184 5.26293 40.3808 5.41717H40.3793Z" fill="white"/>
<path id="Vector_78" d="M34.2014 4.38992C33.6217 5.57385 33.2759 7.20138 32.73 8.35594C32.9007 8.58068 32.8212 8.64972 32.5829 8.50283C32.8948 9.12564 32.2253 9.13886 31.7427 8.87446C30.7775 9.11976 30.2243 8.99491 30.0815 8.50283C30.5862 7.18229 31.0188 5.85147 31.5529 4.53681C32.6947 4.18574 32.1429 4.67929 32.2886 4.83059C32.3769 4.92166 32.8889 4.65579 33.0802 4.67488C33.1199 4.67929 33.2936 5.21103 33.76 4.97601C33.8306 4.71601 33.4304 4.90844 33.4672 4.75861C33.5275 4.50596 33.8895 4.35173 33.9998 4.11523L34.2029 4.38992H34.2014Z" fill="white"/>
<path id="Vector_79" d="M29.6405 10.1178C29.9613 9.871 30.644 9.65214 30.9192 10.0766C31.2782 9.63157 31.6225 9.58604 31.9521 9.94004C32.9585 9.95179 33.934 9.76377 34.8772 9.37305L35.5246 9.67711C35.7409 9.88128 35.8733 9.86806 36.2603 9.824C36.2941 9.68886 36.3427 9.69327 36.4074 9.824C36.7399 9.44796 37.7243 9.43327 37.9921 9.85631C39.3237 9.7388 37.9847 10.9022 37.8067 10.5584C37.7934 10.532 38.3555 10.3646 38.1731 10.7053C38.073 10.7421 38.0274 10.8375 37.8185 10.8581C35.7011 11.077 33.0836 10.7744 30.8838 10.8463C30.5263 10.8581 29.155 11.262 29.052 10.7714C29.0137 10.5893 29.333 10.1721 29.4919 10.1178C29.5258 9.98117 29.5743 9.98558 29.6391 10.1178H29.6405Z" fill="white"/>
<path id="Vector_80" d="M39.2028 8.79596C39.113 8.92962 39.0983 9.0868 39.0556 9.23662C38.8909 9.59063 38.7275 9.56713 38.523 9.25131C37.9094 9.76102 37.237 9.61854 36.5543 9.38351C36.1291 9.32623 35.6862 9.48927 35.3183 9.69051C34.9373 9.37764 34.4576 9.39967 33.8793 9.75514C33.6807 9.56859 33.5189 9.62148 33.3923 9.91525C32.9318 9.76983 32.4433 9.64057 31.9298 9.52893C31.5825 9.74339 31.0411 9.9887 30.7365 9.60972C30.3672 9.84475 30.0008 10.0137 29.6388 10.118C29.5888 10.118 29.5255 10.1062 29.4917 10.118C29.3254 9.5965 29.914 8.93697 30.0802 8.50218C30.5246 8.85177 31.2206 8.56828 31.7208 8.58003C32.1711 8.59178 32.2005 9.08533 32.5816 8.50218C33.8411 8.59912 35.1653 8.6476 36.5543 8.64907C36.6029 8.64907 36.7397 8.53155 36.9119 8.52568C37.112 8.51833 37.6137 8.74161 37.7314 8.6476C37.7652 8.62116 37.471 8.28478 37.724 8.12908C37.7785 8.09529 38.9203 7.91462 38.9836 7.91902C39.3426 7.94693 38.8953 8.66229 39.2013 8.79596H39.2028Z" fill="white"/>
<path id="Vector_81" d="M36.5541 9.38351C36.9778 8.95019 37.2559 9.39379 37.6193 9.36442C37.9504 9.33651 38.255 8.98838 38.5492 8.93844C38.8435 8.88849 38.7067 9.34091 39.0539 9.23662C39.0024 9.41876 38.5463 10.519 38.4742 10.6086C38.3491 10.7643 38.2491 10.6761 38.1711 10.7055L37.8047 10.5586L38.4654 10.1194C38.1476 10.0328 37.5678 10.3838 37.4354 10.043C37.378 9.89322 37.8033 10.0827 37.7282 9.82565C37.3589 9.76983 37.0043 9.89175 36.6453 9.92406C36.5482 9.93288 36.4408 9.82124 36.4054 9.82418C36.2053 9.58475 36.148 9.3791 36.5526 9.38351H36.5541Z" fill="white"/>
<path id="Vector_82" d="M37.4369 1.74593C37.2309 1.41249 36.4967 1.70774 36.2612 1.59757V1.45215H39.8646C40.5944 1.45215 41.336 1.44775 42.0717 1.45215C42.2806 1.53147 42.0025 1.5917 41.9981 1.59904C40.4767 1.48153 38.9333 1.69305 37.4369 1.74593Z" fill="white"/>
<path id="Vector_83" d="M40.3793 5.41917C39.5053 5.23115 37.644 5.46765 36.7008 5.56606L36.1138 5.27375C37.5057 5.36189 39.03 5.0828 40.3793 5.41917Z" fill="white"/>
<path id="Vector_84" d="M36.5543 8.35547C36.5337 8.43773 36.5675 8.55524 36.5543 8.64925C35.4081 8.68009 34.256 8.64925 33.1068 8.67422C32.8802 8.6801 32.6919 8.88133 32.5815 8.50236C32.6198 8.44507 32.7081 8.39807 32.7287 8.35547C32.8817 8.59931 33.2863 8.50236 33.5365 8.5053C34.5105 8.51705 35.6288 8.60665 36.5543 8.35547Z" fill="white"/>
<path id="Vector_85" d="M29.6402 10.1173C29.6122 9.75305 30.701 9.25656 30.8967 9.236C30.9556 9.23012 30.9585 9.51803 31.0512 9.53859C31.4559 9.62526 31.6766 9.24481 31.9223 9.24187C31.9767 9.24187 32.6536 9.37995 32.9567 9.40639C33.0199 9.41227 33.0449 9.92491 33.3201 9.67667C33.3554 9.64435 33.1612 9.39905 33.1715 9.38583C33.5894 9.08323 33.9116 9.53419 34.1043 9.51068C34.2971 9.48718 34.5781 9.02007 34.9975 9.08323C35.096 9.09792 34.9872 9.50921 35.5919 9.38436C36.0995 9.28007 36.2908 8.44867 36.5571 9.38436C36.5189 9.42402 36.5086 9.73249 36.41 9.82503C36.3585 9.82943 36.2982 9.81181 36.2628 9.82503C36.0068 9.92051 35.6243 9.95429 35.5272 9.67814C35.4256 9.71927 35.405 9.95576 35.3065 9.97485C34.9901 10.0365 35.1299 9.77949 35.0563 9.71192C34.818 9.49306 33.7821 10.0909 33.5349 10.1159C32.8169 10.1878 33.0729 9.98954 32.1945 10.2539C32.093 10.2848 31.7398 10.1614 31.5544 10.2657L31.703 9.97339H31.2602L31.4088 10.2642C30.6672 10.5683 30.6481 10.1188 30.598 10.1115C30.2434 10.0571 30.1537 10.3524 30.0095 10.4111C29.8874 10.4611 30.0772 10.1203 29.6431 10.1173H29.6402Z" fill="white"/>
<path id="Vector_86" d="M36.2598 9.82308C36.2156 9.83923 36.2451 10.0522 35.9626 10.0478C35.6801 10.0434 35.4284 9.9685 35.5241 9.67619C35.555 9.66297 35.8846 9.84805 36.1097 9.5293L36.2598 9.82308Z" fill="white"/>
<path id="Vector_87" d="M26.8453 5.41831C27.0675 5.44034 27.0175 5.38893 26.8762 5.29639C26.4598 5.38012 24.9384 5.1921 25.705 4.70149C25.8139 4.63245 28.3977 4.6207 27.8753 5.12306C27.5251 5.76056 27.3898 6.50676 27.1396 7.17952C26.8453 7.97272 26.4613 8.69248 26.2568 9.52975C26.607 9.74421 26.4849 9.93516 26.1097 9.97042C25.7345 10.3729 25.5741 10.9399 25.374 11.4393C24.9384 12.5248 24.6265 14.1744 23.6083 14.8178C23.2802 14.9984 23.0345 14.9984 22.8726 14.8178L19.6268 14.8942C18.794 14.759 19.5267 14.3933 20.0947 14.4535C21.3792 14.6312 22.5504 14.5078 23.6083 14.0848C23.3714 13.9144 23.4994 13.8483 23.7555 13.791C23.6289 13.7514 23.6319 13.7029 23.7555 13.6441C24.2263 12.8201 24.6177 11.8903 24.9326 10.8532C24.9635 9.52094 25.5991 7.86108 26.1788 6.60811C26.348 6.24236 26.5584 5.83988 26.8439 5.5652C26.7159 5.52407 26.7173 5.47413 26.8439 5.41831H26.8453Z" fill="white"/>
<path id="Vector_88" d="M22.8731 14.8189C23.0997 14.7836 23.3734 14.8424 23.6088 14.8189C23.3396 14.9893 23.3719 15.0715 22.9511 15.1171C21.568 15.2654 19.4743 15.239 18.0176 15.2596C16.9302 15.2757 15.194 15.4035 14.192 15.2596C14.1788 14.863 13.7256 14.5912 13.6388 14.2695C13.3989 13.3823 14.1699 12.2175 14.4863 11.4404C14.6526 11.53 14.7982 11.6549 14.7511 11.8429C13.7683 14.0037 13.5784 14.7557 16.2505 14.8615L19.4463 14.6647L19.6405 14.8938L22.8731 14.8174V14.8189Z" fill="white"/>
<path id="Vector_89" d="M17.4291 4.97657C18.5915 4.31116 19.7348 5.19249 17.8705 5.41723L17.8647 5.79621C16.9759 7.3694 16.2859 9.04981 15.7959 10.8375L15.3707 11.1459C15.6473 11.7673 15.1794 12.5355 14.635 12.9086C14.9337 13.0672 14.9513 13.2964 14.6041 13.27C14.2377 13.7797 14.4849 14.2306 15.0764 14.3775C15.2235 14.1645 15.4707 14.1219 15.8209 14.2526C18.4503 14.1293 21.0458 14.0734 23.6089 14.0837C22.6246 15.0444 20.753 14.1895 19.4905 14.6727C19.4552 14.9283 19.8245 14.8108 20.0026 14.8182C20.956 14.8549 21.9198 14.7917 22.8732 14.8182C21.6034 15.0135 20.547 14.9181 19.2625 14.9592C18.0456 14.9974 13.8625 15.7891 13.7507 13.8516C13.7139 13.2141 14.5599 12.1595 14.4864 11.4397C15.2986 9.44495 16.1814 7.47369 16.8406 5.41723C16.5581 5.14402 17.2114 4.71363 17.4291 4.97657Z" fill="white"/>
<path id="Vector_90" d="M17.4287 4.97667C17.5817 4.72843 17.8275 4.70346 18.0879 4.67995C20.5524 4.45228 25.1711 4.48753 27.6621 4.68289C28.1139 4.71815 28.0403 4.61092 28.0226 5.12356C27.9903 5.13384 27.8799 5.12944 27.8755 5.12356C27.852 5.09418 27.9491 4.86797 27.7813 4.82538C27.2943 4.70052 26.3688 4.92379 25.8156 4.83125C25.6728 5.40412 26.9162 4.96198 27.1177 5.29248C27.1604 5.36299 27.2472 5.90942 26.9941 5.85801L26.8455 5.41881C26.2173 5.71553 25.483 5.81247 24.6429 5.71259H18.0482L17.8716 5.41881L17.7877 5.13384C18.2939 5.3909 18.4543 5.37034 18.6073 4.83272C18.5278 4.77396 17.5994 4.91792 17.4302 4.97814L17.4287 4.97667Z" fill="white"/>
<path id="Vector_91" d="M26.8459 5.41797V5.56486C26.3692 6.75026 25.9028 6.98822 25.4452 6.27727C25.2244 6.1392 24.4358 6.96325 24.346 7.22177C23.7575 7.71679 22.885 8.36751 22.1478 7.97825C21.8094 8.12955 21.4665 8.25588 21.1075 8.35723L20.9766 8.65101L19.4125 8.65835L18.4443 11.295H21.777L21.9904 11.5888C22.1184 11.6299 22.1169 11.6799 21.9904 11.7357L21.7152 12.0309C21.2782 12.1103 18.5076 12.3923 18.2898 12.3262C18.1633 12.288 18.0853 12.1499 18.0176 12.0295C17.7234 12.5686 16.6375 11.8943 16.5757 11.3846C16.0695 11.8106 15.1999 12.05 15.3692 11.1481C15.9709 9.54704 16.4815 7.60956 17.2981 6.09807C17.4585 5.79988 17.588 5.6148 17.8705 5.41944H26.8459V5.41797Z" fill="white"/>
<path id="Vector_92" d="M26.8451 5.56445C26.2698 7.3521 25.5385 9.07511 24.9323 10.8525C24.7101 11.4694 24.4644 12.057 24.1966 12.6152C23.8744 12.6093 23.4506 12.5065 23.5624 12.0599C23.043 12.2626 22.2441 12.2817 21.9895 11.7338V11.5869L21.8909 11.1654L22.8503 8.71083C22.2043 8.72552 21.6231 8.60801 21.1082 8.35536C21.8806 8.04248 20.7918 8.08361 21.1082 7.7678C21.1391 7.73695 21.4186 7.93525 21.6128 7.91762C21.8748 7.89412 22.0955 7.52837 22.4324 7.62238L22.3588 7.91616C23.1343 7.76339 23.8023 7.37854 24.3437 6.81301L23.9038 6.59562C24.2981 6.60443 25.1412 6.40025 24.7851 6.00806C25.0294 6.03597 25.3413 5.9493 25.565 6.00365C25.7651 6.05213 25.7415 6.57799 26.1064 6.44432C26.0535 5.98456 26.9231 6.39585 26.258 5.78479L26.8451 5.56739V5.56445Z" fill="white"/>
<path id="Vector_93" d="M15.075 14.3767C13.8125 14.1652 14.7557 12.426 15.1971 13.3632C16.102 13.4733 17.0849 13.5512 18.1428 13.5982L18.3106 13.7906C18.6887 13.3029 19.7863 13.2971 20.3514 13.4586C20.8693 13.228 21.4667 13.2398 22.145 13.4968C22.5952 12.9122 23.4162 13.3852 23.7532 13.7906C23.7076 13.8699 23.6443 14.0565 23.606 14.0844C22.9263 14.5882 20.5117 14.337 19.5539 14.3723C18.4371 14.4134 16.0505 14.8085 15.072 14.3782L15.075 14.3767Z" fill="white"/>
<path id="Vector_94" d="M18.0176 12.7617C18.2015 12.4062 18.587 12.4033 19.1741 12.7529C19.8259 12.5267 20.5337 12.4665 21.2973 12.5737C22.0345 12.4062 22.6539 12.4988 23.1557 12.8542C23.703 11.898 24.2386 12.5237 23.9031 13.3493C24.0208 13.4873 23.9311 13.6107 23.756 13.643C23.7369 13.6842 23.7766 13.7547 23.756 13.7899H22.8717L23.0203 13.4976C22.52 13.2934 22.4244 13.7547 22.3346 13.7811C22.0477 13.8634 21.1384 13.5329 20.7603 13.5476C20.0437 13.5755 19.1329 13.7723 18.3119 13.7899C18.0559 13.809 17.9529 13.784 17.9529 13.549C17.3217 13.6225 16.767 13.1172 17.4291 12.7617C17.6042 12.3504 17.8425 12.3519 18.0176 12.7617Z" fill="white"/>
<path id="Vector_95" d="M24.9325 10.8525C24.6662 11.6325 24.4587 12.4213 24.1291 13.216C24.0364 13.4407 24.1453 13.7301 23.7554 13.6434C23.8025 13.545 23.8598 13.4495 23.9025 13.3497C23.9084 12.9736 24.007 12.7298 24.1968 12.6152C24.4263 12.0277 24.5779 11.3857 24.9325 10.8525Z" fill="white"/>
<path id="Vector_96" d="M15.369 11.1467C15.8854 12.2175 16.6344 10.2492 17.2818 11.2921C16.0973 11.2657 17.5908 12.0119 18.0175 12.028C18.4574 12.0383 18.4236 12.6832 18.0175 12.7625C17.8247 12.7552 17.6202 12.7507 17.4289 12.7625C17.4789 13.1018 17.3274 13.2208 16.9743 13.118C16.6638 13.5072 16.2739 13.5733 16.0444 13.0739L15.0203 13.0372C14.8746 13.2884 14.6951 13.2032 14.6333 12.9094C14.8437 12.2925 15.1453 11.7401 15.369 11.1467Z" fill="white"/>
<path id="Vector_97" d="M14.6334 12.9085L14.7747 12.9908C14.6614 12.5956 16.093 12.7278 16.2593 12.8351C16.3961 12.9247 16.3608 13.2434 16.4726 13.2023L17.0627 12.6162C17.2186 13.12 17.2378 12.7749 17.429 12.7631C17.2333 13.5049 18.0647 13.2067 18.3133 13.3536C18.3325 13.3653 18.1618 13.6694 18.3119 13.7913C17.2848 13.8148 16.0665 13.8618 15.0248 13.6459C14.9336 13.6268 14.8939 13.1098 14.6364 13.3521C14.2876 13.6782 14.7276 14.2261 15.0763 14.3804C13.9124 14.2702 14.4083 13.5783 14.6349 12.9115L14.6334 12.9085Z" fill="white"/>
<path id="Vector_98" d="M21.9898 11.7337C22.3621 11.7396 22.7108 11.9291 23.0963 11.8953C23.5009 11.86 23.8349 11.3327 23.8643 11.9217C23.8849 12.3404 23.6348 12.1612 24.1969 12.6136C24.1042 12.8515 24.0026 13.1145 23.9026 13.348V12.6151C23.4965 12.5078 23.4406 13.1512 23.2316 13.1997C23.0418 13.2437 22.7785 12.8427 22.4886 12.8016C22.0457 12.7384 21.2438 12.9955 20.7465 12.7708C20.5125 12.8148 20.7686 13.3319 20.2992 13.3436C20.0785 13.3495 20.2168 12.9412 20.2006 12.9279C20.1005 12.8501 19.7253 12.8457 19.5664 12.7561L19.4164 13.2011C18.8307 12.9103 18.6939 12.784 18.02 12.759V12.0246C19.1471 12.0657 20.8024 11.7102 21.9927 11.7308L21.9898 11.7337Z" fill="white"/>
<path id="Vector_99" d="M21.1089 8.35523C20.6999 8.3611 19.4198 8.26856 19.1903 8.4228L18.019 11.5853H21.9918C22.5862 10.61 22.8466 9.41137 23.3145 8.3567C22.5818 8.36111 21.8417 8.34495 21.1089 8.35523ZM22.4332 8.94279L21.8446 10.8524H19.049C19.077 10.5395 19.6449 8.94279 19.8583 8.94279H22.4332Z" fill="white"/>
<path id="Vector_100" d="M12.2801 9.8259C11.7122 9.83765 11.59 9.68195 11.9137 9.35585L11.9858 8.94456C11.8858 8.8814 11.8196 8.50243 11.8343 8.38932C12.6788 6.53851 13.3675 4.66714 13.8986 2.7752C13.6235 2.59453 13.338 2.44911 13.0452 2.34041L5.33373 2.27578C4.69221 3.95913 4.03891 5.63955 3.37238 7.31556L3.01189 7.32878C2.70585 7.66662 2.56459 8.10876 2.58519 8.65666C2.21293 8.97247 1.56553 10.4766 1.87157 10.8864C2.02018 11.0862 5.65007 11.358 6.1371 11.0862C7.39954 11.3594 8.73114 11.2786 10.0304 11.192L10.2231 11.4417C10.1201 11.7795 9.8435 11.7252 9.56835 11.7443C8.61196 11.8089 7.5202 11.7311 6.54467 11.7355C6.39165 11.4916 5.98555 11.5886 5.73688 11.5856C4.68191 11.5754 3.62399 11.6047 2.57195 11.5886L2.17615 11.5166C1.1712 11.6767 0.763627 11.5048 0.953434 11.001C1.67735 8.59497 2.90742 6.16688 3.81674 3.79755C4.0654 3.1483 4.24785 2.03047 4.56567 1.46054C4.92763 0.811287 6.70652 1.29896 7.34804 1.31218C8.93272 1.34743 12.5023 1.02575 13.7824 1.49873C14.468 1.75138 14.983 2.66063 14.8712 3.3657C14.7108 4.37924 12.8422 8.88287 12.2816 9.82737L12.2801 9.8259Z" fill="white"/>
<path id="Vector_101" d="M3.01189 7.32654C3.40622 7.59535 3.31352 8.06393 2.86475 8.20788C3.1811 8.45172 3.08252 8.69702 2.57048 8.94233C2.82208 9.18763 2.67494 9.53135 2.12906 9.97055C2.06579 10.235 2.06726 10.5023 2.12906 10.7755C2.775 10.7359 3.41358 10.7608 4.04185 10.8519L4.31553 10.589C6.3475 10.824 8.36624 10.8137 10.3688 10.5581C10.5836 10.2217 10.8293 10.0748 11.1045 10.1174C11.0662 9.98084 11.1148 9.93089 11.2516 9.97055C11.2487 9.66796 11.4444 9.42266 11.8402 9.23611C11.7107 9.12153 11.7887 8.91001 11.9873 8.94233C11.9549 9.09215 12.2124 9.37712 11.8402 9.67531C12.2021 9.61802 12.3301 9.33305 12.2816 9.82367C11.8048 10.6286 11.2413 11.3293 10.2216 11.4395C9.78464 11.4865 6.58292 11.5041 6.42254 11.4027C6.34603 11.3543 6.46374 11.1442 6.32249 11.1442C6.18124 11.1442 6.30042 11.3528 6.22244 11.4027C6.09296 11.485 3.89325 11.4703 3.52246 11.4453C3.18551 11.4218 3.01189 11.2309 2.77205 11.1868C2.43805 11.1266 2.07168 11.4659 1.72591 10.7461C1.54934 10.3789 1.81566 9.03927 1.99958 8.8116C2.02459 8.78075 2.44688 8.9908 2.569 8.42381L2.27767 8.35477C2.42481 8.01986 2.42628 7.1444 3.01189 7.32507V7.32654Z" fill="white"/>
<path id="Vector_102" d="M0.951975 10.999C0.744511 11.9024 2.07611 11.1239 2.57049 11.5866C2.12025 11.5792 1.24625 11.6777 0.896063 11.5939C0.712141 11.5499 0.835737 11.3457 0.804838 11.2928C0.800424 11.1753 0.931376 11.0695 0.951975 10.999Z" fill="white"/>
<path id="Vector_103" d="M13.8986 2.77421C13.825 3.03126 13.6073 3.11793 13.2453 3.03714C13.1394 3.82153 12.5082 3.81565 11.9196 3.51453C11.8196 3.77746 11.5459 3.87 11.3134 3.73193C11.9005 4.67789 10.9279 5.24636 10.0745 4.83066L9.74785 5.16997L6.81245 5.22726L5.71628 7.75376L5.36609 7.76845C5.47791 8.3942 5.07623 8.50437 4.15956 8.09895C3.54894 8.46471 3.11635 8.50143 2.86475 8.20912C2.94714 7.97997 2.94714 7.58631 3.01188 7.32778C3.56659 6.64621 4.80108 2.17049 5.21748 1.96484L13.082 2.04857C13.6161 2.1323 13.7309 2.32619 13.9001 2.77421H13.8986Z" fill="white"/>
<path id="Vector_104" d="M2.57032 8.94301C2.84547 8.46562 3.29424 8.39951 3.91516 8.74617C4.20502 8.48471 4.58317 8.43477 5.04959 8.59635C6.18991 8.19534 7.40674 8.12336 8.51763 8.38776L8.68537 8.93419L10.6717 8.66098L10.8998 8.88866C11.2515 8.63454 11.6649 8.5846 11.6914 9.0899V9.23679C11.4663 9.463 11.3191 9.70683 11.25 9.97123C11.2058 10.0212 11.1514 10.0726 11.1028 10.1181C10.8042 10.2547 9.26803 10.2973 9.10177 10.2239C8.75599 9.83463 8.2057 9.78028 7.44941 10.0608L7.12571 9.86254C6.80789 10.0329 6.55187 10.1402 6.27084 9.8596C5.08932 10.0388 3.43402 10.2063 2.21866 10.1034C2.18482 10.1005 2.15539 10.0432 2.12891 9.97123C2.25839 9.58638 2.46144 9.25588 2.57032 8.94301Z" fill="white"/>
<path id="Vector_105" d="M4.04186 10.8526C3.39298 10.7615 2.7338 10.7366 2.06433 10.7777C1.74062 10.5162 2.6617 9.44541 2.88388 10.0594C4.08306 10.1681 5.19689 10.0697 6.22244 9.7627L6.53143 10.0212C7.4275 10.0653 8.32357 10.0433 9.22111 10.0051L9.31675 10.243C9.54776 10.0477 10.3129 10.03 10.5615 10.1358C10.7469 10.2136 10.6204 10.5339 10.3688 10.5588C10.357 10.5691 10.4159 10.7674 10.2628 10.8482C9.5301 11.2331 5.11744 10.9657 4.04333 10.8526H4.04186Z" fill="white"/>
<path id="Vector_106" d="M2.12924 9.97183C2.5015 10.0717 2.46177 9.62664 2.64569 9.53263C2.97822 9.36077 2.82814 9.93364 2.86493 9.9733C2.96498 10.0776 5.33243 9.65014 5.73117 9.67658L5.87831 9.97183C6.26381 9.17716 6.25057 9.71477 6.61841 9.76619C6.68462 9.775 7.12457 9.47681 7.33203 9.5341C7.44091 9.56348 7.4262 9.82054 7.488 9.8176C7.63072 9.81025 7.97944 9.61636 8.25606 9.58404C8.6239 9.54291 8.92112 9.85579 9.33605 9.38574C9.44934 9.53851 8.87992 10.6681 9.69801 9.9733C9.78187 9.90279 9.43316 9.53704 9.99817 9.67805L9.92607 10.1187C10.444 10.2304 10.6809 9.62517 11.1032 10.1187C10.9869 10.2274 10.9134 10.4624 10.7383 10.5711C10.5249 10.7033 10.3822 10.5476 10.3675 10.5594C10.4514 10.129 10.1394 10.248 9.85986 10.2671C9.1639 10.3126 6.9377 10.4007 6.34474 10.27C6.23144 10.245 6.24615 9.96596 6.16964 9.96302C5.93569 9.95567 5.49134 10.3405 5.12496 10.364C4.65118 10.3949 2.52798 9.9968 2.27637 10.1834C2.07921 10.3302 2.11894 10.4904 2.12924 10.7048C2.63098 10.7503 3.19451 10.6446 3.68448 10.7004C3.87282 10.721 4.0126 10.8502 4.04056 10.8532H1.83496C1.94973 10.5653 2.03065 10.2641 2.12924 9.97183Z" fill="white"/>
<path id="Vector_107" d="M11.8381 9.23633C11.6203 9.69022 11.5129 9.677 11.2496 9.97078C10.9126 9.53745 11.3172 9.38762 11.691 9.23633H11.8381Z" fill="white"/>
<path id="Vector_108" d="M2.8646 8.20897C3.26187 8.22953 3.84748 7.83146 4.13881 7.80649C4.67881 7.76242 4.90982 8.42049 5.36594 7.7683C5.28502 8.21925 5.59254 8.04445 5.87357 8.06061C6.99329 8.12524 8.27927 8.20016 9.33867 8.06061C9.36074 8.05767 9.44902 8.21338 9.54024 8.21338C9.63883 8.21338 9.62117 7.96366 9.81539 7.86965C10.5055 7.53475 10.4922 8.03123 10.7571 8.17959C11.3692 8.52478 11.8738 7.97394 11.6914 9.08737C10.9042 8.70986 11.0734 9.68227 10.3672 9.3077L10.8071 8.94195C10.27 8.97133 9.03703 9.31358 8.54118 9.20782C8.25279 9.14612 8.44848 8.49393 8.08652 8.35586L7.4965 8.79212L7.42293 8.35292C7.10806 8.35586 7.46707 8.70252 7.05803 8.64817C7.01095 8.64229 6.5401 7.77711 6.61514 8.64817C6.03248 8.47484 5.53221 8.8259 5.07167 8.88613C4.84213 8.91551 4.52137 8.73777 4.28595 8.78918C4.17118 8.81415 4.18737 9.09177 4.10497 9.09618C3.99168 9.10353 3.36634 8.84647 3.08384 8.79065C2.9058 8.7554 2.79397 8.76421 2.93817 8.94048H2.56738C2.66302 8.66726 2.77926 8.43371 2.86166 8.20603L2.8646 8.20897Z" fill="white"/>
<path id="Vector_109" d="M13.8981 2.77437C13.9334 2.86691 14.0512 2.91538 14.0585 3.13425C14.0982 4.32552 12.3135 7.44546 11.9853 8.94373C11.8971 9.02158 11.8853 9.13909 11.8382 9.23751C11.7941 9.32124 11.7455 9.31977 11.6911 9.23751C11.5631 9.19638 11.5645 9.14644 11.6911 9.09062C11.5675 8.68373 11.2438 8.48543 10.7214 8.49278C10.3094 7.97426 9.99309 7.93313 9.77533 8.37086C9.40896 8.56916 9.17354 8.44724 9.33686 8.06386L9.12939 7.74952L10.3139 5.30087C10.0681 5.2098 9.96514 5.11138 10.0711 4.83229C10.5566 4.75297 11.0245 4.8646 11.2467 4.16835C11.3644 3.79966 10.898 4.02146 10.8259 3.93773C10.7862 3.89073 10.7876 3.38543 10.8068 3.36486C10.8921 3.27232 11.491 3.56757 11.6896 3.51028L11.6146 3.2165C12.0398 3.05933 12.5989 3.71887 12.8829 3.26351C13.1212 2.88453 12.4223 2.65685 13.8937 2.77583L13.8981 2.77437Z" fill="white"/>
<path id="Vector_110" d="M12.5651 3.66668C12.596 3.68724 12.8211 4.15729 13.0153 4.24395L12.1325 4.09706C12.0589 3.85323 12.3753 3.54329 12.5651 3.66668Z" fill="white"/>
<path id="Vector_111" d="M10.0739 4.83008C8.94384 5.01369 7.81971 4.85358 6.68675 4.90059C6.45868 5.04013 5.70092 7.28901 5.36545 7.76787C5.30954 7.82369 5.26834 7.8751 5.23891 7.9221C5.14327 8.07487 5.1727 8.18357 5.27422 8.25554C5.39046 8.34074 5.5994 8.37599 5.82746 8.37599H5.8304C6.0673 8.37599 6.32479 8.33633 6.51459 8.26876C6.51607 8.26876 6.51607 8.2673 6.51754 8.2673C6.56021 8.25261 6.59993 8.23498 6.63525 8.21735L6.74413 8.2482L7.2238 8.38481C7.25911 8.3804 7.29295 8.37746 7.32827 8.37452C7.35916 8.37012 7.39154 8.36718 7.42391 8.36424C7.70935 8.34074 8.0154 8.33633 8.34352 8.34955C8.55392 8.35543 8.77169 8.37012 8.99975 8.39362L9.33523 8.06165C9.59566 7.14359 10.4299 6.05661 10.6536 5.18996C10.7551 4.79336 10.1592 5.10329 10.0709 4.83008H10.0739ZM6.39541 7.32573C6.54402 7.09952 7.03399 5.56453 7.12963 5.56453H9.77811C9.84579 5.62769 9.19103 7.04958 9.10716 7.1715C8.70695 7.75171 7.12227 7.11568 6.39541 7.32573Z" fill="white"/>
</g>
</svg>
