<svg width="144" height="22" viewBox="0 0 144 22" fill="none" xmlns="http://www.w3.org/2000/svg">
<g id="Group 1000004002">
<path id="Vector" d="M1.2604 20.5151C-0.0210612 19.2899 -0.0674384 17.3595 0.412695 15.7535C0.796801 14.472 7.31015 3.26673 8.2936 2.11109C10.4095 -0.378975 13.2969 -0.097519 15.2008 2.4356C17.6644 5.72037 22.1446 13.9025 24.0518 17.7568C24.7671 19.2005 26.0419 21.2999 23.5154 21.6343C17.3101 21.0946 10.0353 22.3098 3.96244 21.6211C3.07833 21.5217 1.90278 21.1277 1.2604 20.5151Z" fill="black"/>
<path id="Vector_2" d="M43.8633 0.759766L48.3566 1.06771L55.9526 10.7002C56.9261 10.7035 62.8765 2.2101 64.2077 1.07433L68.6977 0.763075V21.2929H64.062V8.04785L57.4395 15.826C56.7904 16.22 55.3401 16.134 54.7639 15.5247L48.1679 7.71673V21.2929H43.8633V0.763075V0.759766Z" fill="black"/>
<path id="Vector_3" d="M92.2075 0.759766V4.40215H78.6314V9.03792H90.5519V12.6803H78.6314V17.6472H92.2075V21.2896H73.9956V0.759766H92.2075Z" fill="black"/>
<path id="Vector_4" d="M25.8732 1.53121C28.1083 5.86235 31.6646 10.412 33.6613 14.7696C34.6712 16.9716 35.1845 19.0776 32.9163 20.7696C30.6845 22.4352 28.4262 21.6604 26.8334 19.6107C25.2407 17.561 20.3666 9.12725 19.3037 6.61069C17.3401 1.96499 21.9129 -1.37938 25.8732 1.53121Z" fill="black"/>
<path id="Vector_5" d="M143.201 0.759766V4.40215H135.089C134.125 4.40215 131.552 5.36242 130.807 6.08097C128.794 8.0313 128.89 13.0412 130.473 15.3061C131.135 16.2532 133.337 17.6472 134.423 17.6472H143.198V21.2896H133.099C132.625 21.2896 130.413 20.5214 129.827 20.2565C123.195 17.2465 123.065 4.83593 129.827 1.79619C130.426 1.52798 132.609 0.759766 133.095 0.759766H143.195H143.201Z" fill="black"/>
<path id="Vector_6" d="M123.002 0.759766L114.78 11.1373L123.002 21.2896H117.539C117.022 21.2896 111.956 14.1406 110.929 13.3293L110.923 8.71342C112.026 7.96507 117.022 0.759766 117.539 0.759766H123.002Z" fill="black"/>
<path id="Vector_7" d="M96.8433 21.2896L105.138 11.1737L104.959 10.3691L97.1744 0.759766H102.307C102.823 0.759766 107.936 7.89222 108.916 8.72004C109.231 9.5015 109.224 12.2664 109.015 13.0975C108.886 13.6108 102.837 21.2896 102.307 21.2896H96.8433Z" fill="black"/>
</g>
</svg>
