<svg width="88" height="27" viewBox="0 0 88 27" fill="none" xmlns="http://www.w3.org/2000/svg">
<g id="Group 1000004040">
<path id="Vector" d="M70.4253 8.77144L77.9645 8.75488C78.4783 8.79841 78.6287 9.02527 78.6704 9.52127C78.5384 11.8413 78.838 14.3391 78.6704 16.6383C78.6324 17.1625 78.5268 17.4127 77.9638 17.4654C75.6311 17.6849 72.9607 17.2937 70.5917 17.466C70.1669 17.4249 69.9876 17.2459 69.9471 16.8222C69.72 14.4605 70.1252 11.7377 69.949 9.33795C69.9846 9.04121 70.1368 8.8493 70.4247 8.77082L70.4253 8.77144Z" fill="white"/>
<path id="Vector_2" d="M61.6456 0.125614L69.5856 0.139714C69.8655 0.262337 69.9263 0.470183 69.9533 0.753441C70.1713 3.0845 69.7833 5.74909 69.9533 8.11571C69.9521 8.38609 69.841 8.62153 69.5856 8.72944H61.599C61.378 8.66015 61.2288 8.33766 61.2306 8.11632C61.4081 5.75584 61.0053 3.07469 61.2306 0.752827C61.257 0.482444 61.3608 0.211449 61.6456 0.125V0.125614Z" fill="white"/>
<path id="Vector_3" d="M61.6456 17.4762L69.5856 17.4903C69.8655 17.6129 69.9263 17.8208 69.9533 18.104C70.1713 20.4351 69.7833 23.0997 69.9533 25.4663C69.9521 25.7367 69.841 25.9721 69.5856 26.08H61.599C61.378 26.0107 61.2288 25.6882 61.2306 25.4669C61.4081 23.1064 61.0053 20.4253 61.2306 18.1034C61.257 17.833 61.3608 17.562 61.6456 17.4756V17.4762Z" fill="white"/>
<path id="Vector_4" d="M79.0185 0.124954L86.8664 0.108398C87.1291 0.14212 87.3391 0.433962 87.3262 0.69147C87.1543 3.09978 87.5447 5.80423 87.3262 8.17697C87.2918 8.55097 87.1175 8.7251 86.743 8.75943C84.3464 8.97954 81.6177 8.58531 79.1855 8.76066C78.7324 8.74043 78.6373 8.38543 78.6041 7.99243C78.7551 5.69019 78.4107 3.14944 78.6041 0.876017C78.6281 0.595825 78.6925 0.197914 79.0185 0.124954Z" fill="white"/>
<path id="Vector_5" d="M79.0203 17.4785L86.9585 17.4908C87.2144 17.6152 87.301 17.7679 87.3262 18.0432C87.5447 20.4166 87.1543 23.1204 87.3262 25.5287C87.3366 25.8052 87.0984 26.1265 86.805 26.1118C84.3519 25.937 81.6042 26.3313 79.1861 26.1112C78.7097 26.0676 78.6409 25.7795 78.6035 25.3441C78.4089 23.0719 78.7557 20.5288 78.6035 18.2277C78.6336 17.9046 78.6845 17.603 79.0197 17.4785H79.0203Z" fill="white"/>
<path id="Vector_6" d="M39.5021 8.75777H47.7589C47.9332 8.75777 48.2475 9.13238 48.2205 9.339C48.0517 11.7252 48.4403 14.4107 48.2211 16.7614C48.196 17.0287 48.0087 17.464 47.6969 17.464H39.5015V25.7104C39.5015 25.8244 39.1436 26.1536 38.9809 26.1101C36.5493 25.9403 33.8218 26.3308 31.4259 26.1119C31.1619 26.088 30.9532 26.0175 30.8623 25.7563L30.8734 0.415748C30.9446 0.236719 31.1091 0.115937 31.3049 0.111032L39.0442 0.109191C39.1823 0.0644341 39.5015 0.436597 39.5015 0.510783V8.75716L39.5021 8.75777Z" fill="white"/>
<path id="Vector_7" d="M56.7303 0.256459C56.7862 0.312252 56.8248 0.392571 56.8586 0.464305L56.8782 8.30051C56.8445 8.56292 56.5523 8.77261 56.2944 8.75973C53.8831 8.58806 51.1753 8.978 48.7995 8.75973C48.4251 8.7254 48.2507 8.55127 48.2163 8.17727C47.9959 5.78368 48.3907 3.05839 48.2151 0.629237C48.2126 0.336782 48.4441 0.105638 48.7369 0.10809C51.1826 0.290798 53.9494 -0.119988 56.3564 0.10809C56.5056 0.122192 56.6198 0.146099 56.7297 0.256459H56.7303Z" fill="white"/>
<path id="Vector_8" d="M56.7302 25.9642C56.6197 26.0745 56.5055 26.0984 56.3569 26.1125C53.9499 26.3406 51.1825 25.9298 48.7374 26.1125C48.4446 26.115 48.2131 25.8838 48.2156 25.5914C48.3912 23.1622 47.9964 20.4369 48.2168 18.0434C48.2512 17.6694 48.4255 17.4952 48.8 17.4609C51.1764 17.2426 53.8836 17.6326 56.2949 17.4609C56.5528 17.4486 56.845 17.6583 56.8787 17.9201L56.8591 25.7563C56.8253 25.8281 56.7866 25.9084 56.7308 25.9642H56.7302Z" fill="white"/>
<path id="Vector_9" d="M0.394531 0.109375V26.1115L26.4902 26.1109V0.109375H0.394531ZM17.7429 17.0987C17.6735 17.3195 17.3506 17.4685 17.129 17.4666C14.7594 17.2956 12.0915 17.6843 9.75689 17.466C9.35172 17.428 9.15037 17.3048 9.11169 16.8842C8.88947 14.4728 9.28542 11.7242 9.11354 9.27726C9.1295 9.00688 9.33208 8.81742 9.58991 8.77205L17.3427 8.78615L17.7429 9.12214V17.0987Z" fill="white"/>
</g>
</svg>
