<svg width="135" height="39" viewBox="0 0 135 39" fill="none" xmlns="http://www.w3.org/2000/svg">
<g id="Group 1000004036">
<path id="Vector" d="M19.9701 0.220703C9.35046 0.220703 0.741699 8.7277 0.741699 19.2218C0.741699 29.7159 9.35046 38.2207 19.9701 38.2207C30.5897 38.2207 39.1985 29.7159 39.1985 19.2218C39.1985 8.7277 30.5897 0.220703 19.9701 0.220703ZM9.45771 22.5204C8.00765 22.5204 6.83464 21.359 6.83464 19.9283C6.83464 18.4976 8.00765 17.3363 9.45771 17.3363C10.9078 17.3363 12.0785 18.4976 12.0785 19.9283C12.0785 21.359 10.9055 22.5204 9.45771 22.5204ZM12.579 12.066C13.5778 12.066 16.5851 11.8651 17.2711 12.066C17.8095 12.2228 17.7202 13.17 17.0476 13.17H12.579C12.159 13.17 12.159 12.066 12.579 12.066ZM13.5845 20.1248C13.5845 19.1004 13.3744 15.7157 13.5845 15.0467C13.8012 14.36 15.287 14.4483 15.6579 15.2079C15.9171 15.7378 15.9327 19.7142 15.7026 20.2308C15.2334 21.2729 13.5845 20.9042 13.5845 20.1248ZM19.4987 27.3115C18.4329 27.2762 14.3776 26.4284 14.2458 25.1942C14.2123 24.8784 14.2816 24.5561 14.6212 24.4501C15.3093 24.2315 16.4578 25.2008 17.1616 25.4216C18.7703 25.9294 20.4974 25.8366 22.1195 25.4679C22.9864 25.2714 25.6519 23.6707 25.6564 25.203C25.6609 26.4571 20.589 27.3468 19.4987 27.3115ZM26.0429 20.8446C25.6765 21.2089 24.5772 21.1935 24.2912 20.7497C23.9583 20.2308 23.9516 15.7201 24.2912 15.252C24.8789 14.4439 26.1323 14.7773 26.3155 15.7135C26.4451 16.3803 26.4027 20.4869 26.0429 20.8446ZM27.6606 12.6158C27.4818 12.8035 27.3232 13.0441 27.0551 13.1236C26.6663 13.2384 23.0244 13.2539 22.6647 13.1391C22.1977 12.9889 22.2871 12.4789 22.2982 12.066H27.3254C27.3947 12.066 27.7432 12.4281 27.6606 12.6158ZM29.4413 22.3393C27.026 21.7101 27.4997 17.8927 29.6066 17.4113C34.111 16.3869 34.1646 23.5691 29.4413 22.3393ZM32.3727 15.9497C31.8588 17.0537 31.6711 14.6736 31.2444 14.1547C30.7819 13.5895 29.8256 13.5784 29.2246 13.2804C31.6734 12.4127 31.2399 12.3332 31.9013 10.1827C31.9996 9.87139 31.7605 9.79191 32.3504 9.85814C32.4196 10.3858 32.6565 11.9291 32.9112 12.2868C33.2329 12.7328 34.7902 12.629 35.0338 13.3886C32.4353 13.5784 33.1212 14.3512 32.3727 15.9497Z" fill="white"/>
<path id="Vector_2" d="M104.297 15.3777C103.591 15.2629 102.364 15.5609 101.757 15.349C101.444 15.2408 101.229 14.245 100.61 13.8322C98.8989 12.6885 94.6761 13.5253 95.753 15.9848C96.8143 18.4069 103.884 17.303 104.5 21.69C105.541 29.0975 92.8797 28.8878 92.2787 23.1539C92.2385 22.7697 92.1245 22.4098 92.6004 22.2553C92.844 22.1758 95.038 22.1427 95.1274 22.231C95.1654 22.2685 95.152 22.9419 95.3039 23.2665C96.6088 26.0285 102.921 24.8429 101.5 21.7806C100.552 19.7405 93.4673 20.4779 92.73 16.539C91.4118 9.5069 104.022 8.78712 104.297 15.3755V15.3777Z" fill="white"/>
<path id="Vector_3" d="M83.5183 19.7932C86.0766 18.0224 87.044 13.854 90.896 15.0418C91.2803 15.2538 90.5608 15.9978 90.4402 16.1435C89.9642 16.722 86.6061 19.9742 86.6664 20.312L91.1328 26.291L91.3383 27.0792C90.3888 26.9556 88.8873 27.3508 88.0852 26.8739C87.5758 26.5714 85.5247 23.2772 84.9125 22.5023C84.7226 22.2638 84.7069 21.9922 84.3048 21.9989C84.231 21.9989 83.5607 23.0366 83.525 23.2198C83.3664 24.0235 83.7574 26.3992 83.4244 26.8717C83.1161 27.3088 81.2259 26.9799 80.6182 27.0792V11.2928C80.6182 10.7982 83.5228 10.7982 83.5228 11.2928V19.7932H83.5183Z" fill="white"/>
<path id="Vector_4" d="M67.6548 14.9363C69.6746 14.9386 70.6823 14.4153 70.3382 16.9234C71.7145 14.625 75.2603 14.1261 77.1282 16.0624C77.3718 16.3163 78.156 17.6653 78.156 17.917V27.0797C73.9175 27.5015 75.5195 26.1988 75.4882 23.4279C75.4726 21.9928 75.0727 20.3545 75.2045 18.8465C74.5968 16.7711 71.1314 16.8351 70.6152 18.8531C70.2466 20.2927 70.9236 26.2187 70.4633 26.8722C70.155 27.3094 68.2647 26.9804 67.657 27.0797V14.9363H67.6548Z" fill="white"/>
<path id="Vector_5" d="M121.745 10.9512H118.82V27.0908H121.745V10.9512Z" fill="white"/>
<path id="Vector_6" d="M65.1968 14.9362V27.0796C64.5779 26.9824 62.6989 27.3092 62.3906 26.872C61.8834 26.1545 62.5514 16.9233 62.3235 15.2983C62.5492 14.6138 64.5645 15.0554 65.1968 14.9362Z" fill="white"/>
<path id="Vector_7" d="M63.7644 13.4192C64.659 13.4192 65.3843 12.7025 65.3843 11.8185C65.3843 10.9344 64.659 10.2178 63.7644 10.2178C62.8698 10.2178 62.1445 10.9344 62.1445 11.8185C62.1445 12.7025 62.8698 13.4192 63.7644 13.4192Z" fill="white"/>
<path id="Vector_8" d="M59.0504 12.5096C58.4426 11.929 56.2686 10.9619 55.4777 10.9619H48.9982C48.9737 10.9619 48.6631 11.2688 48.6631 11.2931V27.0795H51.5677V21.891C51.5677 21.8667 51.8782 21.5598 51.9028 21.5598H56.5949C56.9903 21.5598 58.6549 20.5397 59.0146 20.1975C61.0232 18.2987 61.0545 14.4173 59.0504 12.5096ZM53.9226 19.3585C53.4892 19.3872 51.5677 19.4711 51.5677 19.0207C51.5677 17.8704 51.3353 14.5453 51.5677 13.7218C51.6012 13.6003 51.8894 13.3619 52.0726 13.4325C54.0545 13.9271 57.111 12.8165 57.3903 15.6934C57.6427 18.2921 56.4094 19.2062 53.9226 19.3585Z" fill="white"/>
<path id="Vector_9" d="M115.788 16.7183C114.056 14.1726 108.92 14.3162 107.11 16.725C106.875 17.0385 106.254 17.9018 106.54 18.2396C106.659 18.3809 108.734 18.5597 109.056 18.4714C109.259 18.4162 109.574 17.469 110.318 17.2438C111.827 16.7846 114.005 17.2416 113.415 19.1956C113.161 20.0412 109.865 20.0677 108.944 20.3017C103.685 21.6331 105.691 28.387 111.237 27.2036C112.354 26.9629 112.928 26.2653 113.679 25.5344C113.739 25.8325 113.603 27.0049 113.679 27.0822C113.775 27.1749 115.938 27.0115 116.362 27.08V17.6964C116.362 17.639 115.891 16.8685 115.788 16.7183ZM111.125 25.1039C109.865 25.2055 108.607 25.0421 108.768 23.4568C108.947 21.6684 112.104 21.8693 113.458 21.5602C113.661 23.4855 113.324 24.9229 111.125 25.1039Z" fill="white"/>
<path id="Vector_10" d="M134.684 21.7807C135.155 17.4753 132.688 14.3489 128.113 14.9539C121.66 15.8105 121.481 28.0136 130.077 27.2717C132.038 27.1039 134.409 25.9514 134.462 23.7678C133.631 23.8782 132.802 23.2975 132.007 23.6618C131.674 23.8119 131.352 24.4235 130.999 24.6531C128.946 25.9823 125.961 24.2866 126.417 21.7807H134.684ZM129.435 17.1242C131.518 17.1971 132.563 20.0144 131.667 20.0144H126.417C126.245 18.3187 127.784 17.069 129.435 17.1242Z" fill="white"/>
</g>
</svg>
