<svg width="196" height="26" viewBox="0 0 196 26" fill="none" xmlns="http://www.w3.org/2000/svg">
<g id="Group 1000004044">
<path id="Vector" d="M60.588 1.12402V15.011C61.6183 14.4653 65.338 8.51019 65.7534 8.51019H71.8044L65.5949 16.3396L71.8044 25.0557H65.7534C65.3268 25.0557 61.6121 18.8421 60.588 18.2602V24.6124C60.588 24.6436 60.1763 25.0557 60.1452 25.0557H55.2754V1.12402H60.588Z" fill="white"/>
<path id="Vector_2" d="M106.631 13.2387H101.615C101.444 13.2387 101.752 11.3344 99.1011 11.438C97.1614 11.5129 96.7186 13.2199 98.5809 14.0603C101.429 15.3465 106.97 15.128 106.896 19.8556C106.781 27.3017 92.4937 27.3454 91.875 20.0342H97.1876C97.2312 20.0342 97.1551 20.5911 97.3447 20.8971C98.2828 22.4068 102.201 22.2419 101.575 19.9493C101.036 17.9788 93.3756 19.0814 92.5349 14.5011C91.0168 6.23712 106.348 5.71265 106.633 13.2387H106.631Z" fill="white"/>
<path id="Vector_3" d="M159.169 1.12402V8.51019H162.71V12.6472H159.169V19.5901C159.169 20.8575 162.064 21.3458 163.005 20.624V25.0557H157.546C156.026 25.0557 153.856 22.2099 153.856 20.7713V1.12402H159.169Z" fill="white"/>
<path id="Vector_4" d="M114.305 1.12402V8.51019H118.142V12.6472H114.305V19.2954C114.305 20.7314 117.322 21.2196 118.438 20.9199V25.0569H112.682C112.553 25.0569 110.678 23.9656 110.462 23.7333C110.222 23.4761 109.288 21.5743 109.288 21.3632V1.12402H114.305Z" fill="white"/>
<path id="Vector_5" d="M52.3243 1.12402H46.998V25.0569H52.3243V1.12402Z" fill="white"/>
<path id="Vector_6" d="M151.494 8.21508V13.2374C149.24 13.1288 147.14 13.0127 146.12 15.3915C146.025 15.6112 145.592 17.1222 145.592 17.2271V24.7618C144.857 24.4172 140.279 25.611 140.279 24.6145V8.51103H145.592C145.725 8.51103 145.377 10.8424 145.738 11.1683C146.923 8.88814 148.911 7.94411 151.494 8.21508Z" fill="white"/>
<path id="Vector_7" d="M195.471 8.21565V13.238C193.217 13.0694 191.165 13.0931 190.186 15.4807C190.035 15.8478 189.568 17.5561 189.568 17.817V24.7599L184.551 25.0559V8.5116H189.568C189.702 8.5116 189.354 10.843 189.714 11.1689C191.046 8.98237 192.854 7.87975 195.471 8.21565Z" fill="white"/>
<path id="Vector_8" d="M4.47357 20.0964C6.67945 20.0964 8.46768 18.3063 8.46768 16.098C8.46768 13.8898 6.67945 12.0996 4.47357 12.0996C2.26769 12.0996 0.479492 13.8898 0.479492 16.098C0.479492 18.3063 2.26769 20.0964 4.47357 20.0964Z" fill="white"/>
<path id="Vector_9" d="M35.1568 7.99314C23.2717 8.44143 23.6085 27.0586 37.6815 25.3191C47.6455 24.0879 47.5632 7.52487 35.1568 7.99314ZM34.78 20.9024C31.119 20.313 30.5377 12.8044 35.4387 12.4136C41.1517 11.9591 41.2265 21.9426 34.78 20.9024Z" fill="white"/>
<path id="Vector_10" d="M19.1205 1.12427C15.5443 0.617287 10.8666 1.50138 7.16688 1.12427V10.8743C7.16688 10.9267 7.80679 11.0054 8.14234 11.2151C11.0126 13.0183 12.0741 16.3062 10.0683 19.2457C9.33358 20.3233 7.40263 21.1212 7.22425 21.7169C6.96605 22.5722 7.28164 23.8384 7.16688 24.7612H12.7751V18.2617H19.1205C19.5122 18.2617 21.1537 17.4837 21.634 17.2315C28.4559 13.6526 26.505 2.17319 19.1205 1.12427ZM17.3492 13.83H12.7751V5.55596H17.3492C17.842 5.55596 19.6968 7.12061 19.9301 7.70001C20.7284 9.68297 19.7455 13.83 17.3492 13.83Z" fill="white"/>
<path id="Vector_11" d="M182.114 14.6431C180.968 6.29797 167.479 5.64114 165.155 13.764C163.622 19.1223 166.237 24.6778 172.044 25.3147C176.188 25.7692 180.885 24.5717 181.895 20.0339H176.582C176.543 20.0339 176.573 20.5408 176.28 20.7531C174.016 22.3914 169.991 21.355 170.089 18.2607H181.747C182.432 18.2607 182.198 15.2575 182.114 14.6431ZM176.878 15.0103H170.089C169.759 10.4287 177.428 10.174 176.878 15.0103Z" fill="white"/>
<path id="Vector_12" d="M84.4952 8.5106C84.3917 8.5106 84.5725 10.3038 84.4927 10.5772C83.9638 10.295 83.9065 9.72435 83.2977 9.26482C79.9186 6.71494 74.4775 8.39946 72.6364 12.1506C68.5699 20.4358 76.7215 30.021 84.4927 22.9882C84.4927 23.5464 84.3318 24.8688 84.938 25.0561C85.5867 25.2571 88.397 25.0561 89.365 25.0561C89.3962 25.0561 89.8078 24.644 89.8078 24.6128V8.5106H84.4952ZM80.208 20.9253C75.7311 20.4196 76.0081 12.9985 80.2953 12.4091C85.7813 11.6549 86.7143 21.6608 80.208 20.9253Z" fill="white"/>
<path id="Vector_13" d="M132.9 8.51122C132.796 8.51122 132.977 10.3031 132.897 10.5778C132.322 10.1583 132.244 9.64006 131.524 9.14931C127.68 6.53325 122.282 8.76221 120.714 13.0066C117.639 21.3281 125.613 29.7119 132.897 22.9888C132.897 23.547 132.736 24.8694 133.343 25.0567C133.991 25.2578 136.802 25.0567 137.77 25.0567C137.801 25.0567 138.212 24.6446 138.212 24.6134V8.51122H132.9ZM125.589 15.2268C126.147 12.4984 129.956 11.4707 131.913 13.3388C132.511 13.9094 133.143 15.5103 133.203 16.3469C133.667 22.8078 124.065 22.6867 125.589 15.2268Z" fill="white"/>
</g>
</svg>
