<svg width="114" height="34" viewBox="0 0 114 34" fill="none" xmlns="http://www.w3.org/2000/svg">
<g id="Group 1000004041">
<path id="Vector" d="M15.9234 8.94407L16.0262 9.05584C16.0521 9.38045 16.0683 9.70645 16.0739 10.0329C16.0813 10.473 16.079 12.0075 15.9039 12.3252C15.878 12.3725 15.833 12.4017 15.7844 12.4221L15.8418 12.5608C15.7533 12.865 15.638 13.1604 15.5176 13.4539C14.6263 15.6284 13.2259 17.3642 11.7458 19.1779C10.6586 20.5923 9.63531 22.1949 9.55981 24.03C9.49217 25.6772 10.1889 27.4199 11.0125 28.8125V28.9776L11.1617 29.0221C12.3851 30.5747 14.4248 29.4274 15.6037 28.4151L15.7385 28.4211L10.811 33.6122C9.69693 32.3657 8.61247 31.1261 7.83932 29.6278C7.2473 28.48 6.6613 26.8295 6.52001 25.5459C6.47322 25.4982 6.42366 25.4448 6.4093 25.3776C6.29858 24.8587 6.27866 22.4217 6.57559 22.0925C6.59968 22.0656 6.62887 22.0433 6.65898 22.022L6.61173 21.8569C6.70577 21.5527 6.82159 21.2559 6.94388 20.9614C7.85276 18.7688 9.2675 17.0433 10.7652 15.2236C12.2035 13.3069 13.2338 11.58 12.7492 9.09989C12.5125 7.8886 12.0507 6.66526 11.3854 5.6288L11.384 5.46649L11.2353 5.42476C9.97116 3.88236 7.92873 5.10153 6.747 6.12176L6.61312 6.11572L6.56772 6.02901C8.1673 4.32292 9.76826 2.61543 11.3706 0.906554L11.5703 0.829102H11.6166C12.2939 1.69629 13.0809 2.48094 13.7114 3.39265C14.6976 4.81911 15.764 7.212 15.9247 8.94453L15.9234 8.94407Z" fill="white"/>
<path id="Vector_2" d="M11.3835 5.46629C11.3214 5.5697 11.2575 5.67173 11.1884 5.77004C11.1194 5.86835 11.0499 5.96482 10.9707 6.05339C9.52356 7.67462 8.02682 9.18455 6.52221 10.688C5.35716 11.9294 4.07583 13.3086 3.74786 15.03C3.25636 17.6084 4.36721 20.376 6.55232 21.8432L6.6584 22.0218C6.34942 23.1037 6.39667 24.4309 6.51943 25.5462C3.5709 24.0831 1.40061 21.6285 0.705285 18.3587L0.49729 17.1525C0.532959 16.5497 0.449113 15.8939 0.49729 15.2976C0.487099 13.1964 1.68921 11.3442 2.97795 9.77675C4.04202 8.48246 5.25525 7.24103 6.49859 6.13408L6.61208 6.11552C7.85264 5.01646 10.0827 3.68785 11.3835 5.46629Z" fill="white"/>
<path id="Vector_3" d="M15.7378 28.4214C14.4944 29.5163 12.2755 30.766 11.0127 28.9779C11.0794 28.8503 11.1498 28.7219 11.2485 28.6157C12.8726 26.872 14.5046 25.1585 16.17 23.502C17.1006 22.5031 18.1503 21.329 18.5441 20.0008C19.3548 17.2671 18.1777 14.2426 15.8865 12.6056L15.7841 12.4224C16.0324 11.4875 16.0111 9.89361 15.9231 8.94434C18.8864 10.4028 21.0789 12.9302 21.7455 16.2162C22.4798 19.8348 21.3439 22.4359 19.0045 25.0829C18.0794 26.1296 16.7777 27.5059 15.7382 28.4214H15.7378Z" fill="white"/>
<path id="Vector_4" d="M82.63 25.7772H79.9664L79.9043 25.7002L79.7111 24.2932C78.8954 25.248 77.7456 25.9029 76.486 26.0494C71.0226 26.6847 68.7911 19.8719 71.3538 15.8105C73.0858 13.0652 76.8566 12.3876 79.3873 14.4619V7.50586H82.5605C82.5656 7.50586 82.63 7.57032 82.63 7.57542V25.7772ZM76.1344 16.2371C73.3179 16.5543 72.9052 21.035 74.8253 22.5764C76.379 23.8239 79.1765 23.0003 79.3869 20.8843C79.454 20.2091 79.4559 18.3453 79.2243 17.7554C78.7309 16.4978 77.3884 16.0957 76.134 16.2371H76.1344Z" fill="white"/>
<path id="Vector_5" d="M40.4286 13.8131H36.9543C36.8686 12.5267 36.1057 11.7063 34.8702 11.4244C33.5069 11.1132 30.6533 11.2458 30.4745 13.0999C30.3471 14.422 31.3875 14.8403 32.4604 15.1352C35.7818 16.0483 40.9933 16.071 40.7524 20.8846C40.518 25.5661 35.2093 26.7194 31.432 25.8105C28.8291 25.184 26.6981 23.3146 26.624 20.4909H30.0983C30.2716 21.8919 31.3505 22.8008 32.6832 23.074C34.4338 23.4334 37.3569 23.0345 37.1391 20.6542C37.0423 19.5982 36.0343 19.1127 35.1305 18.8618C32.3627 18.0939 27.3518 17.9877 27.0006 14.1549C26.5388 9.11588 32.138 7.64072 36.0936 8.71567C38.5363 9.37928 40.3003 11.2078 40.4286 13.8131Z" fill="white"/>
<path id="Vector_6" d="M54.604 20.7231H45.9877C46.091 21.6038 46.5802 22.5363 47.3765 22.9732C48.6203 23.6553 50.8207 23.327 51.176 21.7433H54.3724C54.2848 23.2783 53.3648 24.5119 52.0571 25.2455C49.8127 26.5046 46.5158 26.3882 44.5507 24.6422C42.0112 22.3861 41.9658 17.6244 44.182 15.136C46.6765 12.335 51.9769 12.6044 53.8244 16.0078C54.6239 17.4811 54.6475 19.0806 54.604 20.7227V20.7231ZM51.2223 18.2653C51.1663 17.4904 50.7234 16.6056 50.0031 16.2629C49.5167 16.031 48.9501 15.9999 48.4174 16.0375C47.1722 16.1251 46.3203 17.1087 46.034 18.2658H51.2223V18.2653Z" fill="white"/>
<path id="Vector_7" d="M68.4547 20.7228H59.8384C59.9431 21.5895 60.4156 22.523 61.1971 22.9566C62.4557 23.6555 64.6552 23.342 65.0267 21.743H68.2231C68.1563 22.3973 68.0183 22.9784 67.6866 23.5479C66.2019 26.0957 62.1949 26.6767 59.6827 25.4928C55.4001 23.4746 55.3704 16.4077 59.3608 14.0542C61.4171 12.8415 64.6204 12.9584 66.4632 14.5319C68.3217 16.1188 68.5571 18.4055 68.4547 20.7232V20.7228ZM65.073 18.265C65.0137 17.4692 64.5653 16.5904 63.8213 16.2486C63.3433 16.0288 62.7888 16.0005 62.2681 16.0372C61.0099 16.1257 60.1742 17.0987 59.8847 18.2654H65.073V18.265Z" fill="white"/>
<path id="Vector_8" d="M88.9765 13.8594H85.6875V26.1021H88.9765V13.8594Z" fill="white"/>
<path id="Vector_9" d="M88.9765 9.03613H85.6875V12.1432H88.9765V9.03613Z" fill="white"/>
<path id="Vector_10" d="M113.482 13.6748C111.922 18.1689 110.583 22.7423 108.964 27.2146C108.066 29.3849 107.054 30.6949 104.681 31.2741C104.529 31.3112 103.623 31.5018 103.567 31.4634L102.873 28.7931C104.002 28.5594 104.989 28.0553 105.607 27.055C105.722 26.87 105.909 26.6293 105.884 26.4091L101.33 13.7592L101.298 13.5361H104.611L107.576 22.3013L110.143 13.602L113.482 13.5361V13.6753L113.482 13.6748Z" fill="white"/>
<path id="Vector_11" d="M96.4348 13.8598H100.233V16.6422H96.4348V26.1025H93.2616C93.2565 26.1025 93.1921 26.038 93.1921 26.0329V16.6422H90.8296V14.3699L93.1722 13.9558C93.1514 11.7985 93.5762 9.25302 95.6163 8.10156C97.2209 7.19587 99.696 7.29326 101.293 8.17807L100.257 10.8446C99.4755 10.443 98.2674 10.2278 97.459 10.6419C96.426 11.1715 96.4501 12.8586 96.4348 13.8598Z" fill="white"/>
</g>
</svg>
