<svg width="146" height="32" viewBox="0 0 146 32" fill="none" xmlns="http://www.w3.org/2000/svg">
<g id="Group 1000004000">
<path id="Vector" d="M100.002 11.9017C100.246 12.99 98.6251 11.9919 98.5824 13.0141C98.5536 13.7028 99.2423 15.434 99.4949 16.1639C100.425 18.8504 101.492 21.4949 102.478 24.1604C102.602 24.0952 102.641 23.8993 102.692 23.7733C103.543 21.6931 104.397 19.3837 105.115 17.2529C105.609 15.7908 106.624 13.6266 104.809 12.6837C104.457 12.5003 103.644 12.5189 103.805 11.9895C103.871 11.7703 104.569 11.7307 104.796 11.7175C106.026 11.6436 108.378 11.5962 109.552 11.7828C109.849 11.8294 109.915 11.8963 109.876 12.2103C109.834 12.564 109.272 12.4489 108.956 12.5523C107.874 12.9037 108.497 14.3239 108.725 15.0756C109.51 17.6642 110.666 21.1607 111.796 23.586C111.845 23.6909 111.941 23.9879 112.079 23.9902C113.222 21.0985 114.372 18.1928 115.378 15.2482C115.532 14.7958 116.029 13.5543 116.052 13.168C116.101 12.3121 114.934 12.6122 114.6 12.4124C114.348 12.2616 114.418 11.8621 114.73 11.7905C115.463 11.6226 117.35 11.6732 118.16 11.719C118.331 11.7283 119.069 11.7944 119.135 11.8908C119.261 12.4062 118.587 12.4583 118.28 12.6464C117.92 12.8687 117.665 13.4284 117.488 13.8039L112.279 27.0553C112.117 27.224 111.105 27.3592 110.967 27.1672L106.863 16.7679C106.748 16.8588 106.68 16.9614 106.612 17.0889C106.343 17.5989 106.097 18.3715 105.875 18.9312C104.786 21.6706 103.804 24.4535 102.736 27.2006L102.621 27.2605L101.337 27.1369C100.3 24.4022 99.2952 21.6512 98.2209 18.9312C97.5438 17.2164 96.8582 15.2909 96.049 13.6507C95.7777 13.1011 95.6292 12.7366 94.9996 12.5212C94.684 12.4132 94.258 12.4863 94.2471 11.9787C94.2424 11.7462 94.9016 11.7315 95.1084 11.7198C96.2713 11.6514 97.9076 11.6491 99.069 11.7198C99.2314 11.7299 99.9427 11.8069 100.003 11.904L100.002 11.9017Z" fill="white"/>
<path id="Vector_2" d="M56.9458 11.7894C59.1286 14.3819 61.4661 16.8414 63.7522 19.3437C64.8452 20.54 65.8495 21.8343 67.0762 22.9001C67.2145 22.9218 67.1485 22.8371 67.1601 22.7547C67.1811 22.6093 67.2145 22.4399 67.2223 22.2999C67.3646 19.8707 67.2674 16.9425 67.1601 14.5032C67.1446 14.1448 67.1765 13.7818 67.1632 13.4234C66.8235 13.1762 66.4994 12.7992 66.1123 12.6274C65.6474 12.4214 64.8452 12.5932 65.1701 11.8493C65.223 11.8042 66.1239 11.7164 66.2739 11.7156C67.4104 11.7109 68.6946 11.7164 69.8272 11.8369C70.0456 11.8602 70.5781 11.906 70.481 12.2007C70.1786 12.5784 69.0623 12.5318 68.9084 12.9803C68.8695 13.0931 68.8415 13.3379 68.8252 13.4708C68.7514 14.0678 68.7918 14.7084 68.7692 15.3069C68.641 18.7762 68.7125 22.2665 68.5928 25.7358C68.578 26.1649 68.6083 26.5994 68.5951 27.0285C67.9188 27.1195 67.6102 26.9259 67.1314 26.5139C65.7422 25.3184 64.2653 23.5344 63.0044 22.1561C61.1614 20.142 59.3843 17.9103 57.5024 15.963C57.4456 15.9039 56.9474 15.3901 56.8999 15.4476C56.6893 17.569 56.823 19.7106 56.7826 21.8421C56.9901 22.8721 56.6458 24.6817 57.1549 25.5974C57.5032 26.2248 58.6039 26.0289 58.8985 26.5489C59.1496 26.9912 58.3784 27.0107 58.0776 27.0309C57.1129 27.0938 54.5959 27.1506 53.733 26.9562C53.2464 26.8466 53.4112 26.4129 53.8162 26.2667C54.2468 26.1105 54.6247 26.1665 54.9193 25.7078C55.4642 24.8597 55.3266 21.584 55.3491 20.4623C55.388 18.5213 55.4681 16.5577 55.3538 14.6143C55.2986 13.6737 55.1253 12.8078 54.0922 12.5512C53.6265 12.4354 52.6525 12.6507 52.8958 11.9317C52.951 11.7692 53.59 11.7304 53.7727 11.7195C54.8299 11.6557 55.8925 11.7778 56.945 11.7918L56.9458 11.7894Z" fill="white"/>
<path id="Vector_3" d="M35.2754 11.7371C36.2478 11.6578 38.8255 11.5972 39.7055 11.8024C40.2123 11.9206 39.833 12.2494 39.5593 12.4103C39.2671 12.5821 38.8628 12.6109 38.6265 12.7391C38.555 12.778 38.5014 12.8029 38.4967 12.8962C38.5636 15.7809 38.3405 18.6718 38.4369 21.5558C38.4819 22.9084 38.4952 24.2104 39.5858 25.1658C40.8015 26.23 43.1546 26.3676 44.5344 25.584C46.2647 24.6014 46.5897 23.2014 46.6946 21.3234C46.7949 19.5363 46.7498 17.7219 46.6931 15.9371C46.6697 15.2088 46.791 13.2708 46.2608 12.7578C45.9219 12.429 45.0575 12.6186 44.9767 12.2074C44.9207 11.9198 44.9922 11.8514 45.2487 11.7939C45.911 11.6454 48.7483 11.6392 49.4068 11.7908C49.6182 11.8397 49.7107 11.982 49.6664 12.195C49.577 12.6241 49.022 12.3715 48.7344 12.642C48.4467 12.9125 48.3869 14.0427 48.3589 14.4446C48.2042 16.6647 48.3224 18.9253 48.1887 21.1539C48.034 23.7347 47.758 25.4114 45.321 26.7135C43.3403 27.7722 39.6153 27.5756 37.8398 26.1087C35.9198 24.5221 36.2222 23.0024 36.1491 20.7481C36.0916 18.961 36.0496 17.1506 35.9727 15.3642C35.947 14.7758 35.9913 13.0244 35.5467 12.6365C35.2132 12.3458 34.5338 12.6598 34.484 12.1452C34.4444 11.7395 34.9722 11.762 35.2746 11.7379L35.2754 11.7371Z" fill="white"/>
<path id="Vector_4" d="M83.0483 26.6192C83.0577 26.0206 83.0172 25.4151 83.0406 24.8165C83.0452 24.6945 83.0934 24.5864 83.0996 24.4745C83.1206 24.1161 82.9426 23.2494 83.4922 23.3372C83.9189 23.4056 83.9073 24.1262 84.0153 24.4768C84.7919 26.9954 88.4625 27.1516 89.6651 24.9059C91.446 21.5804 86.8876 20.3545 85.022 18.7687C81.8621 16.083 83.2015 11.6685 87.368 11.4298C88.2457 11.3793 89.4187 11.4018 90.2932 11.4905C90.5202 11.513 91.0876 11.5697 91.2618 11.6685C91.6364 11.8799 91.4919 12.7 91.5268 13.0661C91.5579 13.3965 91.6994 13.9344 91.701 14.2166C91.7017 14.4809 91.3698 14.4451 91.1568 14.4109C90.6904 14.3355 90.444 13.4564 90.1742 13.1011C88.8186 11.3148 84.4958 12.5438 85.3897 15.1906C86.0396 17.1161 90.3756 18.5355 91.7111 20.5644C92.9882 22.5054 92.3345 24.8041 90.5466 26.1333C88.3832 27.7417 85.4527 27.5551 83.0475 26.6199L83.0483 26.6192Z" fill="white"/>
<path id="Vector_5" d="M75.1691 12.8287C75.0921 12.7478 74.8558 12.6351 74.7431 12.5955C74.4928 12.5084 73.8149 12.4773 73.7224 12.412C73.4488 12.2177 73.553 11.8632 73.9121 11.7909C74.9126 11.588 77.3946 11.6564 78.4876 11.7179C78.6695 11.728 79.0613 11.7559 79.2183 11.7894C79.5619 11.8632 79.5836 12.3203 79.3154 12.4353C79.1786 12.4944 79.0333 12.4423 78.8996 12.4781C78.2132 12.6631 77.8509 12.9663 77.7755 13.704C77.6263 15.1646 77.7646 16.6509 77.7709 18.1092C77.7802 20.2788 77.7009 22.4919 77.8237 24.6498C77.84 24.932 77.8937 25.5476 78.0111 25.7808C78.2925 26.3413 79.2688 26.1851 79.4352 26.4198C79.7896 26.9212 78.9796 27.0059 78.6594 27.0285C77.4739 27.1116 75.658 27.1054 74.4695 27.0285C74.1461 27.0075 73.4185 26.9958 73.626 26.5248C73.8017 26.1252 74.6988 26.3024 75.0727 25.9075C75.4186 25.5422 75.5103 24.3528 75.5344 23.8468C75.6464 21.5 75.5228 19.0801 75.4722 16.738C75.4489 15.6676 75.5772 14.2823 75.3432 13.2554C75.3098 13.107 75.2779 12.9422 75.1691 12.8279V12.8287Z" fill="white"/>
<path id="Vector_6" d="M132.676 26.6968C132.455 26.5926 132.207 26.5934 131.98 26.5048C131.289 26.2335 130.913 25.1934 130.577 24.5832L125.583 11.8036C125.335 11.6333 124.335 12.2591 124.048 12.3664L118.923 25.1561C118.647 25.6893 118.331 26.3275 117.726 26.5397C117.348 26.6727 116.742 26.6027 117.068 27.2572H122.227C122.381 27.2572 122.405 26.8561 122.318 26.7216C122.178 26.504 121.202 26.6478 120.858 25.9902C120.588 25.4748 120.725 25.0379 120.865 24.5194C121.103 23.634 121.497 22.7463 121.769 21.8679C121.992 21.8119 122.327 21.7645 122.569 21.7513C123.766 21.6868 125.705 21.6432 126.874 21.7513C127.299 21.7909 127.372 22.1563 127.54 22.5185C127.771 23.0114 128.539 24.8389 128.507 25.2789C128.475 25.7165 127.989 26.3812 127.562 26.5164C127.159 26.6447 126.424 26.5164 126.842 27.2292L132.435 27.2611L132.75 27.1632L132.677 26.6983L132.676 26.6968ZM122.457 20.2051C122.44 20.2051 122.355 20.1196 122.379 20.073L124.262 14.7015L124.402 14.8197L126.612 20.2051H122.456H122.457Z" fill="white"/>
<path id="Vector_7" d="M145.745 14.9762C144.669 11.2364 140.207 11.6865 137.131 11.8334C136.339 11.8715 135.387 11.9088 134.61 12.0076C134.336 12.0425 134.198 12.0651 134.24 12.3752C134.291 12.753 135.144 12.7958 135.473 12.9225C136.066 13.1518 136.152 13.4379 136.191 14.0395C136.422 17.6721 136.017 21.5557 136.181 25.2139C136.125 25.7806 135.929 26.1366 135.407 26.39C134.942 26.6147 134.091 26.5665 134.321 27.2606L140.078 27.3057C140.083 27.158 140.134 26.8689 140.031 26.767C139.91 26.6497 139.124 26.4911 138.852 26.3403C137.951 25.8381 138.227 24.7335 138.196 23.8427C138.192 23.7066 138.138 23.5815 138.134 23.4462C138.111 22.5585 138.157 21.6653 138.137 20.7784C138.468 20.8887 138.722 21.139 139.054 21.265C140.098 21.6591 142.053 21.6288 143.097 21.2378C145.683 20.2723 146.466 17.4785 145.745 14.9755V14.9762ZM143.656 18.301C143.033 20.4869 139.956 20.846 138.202 19.9093C138.232 18.3554 138.08 16.7983 138.133 15.2437C138.147 14.8666 138.157 14.3489 138.193 13.9851C138.324 12.6823 140.419 12.7717 141.357 12.9987C143.579 13.5366 144.208 16.3584 143.655 18.3002L143.656 18.301Z" fill="white"/>
<path id="Vector_8" d="M21.1271 31.1543C20.0155 32.0653 18.6194 32.1469 17.6283 31.012C16.697 29.9447 16.5866 28.2703 15.3887 27.4036C14.5298 26.7817 12.9821 26.6713 12.6004 27.8731C12.1767 29.2094 14.0229 30.2168 14.763 29.1759C15.4315 28.2361 14.2834 27.1556 13.4182 27.8879L13.216 28.4584C13.031 27.0709 15.1128 27.2201 15.2745 28.3776C15.461 29.7154 14.3642 30.4383 13.1461 30.0473C12.1542 29.7294 11.4686 28.4266 10.4666 27.9112C9.82139 27.58 9.08523 27.5443 8.40039 27.3406C10.3826 25.5069 13.7415 24.0952 16.2384 25.7509C18.3116 27.1261 17.3158 30.0124 18.6031 31.068C19.3369 31.6697 20.3132 31.3921 21.1271 31.1535V31.1543Z" fill="white"/>
<path id="Vector_9" d="M10.0049 7.53505C10.1169 7.42622 11.1733 7.88719 11.3428 8.00301C12.3813 8.71351 12.3253 10.1741 12.6969 11.2352C12.843 11.6519 13.3444 12.2877 13.419 12.5793C13.44 12.6593 13.4742 12.7215 13.3887 12.7837C12.9861 12.8879 12.5904 12.7394 12.2445 12.5474C10.6214 11.6457 9.81916 9.3074 10.0042 7.53583L10.0049 7.53505Z" fill="white"/>
<path id="Vector_10" d="M11.9994 15.1141C10.8474 15.2027 10.1937 17.3552 11.7538 17.3427C12.1814 17.3396 13.3334 17.0574 13.4764 16.5965C13.7415 15.7429 12.783 15.0534 11.9994 15.1141ZM12.4721 16.2226C11.5424 16.4682 11.1187 15.4367 12.0546 15.2882C12.8778 15.1576 13.265 16.0127 12.4721 16.2226Z" fill="white"/>
<path id="Vector_11" d="M17.4004 13.7832C17.6756 13.8983 17.8785 14.1252 18.1451 14.2714C19.4736 15.0021 21.6315 15.0052 23.1458 15.4047C25.711 16.081 27.4188 17.7966 27.2641 20.5795C27.2237 21.311 27.0193 22.1459 26.5739 22.7266C26.5863 21.29 25.5446 20.4528 24.3957 19.8302C22.4508 18.7761 17.4004 17.4981 17.4004 14.7292V13.7832Z" fill="white"/>
<path id="Vector_12" d="M23.7644 12.1227C24.6506 13.0454 25.3572 14.2837 25.5406 15.5624C24.8231 14.4741 23.9509 14.1997 22.7025 14.0723C21.3383 13.9331 20.0961 14.0023 18.7614 13.5421C15.6986 12.4865 14.8389 8.57253 11.8205 7.23938L10.1196 6.73411C12.3576 6.60662 14.0647 7.92656 15.4351 9.53333C17.5884 9.16332 19.8217 9.3491 21.7378 10.4498C21.8677 10.5244 22.2237 10.7141 22.3038 10.8012C22.5813 11.1044 22.5269 12.4554 22.4048 12.8557C22.2968 13.2102 21.9905 13.4037 22.3045 13.7815C22.9832 14.5993 23.8103 12.6583 23.7644 12.1219V12.1227Z" fill="white"/>
<path id="Vector_13" d="M23.4778 29.4347C23.5687 29.0149 23.8222 28.6286 23.8727 28.1964C24.2637 24.8491 19.7116 22.5824 20.7835 19.1162C21.5912 19.5507 22.4229 19.9713 23.2081 20.4463C24.5241 21.243 25.687 22.0577 26.0982 23.6326C26.6805 25.8636 25.6621 28.5213 23.4778 29.4347Z" fill="white"/>
<path id="Vector_14" d="M12.6426 24.0453C13.9594 22.9788 15.7496 23.0884 17.2989 22.6538C19.3153 22.0879 19.8641 20.5138 19.3884 18.5906C19.3791 18.5525 19.2889 18.3761 19.4078 18.4562C20.2862 19.5421 20.35 21.1287 19.4366 22.2123C17.7979 24.158 14.7958 23.2019 12.6426 24.0453Z" fill="white"/>
<path id="Vector_15" d="M23.019 11.405C23.0019 11.1998 22.928 10.8461 22.8627 10.644C22.5984 9.81841 21.399 9.33412 20.6675 8.99753C20.6721 8.82185 22.4942 9.61708 22.6116 9.53701C22.7259 9.0465 22.701 8.53112 22.8052 8.03829C22.8246 7.94501 22.8767 7.69781 22.9607 7.65039C22.9047 8.20308 22.907 8.77832 23.0345 9.32557C23.249 10.2428 24.4221 10.9557 24.911 11.7486L23.7598 10.836C23.5856 10.7217 23.3618 10.588 23.3066 10.8911C23.1861 11.548 23.3151 12.2772 23.0174 12.9247C22.8658 12.9138 23.0174 12.7 23.0174 12.6674C23.0174 12.2655 23.0508 11.7975 23.0174 11.4065L23.019 11.405Z" fill="white"/>
<path id="Vector_16" d="M11.1553 12.4911L0.230465 0.369141C0.133296 0.430551 0.253784 0.495071 0.287987 0.540934C1.20526 1.7396 2.17382 2.90173 3.09108 4.10196C5.33062 7.03411 7.45046 10.0541 9.67367 12.9987C9.84701 13.3151 9.43813 13.5133 9.16839 13.5506C8.76728 13.6066 8.35295 13.5319 8.056 13.2397C7.48232 12.673 6.59692 11.1214 6.10486 10.3751C5.29564 9.14771 4.55561 7.87131 3.69897 6.67653L7.42403 13.7037C7.44113 13.9711 6.97626 14.4057 6.82701 14.6498C6.20514 15.6689 6.33963 17.0945 5.81104 18.2776C4.68699 20.7924 2.22358 21.5946 3.23801 24.8796C3.5233 25.8024 4.08531 26.383 4.47399 27.1977C4.55638 27.3703 4.60304 27.7644 4.75695 27.7753C4.97305 27.7916 5.87477 27.5164 6.13518 27.4309C7.07888 27.1215 8.84501 26.2765 8.97172 25.1649C9.18394 23.3079 7.54683 23.2449 6.68864 22.0594C5.65555 20.6322 6.96306 19.2999 7.33851 17.9131C7.51653 17.2539 7.48777 16.6421 7.61136 16.0078C7.86789 14.6824 8.86367 15.0765 9.84701 14.6894C10.7456 14.3357 11.4219 13.49 11.1545 12.4926L11.1553 12.4911ZM4.99093 24.0479C4.81292 24.264 4.50276 24.372 4.28821 24.1458C4.06122 23.9064 4.43202 23.6118 4.38304 23.4524C4.35817 23.3708 3.94072 23.2099 4.1988 23.0101C4.73906 22.5927 5.49077 23.4369 4.99093 24.0471V24.0479Z" fill="white"/>
</g>
</svg>
